<?xml version="1.0" encoding="utf-8" standalone="no"?>
<!DOCTYPE svg PUBLIC "-//W3C//DTD SVG 1.1//EN"
  "http://www.w3.org/Graphics/SVG/1.1/DTD/svg11.dtd">
<!-- Created with matplotlib (http://matplotlib.org/) -->
<svg height="432pt" version="1.1" viewBox="0 0 864 432" width="864pt" xmlns="http://www.w3.org/2000/svg" xmlns:xlink="http://www.w3.org/1999/xlink">
 <defs>
  <style type="text/css">
*{stroke-linecap:butt;stroke-linejoin:round;stroke-miterlimit:100000;}
  </style>
 </defs>
 <g id="figure_1">
  <g id="patch_1">
   <path d="M 0 432 
L 864 432 
L 864 0 
L 0 0 
z
" style="fill:#ffffff;"/>
  </g>
  <g id="axes_1">
   <g id="patch_2">
    <path d="M 108 388.8 
L 777.6 388.8 
L 777.6 43.2 
L 108 43.2 
z
" style="fill:#ffffff;"/>
   </g>
   <g id="line2d_1">
    <path clip-path="url(#p553cca84b8)" d="M 108 312.768 
L 777.6 312.768 
" style="fill:none;stroke:#0000ff;stroke-linecap:square;"/>
   </g>
   <g id="line2d_2">
    <path clip-path="url(#p553cca84b8)" d="M 777.6 44.073134 
L 747.3936 44.591235 
L 722.9904 45.225657 
L 702.456 45.976998 
L 684.7488 46.842769 
L 669.1248 47.825193 
L 655.1376 48.923607 
L 642.4896 50.135114 
L 630.8832 51.465552 
L 620.1696 52.912385 
L 610.2 54.477453 
L 600.8256 56.169205 
L 591.8976 58.004927 
L 583.416 59.976358 
L 575.3808 62.071255 
L 567.6432 64.318889 
L 560.2032 66.713218 
L 553.0608 69.245409 
L 546.216 71.903823 
L 539.52 74.739755 
L 532.9728 77.752536 
L 526.5744 80.939786 
L 520.3248 84.297336 
L 514.0752 87.908192 
L 507.9744 91.687884 
L 501.8736 95.728668 
L 495.7728 100.038658 
L 489.672 104.624527 
L 483.5712 109.491219 
L 477.4704 114.641649 
L 471.2208 120.212508 
L 464.9712 126.079534 
L 458.5728 132.387479 
L 451.8768 139.30495 
L 444.8832 146.858504 
L 437.592 155.066198 
L 429.7056 164.28847 
L 421.0752 174.732744 
L 410.9568 187.344492 
L 397.1184 204.986302 
L 374.2032 234.213756 
L 363.936 246.916187 
L 355.3056 257.250544 
L 347.4192 266.352929 
L 340.128 274.43598 
L 333.1344 281.85994 
L 326.4384 288.646248 
L 319.8912 294.964251 
L 313.4928 300.827288 
L 307.2432 306.252844 
L 301.1424 311.26141 
L 295.0416 315.98742 
L 288.9408 320.43484 
L 282.84 324.609515 
L 276.7392 328.518871 
L 270.4896 332.257603 
L 264.24 335.737573 
L 257.8416 339.044171 
L 251.2944 342.172581 
L 244.5984 345.119857 
L 237.7536 347.884851 
L 230.76 350.468117 
L 223.6176 352.871773 
L 216.1776 355.142563 
L 208.44 357.272458 
L 200.256 359.290756 
L 191.7744 361.152205 
L 182.8464 362.884296 
L 173.3232 364.503121 
L 163.2048 365.995178 
L 152.3424 367.369295 
L 140.5872 368.628057 
L 127.7904 369.769962 
L 113.8032 370.791548 
L 108 371.156176 
L 108 371.156176 
" style="fill:none;stroke:#0000ff;stroke-dasharray:3.000000,5.000000,1.000000,5.000000;stroke-dashoffset:0.0;stroke-width:2.0;"/>
   </g>
   <g id="line2d_3">
    <path clip-path="url(#p553cca84b8)" d="M 777.6 44.534575 
L 752.7504 45.156703 
L 731.9184 45.894958 
L 713.9136 46.751571 
L 698.1408 47.719992 
L 684.0048 48.806526 
L 671.208 50.009109 
L 659.4528 51.334229 
L 648.5904 52.780153 
L 638.472 54.349434 
L 628.9488 56.051166 
L 620.0208 57.870952 
L 611.5392 59.82548 
L 603.504 61.902659 
L 595.7664 64.131558 
L 588.3264 66.506247 
L 581.184 69.01802 
L 574.1904 71.715351 
L 567.4944 74.534594 
L 560.9472 77.530026 
L 554.5488 80.69935 
L 548.2992 84.038491 
L 542.0496 87.630094 
L 535.9488 91.390237 
L 529.848 95.410805 
L 523.7472 99.700011 
L 517.6464 104.26465 
L 511.5456 109.109808 
L 505.4448 114.238566 
L 499.1952 119.787279 
L 492.9456 125.632436 
L 486.5472 131.918535 
L 479.8512 138.814033 
L 473.0064 146.182347 
L 465.7152 154.362682 
L 457.9776 163.382233 
L 449.496 173.614594 
L 439.6752 185.8212 
L 426.5808 202.482138 
L 400.6896 235.497281 
L 390.72 247.800179 
L 382.0896 258.104642 
L 374.352 267.007001 
L 367.0608 275.063673 
L 360.0672 282.46034 
L 353.3712 289.219134 
L 346.824 295.50932 
L 340.4256 301.344646 
L 334.176 306.742932 
L 328.0752 311.724935 
L 321.9744 316.424661 
L 315.8736 320.846264 
L 309.7728 324.99575 
L 303.672 328.880681 
L 297.4224 332.595295 
L 291.1728 336.052151 
L 284.7744 339.336193 
L 278.2272 342.442729 
L 271.5312 345.368922 
L 264.6864 348.113721 
L 257.6928 350.677752 
L 250.4016 353.110512 
L 242.9616 355.359283 
L 235.224 357.468214 
L 227.04 359.46637 
L 218.4096 361.339397 
L 209.3328 363.076837 
L 199.8096 364.672061 
L 189.5424 366.162189 
L 178.5312 367.529977 
L 166.6272 368.77871 
L 153.6816 369.907683 
L 139.5456 370.914306 
L 123.7728 371.811081 
L 108 372.517078 
L 108 372.517078 
" style="fill:none;stroke:#008000;stroke-dasharray:6.000000,6.000000;stroke-dashoffset:0.0;stroke-width:2.0;"/>
   </g>
   <g id="line2d_4">
    <path clip-path="url(#p553cca84b8)" d="M 777.6 45.241339 
L 757.2144 45.992065 
L 739.5072 46.862482 
L 723.8832 47.850147 
L 709.896 48.954383 
L 697.248 50.172267 
L 685.6416 51.509652 
L 674.928 52.963973 
L 664.9584 54.537064 
L 655.584 56.237397 
L 646.656 58.082326 
L 638.1744 60.063518 
L 630.1392 62.168651 
L 622.4016 64.427104 
L 614.9616 66.832777 
L 607.8192 69.37676 
L 600.9744 72.047327 
L 594.2784 74.895968 
L 587.7312 77.92196 
L 581.3328 81.122863 
L 575.0832 84.494435 
L 568.8336 88.119957 
L 562.7328 91.914543 
L 556.632 95.970731 
L 550.5312 100.296561 
L 544.4304 104.898615 
L 538.3296 109.781729 
L 532.2288 114.948692 
L 525.9792 120.536456 
L 519.5808 126.563843 
L 513.0336 133.046267 
L 506.3376 139.994575 
L 499.344 147.578482 
L 492.0528 155.815229 
L 484.1664 165.065271 
L 475.3872 175.71803 
L 465.12 188.544287 
L 450.6864 206.970159 
L 429.7056 233.727183 
L 419.4384 246.444727 
L 410.6592 256.971016 
L 402.7728 266.084737 
L 395.4816 274.179447 
L 388.488 281.615436 
L 381.792 288.413847 
L 375.2448 294.744065 
L 368.8464 300.619259 
L 362.5968 306.056768 
L 356.496 311.076966 
L 350.3952 315.814482 
L 344.2944 320.273198 
L 338.1936 324.458889 
L 332.0928 328.378925 
L 325.8432 332.128198 
L 319.5936 335.618269 
L 313.1952 338.934722 
L 306.648 342.072688 
L 300.1008 344.96614 
L 293.256 347.745242 
L 286.2624 350.341943 
L 279.12 352.758322 
L 271.68 355.041329 
L 263.9424 357.182856 
L 255.9072 359.177461 
L 247.4256 361.053278 
L 238.4976 362.798899 
L 228.9744 364.430508 
L 218.856 365.934466 
L 207.9936 367.319645 
L 196.3872 368.573905 
L 183.7392 369.71552 
L 169.752 370.750134 
L 154.2768 371.667329 
L 136.8672 372.472089 
L 116.928 373.166269 
L 108 373.414802 
L 108 373.414802 
" style="fill:none;stroke:#ff0000;stroke-dasharray:3.000000,2.000000,3.000000,4.000000;stroke-dashoffset:0.0;stroke-width:2.0;"/>
   </g>
   <g id="line2d_5">
    <path clip-path="url(#p553cca84b8)" d="M 777.6 46.328239 
L 760.7856 47.246552 
L 745.9056 48.278277 
L 732.5136 49.425711 
L 720.312 50.690302 
L 709.0032 52.084419 
L 698.5872 53.589641 
L 688.7664 55.23303 
L 679.5408 57.002749 
L 670.9104 58.881685 
L 662.7264 60.886065 
L 654.84 63.044393 
L 647.2512 65.352069 
L 639.96 67.801752 
L 632.9664 70.383306 
L 626.1216 73.146506 
L 619.4256 76.091912 
L 612.8784 79.218386 
L 606.48 82.522993 
L 600.2304 86.000927 
L 593.9808 89.737541 
L 587.88 93.644759 
L 581.7792 97.817237 
L 575.6784 102.262415 
L 569.5776 106.986153 
L 563.4768 111.992435 
L 557.376 117.283072 
L 551.1264 122.996892 
L 544.728 129.151316 
L 538.1808 135.76004 
L 531.336 142.992488 
L 524.1936 150.871347 
L 516.6048 159.583259 
L 508.4208 169.32527 
L 499.1952 180.663721 
L 487.8864 194.934336 
L 449.7936 243.315623 
L 440.7168 254.299565 
L 432.6816 263.682485 
L 425.2416 272.036841 
L 418.248 279.565595 
L 411.4032 286.607366 
L 404.856 293.025549 
L 398.4576 298.988578 
L 392.208 304.512701 
L 385.9584 309.738369 
L 379.8576 314.55277 
L 373.7568 319.087108 
L 367.656 323.346672 
L 361.5552 327.338425 
L 355.3056 331.158585 
L 349.056 334.71666 
L 342.6576 338.099538 
L 336.2592 341.232001 
L 329.712 344.191779 
L 323.016 346.976739 
L 316.1712 349.586423 
L 309.0288 352.071344 
L 301.5888 354.42021 
L 293.8512 356.624489 
L 285.816 358.678389 
L 277.4832 360.578764 
L 268.704 362.353224 
L 259.3296 364.017717 
L 249.36 365.557304 
L 238.7952 366.962085 
L 227.3376 368.257919 
L 214.9872 369.428833 
L 201.4464 370.487087 
L 186.4176 371.434886 
L 169.6032 372.268715 
L 150.408 372.993179 
L 128.088 373.607425 
L 108 374.006457 
L 108 374.006457 
" style="fill:none;stroke:#00bfbf;stroke-dasharray:1.000000,3.000000;stroke-dashoffset:0.0;stroke-width:2.0;"/>
   </g>
   <g id="line2d_6">
    <path clip-path="url(#p553cca84b8)" d="M 777.6 48.0102 
L 763.9104 49.124895 
L 751.4112 50.36192 
L 739.9536 51.715602 
L 729.3888 53.182536 
L 719.4192 54.789574 
L 710.0448 56.526206 
L 701.2656 58.376673 
L 692.9328 60.357425 
L 684.8976 62.497001 
L 677.3088 64.745418 
L 670.0176 67.1332 
L 662.8752 69.706745 
L 656.0304 72.407766 
L 649.3344 75.288237 
L 642.7872 78.347301 
L 636.3888 81.582358 
L 630.1392 84.988984 
L 623.8896 88.651146 
L 617.7888 92.48291 
L 611.688 96.577517 
L 605.5872 100.942815 
L 599.4864 105.585153 
L 593.3856 110.50909 
L 587.2848 115.717098 
L 581.0352 121.34676 
L 574.6368 127.416445 
L 568.0896 133.941007 
L 561.3936 140.930625 
L 554.4 148.555072 
L 546.96 157.002605 
L 538.9248 166.473897 
L 529.9968 177.355384 
L 519.432 190.600687 
L 503.3616 211.157381 
L 485.6544 233.712182 
L 475.3872 246.430505 
L 466.608 256.957607 
L 458.7216 266.072155 
L 451.4304 274.167696 
L 444.4368 281.604527 
L 437.7408 288.403775 
L 431.1936 294.73483 
L 424.7952 300.61085 
L 418.5456 306.049165 
L 412.4448 311.070145 
L 406.344 315.808429 
L 400.2432 320.267897 
L 394.1424 324.454319 
L 388.0416 328.375061 
L 381.792 332.12503 
L 375.5424 335.615765 
L 369.144 338.932865 
L 362.5968 342.071457 
L 356.0496 344.965499 
L 349.2048 347.745178 
L 342.2112 350.342428 
L 335.0688 352.759326 
L 327.6288 355.042831 
L 319.8912 357.184831 
L 311.856 359.179882 
L 303.3744 361.056125 
L 294.4464 362.802145 
L 284.9232 364.434132 
L 274.8048 365.938442 
L 263.9424 367.323947 
L 252.336 368.578505 
L 239.688 369.720393 
L 225.7008 370.755255 
L 210.2256 371.672672 
L 192.816 372.477628 
L 172.8768 373.171977 
L 149.5152 373.757034 
L 121.2432 374.234611 
L 108 374.396166 
L 108 374.396166 
" style="fill:none;stroke:#bf00bf;stroke-dasharray:1.000000,2.000000,3.000000,4.000000;stroke-dashoffset:0.0;stroke-width:2.0;"/>
   </g>
   <g id="line2d_7">
    <path clip-path="url(#p553cca84b8)" d="M 777.6 50.638337 
L 766.2912 52.023045 
L 755.8752 53.518202 
L 746.0544 55.150712 
L 736.8288 56.908843 
L 728.1984 58.775624 
L 719.8656 60.80555 
L 711.9792 62.954671 
L 704.3904 65.252653 
L 697.0992 67.692214 
L 690.1056 70.263289 
L 683.2608 73.015486 
L 676.5648 75.949407 
L 670.0176 79.063965 
L 663.6192 82.356284 
L 657.3696 85.821628 
L 651.12 89.545105 
L 645.0192 93.43902 
L 638.9184 97.597779 
L 632.8176 102.028896 
L 626.7168 106.738321 
L 620.616 111.730139 
L 614.5152 117.00628 
L 608.2656 122.705357 
L 601.8672 128.84496 
L 595.32 135.438992 
L 588.4752 142.656815 
L 581.3328 150.521471 
L 573.744 159.219775 
L 565.56 168.949182 
L 556.3344 180.276438 
L 545.1744 194.348714 
L 505.8912 244.213833 
L 496.9632 254.991567 
L 488.928 264.349151 
L 481.488 272.676955 
L 474.4944 280.17856 
L 467.7984 287.043281 
L 461.2512 293.44068 
L 454.8528 299.38292 
L 448.6032 304.886513 
L 442.3536 310.091638 
L 436.2528 314.886144 
L 430.152 319.400897 
L 424.0512 323.641313 
L 417.9504 327.614464 
L 411.7008 331.416226 
L 405.4512 334.95664 
L 399.0528 338.322258 
L 392.6544 341.43833 
L 386.1072 344.382261 
L 379.4112 347.151991 
L 372.4176 349.801007 
L 365.2752 352.26696 
L 357.8352 354.597593 
L 350.0976 356.784493 
L 342.0624 358.821964 
L 333.5808 360.738631 
L 324.6528 362.522731 
L 315.2784 364.166372 
L 305.3088 365.686474 
L 294.5952 367.091347 
L 283.1376 368.367675 
L 270.6384 369.533468 
L 256.9488 370.583528 
L 241.7712 371.520765 
L 224.6592 372.348808 
L 205.1664 373.063369 
L 182.4 373.668424 
L 155.0208 374.164867 
L 120.7968 374.552803 
L 108 374.652761 
L 108 374.652761 
" style="fill:none;stroke:#bfbf00;stroke-dasharray:3.000000,4.000000;stroke-dashoffset:0.0;stroke-width:2.0;"/>
   </g>
   <g id="line2d_8">
    <path clip-path="url(#p553cca84b8)" d="M 777.6 54.807701 
L 768.2256 56.546936 
L 759.4464 58.400146 
L 751.1136 60.383795 
L 743.0784 62.526459 
L 735.4896 64.778073 
L 728.1984 67.169195 
L 721.056 69.746279 
L 714.2112 72.450945 
L 707.5152 75.335224 
L 700.968 78.398246 
L 694.5696 81.637388 
L 688.32 85.048205 
L 682.0704 88.714747 
L 675.9696 92.550955 
L 669.8688 96.650152 
L 663.768 101.020165 
L 657.6672 105.667313 
L 651.5664 110.596123 
L 645.4656 115.809029 
L 639.216 121.443689 
L 632.8176 127.518417 
L 626.2704 134.048001 
L 619.5744 141.04254 
L 612.5808 148.671813 
L 605.1408 157.124033 
L 597.1056 166.599757 
L 588.1776 177.48526 
L 577.6128 190.733899 
L 561.3936 211.483426 
L 543.8352 233.844458 
L 533.568 246.559058 
L 524.7888 257.081892 
L 516.9024 266.191877 
L 509.6112 274.282689 
L 502.6176 281.714616 
L 495.9216 288.50891 
L 489.3744 294.83495 
L 482.976 300.705967 
L 476.7264 306.139354 
L 470.6256 311.155529 
L 464.5248 315.889055 
L 458.424 320.343846 
L 452.3232 324.525701 
L 446.2224 328.442013 
L 439.9728 332.187605 
L 433.7232 335.674144 
L 427.3248 338.987147 
L 420.7776 342.121764 
L 414.2304 345.012056 
L 407.3856 347.788057 
L 400.392 350.381802 
L 393.2496 352.795381 
L 385.8096 355.075697 
L 378.072 357.214661 
L 370.0368 359.206844 
L 361.5552 361.080353 
L 352.6272 362.8238 
L 343.104 364.453354 
L 332.9856 365.955399 
L 322.1232 367.338799 
L 310.368 368.606135 
L 297.72 369.743731 
L 283.7328 370.774678 
L 268.2576 371.688603 
L 250.848 372.490479 
L 230.76 373.186569 
L 207.2496 373.771117 
L 178.8288 374.246661 
L 142.968 374.614235 
L 108 374.821667 
L 108 374.821667 
" style="fill:none;stroke:#000000;stroke-linecap:square;stroke-width:2.0;"/>
   </g>
   <g id="patch_3">
    <path d="M 108 43.2 
L 777.6 43.2 
" style="fill:none;stroke:#000000;stroke-linecap:square;stroke-linejoin:miter;"/>
   </g>
   <g id="patch_4">
    <path d="M 777.6 388.8 
L 777.6 43.2 
" style="fill:none;stroke:#000000;stroke-linecap:square;stroke-linejoin:miter;"/>
   </g>
   <g id="patch_5">
    <path d="M 108 388.8 
L 777.6 388.8 
" style="fill:none;stroke:#000000;stroke-linecap:square;stroke-linejoin:miter;"/>
   </g>
   <g id="patch_6">
    <path d="M 108 388.8 
L 108 43.2 
" style="fill:none;stroke:#000000;stroke-linecap:square;stroke-linejoin:miter;"/>
   </g>
   <g id="matplotlib.axis_1">
    <g id="xtick_1">
     <g id="line2d_9">
      <defs>
       <path d="M 0 0 
L 0 -4 
" id="m0b6250dfe3" style="stroke:#000000;stroke-width:0.5;"/>
      </defs>
      <g>
       <use style="stroke:#000000;stroke-width:0.5;" x="108.0" xlink:href="#m0b6250dfe3" y="388.8"/>
      </g>
     </g>
     <g id="line2d_10">
      <defs>
       <path d="M 0 0 
L 0 4 
" id="m792fdfb49b" style="stroke:#000000;stroke-width:0.5;"/>
      </defs>
      <g>
       <use style="stroke:#000000;stroke-width:0.5;" x="108.0" xlink:href="#m792fdfb49b" y="43.2"/>
      </g>
     </g>
     <g id="text_1">
      <!-- 15 -->
      <defs>
       <path d="M 12.40625 8.296875 
L 28.515625 8.296875 
L 28.515625 63.921875 
L 10.984375 60.40625 
L 10.984375 69.390625 
L 28.421875 72.90625 
L 38.28125 72.90625 
L 38.28125 8.296875 
L 54.390625 8.296875 
L 54.390625 0 
L 12.40625 0 
z
" id="BitstreamVeraSans-Roman-31"/>
       <path d="M 10.796875 72.90625 
L 49.515625 72.90625 
L 49.515625 64.59375 
L 19.828125 64.59375 
L 19.828125 46.734375 
Q 21.96875 47.46875 24.109375 47.828125 
Q 26.265625 48.1875 28.421875 48.1875 
Q 40.625 48.1875 47.75 41.5 
Q 54.890625 34.8125 54.890625 23.390625 
Q 54.890625 11.625 47.5625 5.09375 
Q 40.234375 -1.421875 26.90625 -1.421875 
Q 22.3125 -1.421875 17.546875 -0.640625 
Q 12.796875 0.140625 7.71875 1.703125 
L 7.71875 11.625 
Q 12.109375 9.234375 16.796875 8.0625 
Q 21.484375 6.890625 26.703125 6.890625 
Q 35.15625 6.890625 40.078125 11.328125 
Q 45.015625 15.765625 45.015625 23.390625 
Q 45.015625 31 40.078125 35.4375 
Q 35.15625 39.890625 26.703125 39.890625 
Q 22.75 39.890625 18.8125 39.015625 
Q 14.890625 38.140625 10.796875 36.28125 
z
" id="BitstreamVeraSans-Roman-35"/>
      </defs>
      <g transform="translate(100.365 401.918125)scale(0.12 -0.12)">
       <use xlink:href="#BitstreamVeraSans-Roman-31"/>
       <use x="63.623046875" xlink:href="#BitstreamVeraSans-Roman-35"/>
      </g>
     </g>
    </g>
    <g id="xtick_2">
     <g id="line2d_11">
      <g>
       <use style="stroke:#000000;stroke-width:0.5;" x="182.4" xlink:href="#m0b6250dfe3" y="388.8"/>
      </g>
     </g>
     <g id="line2d_12">
      <g>
       <use style="stroke:#000000;stroke-width:0.5;" x="182.4" xlink:href="#m792fdfb49b" y="43.2"/>
      </g>
     </g>
     <g id="text_2">
      <!-- 20 -->
      <defs>
       <path d="M 19.1875 8.296875 
L 53.609375 8.296875 
L 53.609375 0 
L 7.328125 0 
L 7.328125 8.296875 
Q 12.9375 14.109375 22.625 23.890625 
Q 32.328125 33.6875 34.8125 36.53125 
Q 39.546875 41.84375 41.421875 45.53125 
Q 43.3125 49.21875 43.3125 52.78125 
Q 43.3125 58.59375 39.234375 62.25 
Q 35.15625 65.921875 28.609375 65.921875 
Q 23.96875 65.921875 18.8125 64.3125 
Q 13.671875 62.703125 7.8125 59.421875 
L 7.8125 69.390625 
Q 13.765625 71.78125 18.9375 73 
Q 24.125 74.21875 28.421875 74.21875 
Q 39.75 74.21875 46.484375 68.546875 
Q 53.21875 62.890625 53.21875 53.421875 
Q 53.21875 48.921875 51.53125 44.890625 
Q 49.859375 40.875 45.40625 35.40625 
Q 44.1875 33.984375 37.640625 27.21875 
Q 31.109375 20.453125 19.1875 8.296875 
" id="BitstreamVeraSans-Roman-32"/>
       <path d="M 31.78125 66.40625 
Q 24.171875 66.40625 20.328125 58.90625 
Q 16.5 51.421875 16.5 36.375 
Q 16.5 21.390625 20.328125 13.890625 
Q 24.171875 6.390625 31.78125 6.390625 
Q 39.453125 6.390625 43.28125 13.890625 
Q 47.125 21.390625 47.125 36.375 
Q 47.125 51.421875 43.28125 58.90625 
Q 39.453125 66.40625 31.78125 66.40625 
M 31.78125 74.21875 
Q 44.046875 74.21875 50.515625 64.515625 
Q 56.984375 54.828125 56.984375 36.375 
Q 56.984375 17.96875 50.515625 8.265625 
Q 44.046875 -1.421875 31.78125 -1.421875 
Q 19.53125 -1.421875 13.0625 8.265625 
Q 6.59375 17.96875 6.59375 36.375 
Q 6.59375 54.828125 13.0625 64.515625 
Q 19.53125 74.21875 31.78125 74.21875 
" id="BitstreamVeraSans-Roman-30"/>
      </defs>
      <g transform="translate(174.765 401.918125)scale(0.12 -0.12)">
       <use xlink:href="#BitstreamVeraSans-Roman-32"/>
       <use x="63.623046875" xlink:href="#BitstreamVeraSans-Roman-30"/>
      </g>
     </g>
    </g>
    <g id="xtick_3">
     <g id="line2d_13">
      <g>
       <use style="stroke:#000000;stroke-width:0.5;" x="256.8" xlink:href="#m0b6250dfe3" y="388.8"/>
      </g>
     </g>
     <g id="line2d_14">
      <g>
       <use style="stroke:#000000;stroke-width:0.5;" x="256.8" xlink:href="#m792fdfb49b" y="43.2"/>
      </g>
     </g>
     <g id="text_3">
      <!-- 25 -->
      <g transform="translate(249.165 401.918125)scale(0.12 -0.12)">
       <use xlink:href="#BitstreamVeraSans-Roman-32"/>
       <use x="63.623046875" xlink:href="#BitstreamVeraSans-Roman-35"/>
      </g>
     </g>
    </g>
    <g id="xtick_4">
     <g id="line2d_15">
      <g>
       <use style="stroke:#000000;stroke-width:0.5;" x="331.2" xlink:href="#m0b6250dfe3" y="388.8"/>
      </g>
     </g>
     <g id="line2d_16">
      <g>
       <use style="stroke:#000000;stroke-width:0.5;" x="331.2" xlink:href="#m792fdfb49b" y="43.2"/>
      </g>
     </g>
     <g id="text_4">
      <!-- 30 -->
      <defs>
       <path d="M 40.578125 39.3125 
Q 47.65625 37.796875 51.625 33 
Q 55.609375 28.21875 55.609375 21.1875 
Q 55.609375 10.40625 48.1875 4.484375 
Q 40.765625 -1.421875 27.09375 -1.421875 
Q 22.515625 -1.421875 17.65625 -0.515625 
Q 12.796875 0.390625 7.625 2.203125 
L 7.625 11.71875 
Q 11.71875 9.328125 16.59375 8.109375 
Q 21.484375 6.890625 26.8125 6.890625 
Q 36.078125 6.890625 40.9375 10.546875 
Q 45.796875 14.203125 45.796875 21.1875 
Q 45.796875 27.640625 41.28125 31.265625 
Q 36.765625 34.90625 28.71875 34.90625 
L 20.21875 34.90625 
L 20.21875 43.015625 
L 29.109375 43.015625 
Q 36.375 43.015625 40.234375 45.921875 
Q 44.09375 48.828125 44.09375 54.296875 
Q 44.09375 59.90625 40.109375 62.90625 
Q 36.140625 65.921875 28.71875 65.921875 
Q 24.65625 65.921875 20.015625 65.03125 
Q 15.375 64.15625 9.8125 62.3125 
L 9.8125 71.09375 
Q 15.4375 72.65625 20.34375 73.4375 
Q 25.25 74.21875 29.59375 74.21875 
Q 40.828125 74.21875 47.359375 69.109375 
Q 53.90625 64.015625 53.90625 55.328125 
Q 53.90625 49.265625 50.4375 45.09375 
Q 46.96875 40.921875 40.578125 39.3125 
" id="BitstreamVeraSans-Roman-33"/>
      </defs>
      <g transform="translate(323.565 401.918125)scale(0.12 -0.12)">
       <use xlink:href="#BitstreamVeraSans-Roman-33"/>
       <use x="63.623046875" xlink:href="#BitstreamVeraSans-Roman-30"/>
      </g>
     </g>
    </g>
    <g id="xtick_5">
     <g id="line2d_17">
      <g>
       <use style="stroke:#000000;stroke-width:0.5;" x="405.6" xlink:href="#m0b6250dfe3" y="388.8"/>
      </g>
     </g>
     <g id="line2d_18">
      <g>
       <use style="stroke:#000000;stroke-width:0.5;" x="405.6" xlink:href="#m792fdfb49b" y="43.2"/>
      </g>
     </g>
     <g id="text_5">
      <!-- 35 -->
      <g transform="translate(397.965 401.918125)scale(0.12 -0.12)">
       <use xlink:href="#BitstreamVeraSans-Roman-33"/>
       <use x="63.623046875" xlink:href="#BitstreamVeraSans-Roman-35"/>
      </g>
     </g>
    </g>
    <g id="xtick_6">
     <g id="line2d_19">
      <g>
       <use style="stroke:#000000;stroke-width:0.5;" x="480.0" xlink:href="#m0b6250dfe3" y="388.8"/>
      </g>
     </g>
     <g id="line2d_20">
      <g>
       <use style="stroke:#000000;stroke-width:0.5;" x="480.0" xlink:href="#m792fdfb49b" y="43.2"/>
      </g>
     </g>
     <g id="text_6">
      <!-- 40 -->
      <defs>
       <path d="M 37.796875 64.3125 
L 12.890625 25.390625 
L 37.796875 25.390625 
z
M 35.203125 72.90625 
L 47.609375 72.90625 
L 47.609375 25.390625 
L 58.015625 25.390625 
L 58.015625 17.1875 
L 47.609375 17.1875 
L 47.609375 0 
L 37.796875 0 
L 37.796875 17.1875 
L 4.890625 17.1875 
L 4.890625 26.703125 
z
" id="BitstreamVeraSans-Roman-34"/>
      </defs>
      <g transform="translate(472.365 401.918125)scale(0.12 -0.12)">
       <use xlink:href="#BitstreamVeraSans-Roman-34"/>
       <use x="63.623046875" xlink:href="#BitstreamVeraSans-Roman-30"/>
      </g>
     </g>
    </g>
    <g id="xtick_7">
     <g id="line2d_21">
      <g>
       <use style="stroke:#000000;stroke-width:0.5;" x="554.4" xlink:href="#m0b6250dfe3" y="388.8"/>
      </g>
     </g>
     <g id="line2d_22">
      <g>
       <use style="stroke:#000000;stroke-width:0.5;" x="554.4" xlink:href="#m792fdfb49b" y="43.2"/>
      </g>
     </g>
     <g id="text_7">
      <!-- 45 -->
      <g transform="translate(546.765 401.918125)scale(0.12 -0.12)">
       <use xlink:href="#BitstreamVeraSans-Roman-34"/>
       <use x="63.623046875" xlink:href="#BitstreamVeraSans-Roman-35"/>
      </g>
     </g>
    </g>
    <g id="xtick_8">
     <g id="line2d_23">
      <g>
       <use style="stroke:#000000;stroke-width:0.5;" x="628.8" xlink:href="#m0b6250dfe3" y="388.8"/>
      </g>
     </g>
     <g id="line2d_24">
      <g>
       <use style="stroke:#000000;stroke-width:0.5;" x="628.8" xlink:href="#m792fdfb49b" y="43.2"/>
      </g>
     </g>
     <g id="text_8">
      <!-- 50 -->
      <g transform="translate(621.165 401.918125)scale(0.12 -0.12)">
       <use xlink:href="#BitstreamVeraSans-Roman-35"/>
       <use x="63.623046875" xlink:href="#BitstreamVeraSans-Roman-30"/>
      </g>
     </g>
    </g>
    <g id="xtick_9">
     <g id="line2d_25">
      <g>
       <use style="stroke:#000000;stroke-width:0.5;" x="703.2" xlink:href="#m0b6250dfe3" y="388.8"/>
      </g>
     </g>
     <g id="line2d_26">
      <g>
       <use style="stroke:#000000;stroke-width:0.5;" x="703.2" xlink:href="#m792fdfb49b" y="43.2"/>
      </g>
     </g>
     <g id="text_9">
      <!-- 55 -->
      <g transform="translate(695.565 401.918125)scale(0.12 -0.12)">
       <use xlink:href="#BitstreamVeraSans-Roman-35"/>
       <use x="63.623046875" xlink:href="#BitstreamVeraSans-Roman-35"/>
      </g>
     </g>
    </g>
    <g id="xtick_10">
     <g id="line2d_27">
      <g>
       <use style="stroke:#000000;stroke-width:0.5;" x="777.6" xlink:href="#m0b6250dfe3" y="388.8"/>
      </g>
     </g>
     <g id="line2d_28">
      <g>
       <use style="stroke:#000000;stroke-width:0.5;" x="777.6" xlink:href="#m792fdfb49b" y="43.2"/>
      </g>
     </g>
     <g id="text_10">
      <!-- 60 -->
      <defs>
       <path d="M 33.015625 40.375 
Q 26.375 40.375 22.484375 35.828125 
Q 18.609375 31.296875 18.609375 23.390625 
Q 18.609375 15.53125 22.484375 10.953125 
Q 26.375 6.390625 33.015625 6.390625 
Q 39.65625 6.390625 43.53125 10.953125 
Q 47.40625 15.53125 47.40625 23.390625 
Q 47.40625 31.296875 43.53125 35.828125 
Q 39.65625 40.375 33.015625 40.375 
M 52.59375 71.296875 
L 52.59375 62.3125 
Q 48.875 64.0625 45.09375 64.984375 
Q 41.3125 65.921875 37.59375 65.921875 
Q 27.828125 65.921875 22.671875 59.328125 
Q 17.53125 52.734375 16.796875 39.40625 
Q 19.671875 43.65625 24.015625 45.921875 
Q 28.375 48.1875 33.59375 48.1875 
Q 44.578125 48.1875 50.953125 41.515625 
Q 57.328125 34.859375 57.328125 23.390625 
Q 57.328125 12.15625 50.6875 5.359375 
Q 44.046875 -1.421875 33.015625 -1.421875 
Q 20.359375 -1.421875 13.671875 8.265625 
Q 6.984375 17.96875 6.984375 36.375 
Q 6.984375 53.65625 15.1875 63.9375 
Q 23.390625 74.21875 37.203125 74.21875 
Q 40.921875 74.21875 44.703125 73.484375 
Q 48.484375 72.75 52.59375 71.296875 
" id="BitstreamVeraSans-Roman-36"/>
      </defs>
      <g transform="translate(769.965 401.918125)scale(0.12 -0.12)">
       <use xlink:href="#BitstreamVeraSans-Roman-36"/>
       <use x="63.623046875" xlink:href="#BitstreamVeraSans-Roman-30"/>
      </g>
     </g>
    </g>
    <g id="text_11">
     <!-- Optical losses (dB) -->
     <defs>
      <path d="M 39.40625 66.21875 
Q 28.65625 66.21875 22.328125 58.203125 
Q 16.015625 50.203125 16.015625 36.375 
Q 16.015625 22.609375 22.328125 14.59375 
Q 28.65625 6.59375 39.40625 6.59375 
Q 50.140625 6.59375 56.421875 14.59375 
Q 62.703125 22.609375 62.703125 36.375 
Q 62.703125 50.203125 56.421875 58.203125 
Q 50.140625 66.21875 39.40625 66.21875 
M 39.40625 74.21875 
Q 54.734375 74.21875 63.90625 63.9375 
Q 73.09375 53.65625 73.09375 36.375 
Q 73.09375 19.140625 63.90625 8.859375 
Q 54.734375 -1.421875 39.40625 -1.421875 
Q 24.03125 -1.421875 14.8125 8.828125 
Q 5.609375 19.09375 5.609375 36.375 
Q 5.609375 53.65625 14.8125 63.9375 
Q 24.03125 74.21875 39.40625 74.21875 
" id="BitstreamVeraSans-Roman-4f"/>
      <path id="BitstreamVeraSans-Roman-20"/>
      <path d="M 8.015625 75.875 
L 15.828125 75.875 
Q 23.140625 64.359375 26.78125 53.3125 
Q 30.421875 42.28125 30.421875 31.390625 
Q 30.421875 20.453125 26.78125 9.375 
Q 23.140625 -1.703125 15.828125 -13.1875 
L 8.015625 -13.1875 
Q 14.5 -2 17.703125 9.0625 
Q 20.90625 20.125 20.90625 31.390625 
Q 20.90625 42.671875 17.703125 53.65625 
Q 14.5 64.65625 8.015625 75.875 
" id="BitstreamVeraSans-Roman-29"/>
      <path d="M 31 75.875 
Q 24.46875 64.65625 21.28125 53.65625 
Q 18.109375 42.671875 18.109375 31.390625 
Q 18.109375 20.125 21.3125 9.0625 
Q 24.515625 -2 31 -13.1875 
L 23.1875 -13.1875 
Q 15.875 -1.703125 12.234375 9.375 
Q 8.59375 20.453125 8.59375 31.390625 
Q 8.59375 42.28125 12.203125 53.3125 
Q 15.828125 64.359375 23.1875 75.875 
z
" id="BitstreamVeraSans-Roman-28"/>
      <path d="M 30.609375 48.390625 
Q 23.390625 48.390625 19.1875 42.75 
Q 14.984375 37.109375 14.984375 27.296875 
Q 14.984375 17.484375 19.15625 11.84375 
Q 23.34375 6.203125 30.609375 6.203125 
Q 37.796875 6.203125 41.984375 11.859375 
Q 46.1875 17.53125 46.1875 27.296875 
Q 46.1875 37.015625 41.984375 42.703125 
Q 37.796875 48.390625 30.609375 48.390625 
M 30.609375 56 
Q 42.328125 56 49.015625 48.375 
Q 55.71875 40.765625 55.71875 27.296875 
Q 55.71875 13.875 49.015625 6.21875 
Q 42.328125 -1.421875 30.609375 -1.421875 
Q 18.84375 -1.421875 12.171875 6.21875 
Q 5.515625 13.875 5.515625 27.296875 
Q 5.515625 40.765625 12.171875 48.375 
Q 18.84375 56 30.609375 56 
" id="BitstreamVeraSans-Roman-6f"/>
      <path d="M 9.421875 75.984375 
L 18.40625 75.984375 
L 18.40625 0 
L 9.421875 0 
z
" id="BitstreamVeraSans-Roman-6c"/>
      <path d="M 9.421875 54.6875 
L 18.40625 54.6875 
L 18.40625 0 
L 9.421875 0 
z
M 9.421875 75.984375 
L 18.40625 75.984375 
L 18.40625 64.59375 
L 9.421875 64.59375 
z
" id="BitstreamVeraSans-Roman-69"/>
      <path d="M 18.109375 8.203125 
L 18.109375 -20.796875 
L 9.078125 -20.796875 
L 9.078125 54.6875 
L 18.109375 54.6875 
L 18.109375 46.390625 
Q 20.953125 51.265625 25.265625 53.625 
Q 29.59375 56 35.59375 56 
Q 45.5625 56 51.78125 48.09375 
Q 58.015625 40.1875 58.015625 27.296875 
Q 58.015625 14.40625 51.78125 6.484375 
Q 45.5625 -1.421875 35.59375 -1.421875 
Q 29.59375 -1.421875 25.265625 0.953125 
Q 20.953125 3.328125 18.109375 8.203125 
M 48.6875 27.296875 
Q 48.6875 37.203125 44.609375 42.84375 
Q 40.53125 48.484375 33.40625 48.484375 
Q 26.265625 48.484375 22.1875 42.84375 
Q 18.109375 37.203125 18.109375 27.296875 
Q 18.109375 17.390625 22.1875 11.75 
Q 26.265625 6.109375 33.40625 6.109375 
Q 40.53125 6.109375 44.609375 11.75 
Q 48.6875 17.390625 48.6875 27.296875 
" id="BitstreamVeraSans-Roman-70"/>
      <path d="M 56.203125 29.59375 
L 56.203125 25.203125 
L 14.890625 25.203125 
Q 15.484375 15.921875 20.484375 11.0625 
Q 25.484375 6.203125 34.421875 6.203125 
Q 39.59375 6.203125 44.453125 7.46875 
Q 49.3125 8.734375 54.109375 11.28125 
L 54.109375 2.78125 
Q 49.265625 0.734375 44.1875 -0.34375 
Q 39.109375 -1.421875 33.890625 -1.421875 
Q 20.796875 -1.421875 13.15625 6.1875 
Q 5.515625 13.8125 5.515625 26.8125 
Q 5.515625 40.234375 12.765625 48.109375 
Q 20.015625 56 32.328125 56 
Q 43.359375 56 49.78125 48.890625 
Q 56.203125 41.796875 56.203125 29.59375 
M 47.21875 32.234375 
Q 47.125 39.59375 43.09375 43.984375 
Q 39.0625 48.390625 32.421875 48.390625 
Q 24.90625 48.390625 20.390625 44.140625 
Q 15.875 39.890625 15.1875 32.171875 
z
" id="BitstreamVeraSans-Roman-65"/>
      <path d="M 45.40625 46.390625 
L 45.40625 75.984375 
L 54.390625 75.984375 
L 54.390625 0 
L 45.40625 0 
L 45.40625 8.203125 
Q 42.578125 3.328125 38.25 0.953125 
Q 33.9375 -1.421875 27.875 -1.421875 
Q 17.96875 -1.421875 11.734375 6.484375 
Q 5.515625 14.40625 5.515625 27.296875 
Q 5.515625 40.1875 11.734375 48.09375 
Q 17.96875 56 27.875 56 
Q 33.9375 56 38.25 53.625 
Q 42.578125 51.265625 45.40625 46.390625 
M 14.796875 27.296875 
Q 14.796875 17.390625 18.875 11.75 
Q 22.953125 6.109375 30.078125 6.109375 
Q 37.203125 6.109375 41.296875 11.75 
Q 45.40625 17.390625 45.40625 27.296875 
Q 45.40625 37.203125 41.296875 42.84375 
Q 37.203125 48.484375 30.078125 48.484375 
Q 22.953125 48.484375 18.875 42.84375 
Q 14.796875 37.203125 14.796875 27.296875 
" id="BitstreamVeraSans-Roman-64"/>
      <path d="M 18.3125 70.21875 
L 18.3125 54.6875 
L 36.8125 54.6875 
L 36.8125 47.703125 
L 18.3125 47.703125 
L 18.3125 18.015625 
Q 18.3125 11.328125 20.140625 9.421875 
Q 21.96875 7.515625 27.59375 7.515625 
L 36.8125 7.515625 
L 36.8125 0 
L 27.59375 0 
Q 17.1875 0 13.234375 3.875 
Q 9.28125 7.765625 9.28125 18.015625 
L 9.28125 47.703125 
L 2.6875 47.703125 
L 2.6875 54.6875 
L 9.28125 54.6875 
L 9.28125 70.21875 
z
" id="BitstreamVeraSans-Roman-74"/>
      <path d="M 34.28125 27.484375 
Q 23.390625 27.484375 19.1875 25 
Q 14.984375 22.515625 14.984375 16.5 
Q 14.984375 11.71875 18.140625 8.90625 
Q 21.296875 6.109375 26.703125 6.109375 
Q 34.1875 6.109375 38.703125 11.40625 
Q 43.21875 16.703125 43.21875 25.484375 
L 43.21875 27.484375 
z
M 52.203125 31.203125 
L 52.203125 0 
L 43.21875 0 
L 43.21875 8.296875 
Q 40.140625 3.328125 35.546875 0.953125 
Q 30.953125 -1.421875 24.3125 -1.421875 
Q 15.921875 -1.421875 10.953125 3.296875 
Q 6 8.015625 6 15.921875 
Q 6 25.140625 12.171875 29.828125 
Q 18.359375 34.515625 30.609375 34.515625 
L 43.21875 34.515625 
L 43.21875 35.40625 
Q 43.21875 41.609375 39.140625 45 
Q 35.0625 48.390625 27.6875 48.390625 
Q 23 48.390625 18.546875 47.265625 
Q 14.109375 46.140625 10.015625 43.890625 
L 10.015625 52.203125 
Q 14.9375 54.109375 19.578125 55.046875 
Q 24.21875 56 28.609375 56 
Q 40.484375 56 46.34375 49.84375 
Q 52.203125 43.703125 52.203125 31.203125 
" id="BitstreamVeraSans-Roman-61"/>
      <path d="M 44.28125 53.078125 
L 44.28125 44.578125 
Q 40.484375 46.53125 36.375 47.5 
Q 32.28125 48.484375 27.875 48.484375 
Q 21.1875 48.484375 17.84375 46.4375 
Q 14.5 44.390625 14.5 40.28125 
Q 14.5 37.15625 16.890625 35.375 
Q 19.28125 33.59375 26.515625 31.984375 
L 29.59375 31.296875 
Q 39.15625 29.25 43.1875 25.515625 
Q 47.21875 21.78125 47.21875 15.09375 
Q 47.21875 7.46875 41.1875 3.015625 
Q 35.15625 -1.421875 24.609375 -1.421875 
Q 20.21875 -1.421875 15.453125 -0.5625 
Q 10.6875 0.296875 5.421875 2 
L 5.421875 11.28125 
Q 10.40625 8.6875 15.234375 7.390625 
Q 20.0625 6.109375 24.8125 6.109375 
Q 31.15625 6.109375 34.5625 8.28125 
Q 37.984375 10.453125 37.984375 14.40625 
Q 37.984375 18.0625 35.515625 20.015625 
Q 33.0625 21.96875 24.703125 23.78125 
L 21.578125 24.515625 
Q 13.234375 26.265625 9.515625 29.90625 
Q 5.8125 33.546875 5.8125 39.890625 
Q 5.8125 47.609375 11.28125 51.796875 
Q 16.75 56 26.8125 56 
Q 31.78125 56 36.171875 55.265625 
Q 40.578125 54.546875 44.28125 53.078125 
" id="BitstreamVeraSans-Roman-73"/>
      <path d="M 48.78125 52.59375 
L 48.78125 44.1875 
Q 44.96875 46.296875 41.140625 47.34375 
Q 37.3125 48.390625 33.40625 48.390625 
Q 24.65625 48.390625 19.8125 42.84375 
Q 14.984375 37.3125 14.984375 27.296875 
Q 14.984375 17.28125 19.8125 11.734375 
Q 24.65625 6.203125 33.40625 6.203125 
Q 37.3125 6.203125 41.140625 7.25 
Q 44.96875 8.296875 48.78125 10.40625 
L 48.78125 2.09375 
Q 45.015625 0.34375 40.984375 -0.53125 
Q 36.96875 -1.421875 32.421875 -1.421875 
Q 20.0625 -1.421875 12.78125 6.34375 
Q 5.515625 14.109375 5.515625 27.296875 
Q 5.515625 40.671875 12.859375 48.328125 
Q 20.21875 56 33.015625 56 
Q 37.15625 56 41.109375 55.140625 
Q 45.0625 54.296875 48.78125 52.59375 
" id="BitstreamVeraSans-Roman-63"/>
      <path d="M 19.671875 34.8125 
L 19.671875 8.109375 
L 35.5 8.109375 
Q 43.453125 8.109375 47.28125 11.40625 
Q 51.125 14.703125 51.125 21.484375 
Q 51.125 28.328125 47.28125 31.5625 
Q 43.453125 34.8125 35.5 34.8125 
z
M 19.671875 64.796875 
L 19.671875 42.828125 
L 34.28125 42.828125 
Q 41.5 42.828125 45.03125 45.53125 
Q 48.578125 48.25 48.578125 53.8125 
Q 48.578125 59.328125 45.03125 62.0625 
Q 41.5 64.796875 34.28125 64.796875 
z
M 9.8125 72.90625 
L 35.015625 72.90625 
Q 46.296875 72.90625 52.390625 68.21875 
Q 58.5 63.53125 58.5 54.890625 
Q 58.5 48.1875 55.375 44.234375 
Q 52.25 40.28125 46.1875 39.3125 
Q 53.46875 37.75 57.5 32.78125 
Q 61.53125 27.828125 61.53125 20.40625 
Q 61.53125 10.640625 54.890625 5.3125 
Q 48.25 0 35.984375 0 
L 9.8125 0 
z
" id="BitstreamVeraSans-Roman-42"/>
     </defs>
     <g transform="translate(386.7778125 418.531875)scale(0.12 -0.12)">
      <use xlink:href="#BitstreamVeraSans-Roman-4f"/>
      <use x="78.7109375" xlink:href="#BitstreamVeraSans-Roman-70"/>
      <use x="142.1875" xlink:href="#BitstreamVeraSans-Roman-74"/>
      <use x="181.396484375" xlink:href="#BitstreamVeraSans-Roman-69"/>
      <use x="209.1796875" xlink:href="#BitstreamVeraSans-Roman-63"/>
      <use x="264.16015625" xlink:href="#BitstreamVeraSans-Roman-61"/>
      <use x="325.439453125" xlink:href="#BitstreamVeraSans-Roman-6c"/>
      <use x="353.22265625" xlink:href="#BitstreamVeraSans-Roman-20"/>
      <use x="385.009765625" xlink:href="#BitstreamVeraSans-Roman-6c"/>
      <use x="412.79296875" xlink:href="#BitstreamVeraSans-Roman-6f"/>
      <use x="473.974609375" xlink:href="#BitstreamVeraSans-Roman-73"/>
      <use x="526.07421875" xlink:href="#BitstreamVeraSans-Roman-73"/>
      <use x="578.173828125" xlink:href="#BitstreamVeraSans-Roman-65"/>
      <use x="639.697265625" xlink:href="#BitstreamVeraSans-Roman-73"/>
      <use x="691.796875" xlink:href="#BitstreamVeraSans-Roman-20"/>
      <use x="723.583984375" xlink:href="#BitstreamVeraSans-Roman-28"/>
      <use x="762.59765625" xlink:href="#BitstreamVeraSans-Roman-64"/>
      <use x="826.07421875" xlink:href="#BitstreamVeraSans-Roman-42"/>
      <use x="894.677734375" xlink:href="#BitstreamVeraSans-Roman-29"/>
     </g>
    </g>
   </g>
   <g id="matplotlib.axis_2">
    <g id="ytick_1">
     <g id="line2d_29">
      <defs>
       <path d="M 0 0 
L 4 0 
" id="m5a6e804328" style="stroke:#000000;stroke-width:0.5;"/>
      </defs>
      <g>
       <use style="stroke:#000000;stroke-width:0.5;" x="108.0" xlink:href="#m5a6e804328" y="388.8"/>
      </g>
     </g>
     <g id="line2d_30">
      <defs>
       <path d="M 0 0 
L -4 0 
" id="m00da17e906" style="stroke:#000000;stroke-width:0.5;"/>
      </defs>
      <g>
       <use style="stroke:#000000;stroke-width:0.5;" x="777.6" xlink:href="#m00da17e906" y="388.8"/>
      </g>
     </g>
     <g id="text_12">
      <!-- 0.0 -->
      <defs>
       <path d="M 10.6875 12.40625 
L 21 12.40625 
L 21 0 
L 10.6875 0 
z
" id="BitstreamVeraSans-Roman-2e"/>
      </defs>
      <g transform="translate(84.91625 392.11125)scale(0.12 -0.12)">
       <use xlink:href="#BitstreamVeraSans-Roman-30"/>
       <use x="63.623046875" xlink:href="#BitstreamVeraSans-Roman-2e"/>
       <use x="95.41015625" xlink:href="#BitstreamVeraSans-Roman-30"/>
      </g>
     </g>
    </g>
    <g id="ytick_2">
     <g id="line2d_31">
      <g>
       <use style="stroke:#000000;stroke-width:0.5;" x="108.0" xlink:href="#m5a6e804328" y="319.68"/>
      </g>
     </g>
     <g id="line2d_32">
      <g>
       <use style="stroke:#000000;stroke-width:0.5;" x="777.6" xlink:href="#m00da17e906" y="319.68"/>
      </g>
     </g>
     <g id="text_13">
      <!-- 0.1 -->
      <g transform="translate(84.91625 322.99125)scale(0.12 -0.12)">
       <use xlink:href="#BitstreamVeraSans-Roman-30"/>
       <use x="63.623046875" xlink:href="#BitstreamVeraSans-Roman-2e"/>
       <use x="95.41015625" xlink:href="#BitstreamVeraSans-Roman-31"/>
      </g>
     </g>
    </g>
    <g id="ytick_3">
     <g id="line2d_33">
      <g>
       <use style="stroke:#000000;stroke-width:0.5;" x="108.0" xlink:href="#m5a6e804328" y="250.56"/>
      </g>
     </g>
     <g id="line2d_34">
      <g>
       <use style="stroke:#000000;stroke-width:0.5;" x="777.6" xlink:href="#m00da17e906" y="250.56"/>
      </g>
     </g>
     <g id="text_14">
      <!-- 0.2 -->
      <g transform="translate(84.91625 253.87125)scale(0.12 -0.12)">
       <use xlink:href="#BitstreamVeraSans-Roman-30"/>
       <use x="63.623046875" xlink:href="#BitstreamVeraSans-Roman-2e"/>
       <use x="95.41015625" xlink:href="#BitstreamVeraSans-Roman-32"/>
      </g>
     </g>
    </g>
    <g id="ytick_4">
     <g id="line2d_35">
      <g>
       <use style="stroke:#000000;stroke-width:0.5;" x="108.0" xlink:href="#m5a6e804328" y="181.44"/>
      </g>
     </g>
     <g id="line2d_36">
      <g>
       <use style="stroke:#000000;stroke-width:0.5;" x="777.6" xlink:href="#m00da17e906" y="181.44"/>
      </g>
     </g>
     <g id="text_15">
      <!-- 0.3 -->
      <g transform="translate(84.91625 184.75125)scale(0.12 -0.12)">
       <use xlink:href="#BitstreamVeraSans-Roman-30"/>
       <use x="63.623046875" xlink:href="#BitstreamVeraSans-Roman-2e"/>
       <use x="95.41015625" xlink:href="#BitstreamVeraSans-Roman-33"/>
      </g>
     </g>
    </g>
    <g id="ytick_5">
     <g id="line2d_37">
      <g>
       <use style="stroke:#000000;stroke-width:0.5;" x="108.0" xlink:href="#m5a6e804328" y="112.32"/>
      </g>
     </g>
     <g id="line2d_38">
      <g>
       <use style="stroke:#000000;stroke-width:0.5;" x="777.6" xlink:href="#m00da17e906" y="112.32"/>
      </g>
     </g>
     <g id="text_16">
      <!-- 0.4 -->
      <g transform="translate(84.91625 115.63125)scale(0.12 -0.12)">
       <use xlink:href="#BitstreamVeraSans-Roman-30"/>
       <use x="63.623046875" xlink:href="#BitstreamVeraSans-Roman-2e"/>
       <use x="95.41015625" xlink:href="#BitstreamVeraSans-Roman-34"/>
      </g>
     </g>
    </g>
    <g id="ytick_6">
     <g id="line2d_39">
      <g>
       <use style="stroke:#000000;stroke-width:0.5;" x="108.0" xlink:href="#m5a6e804328" y="43.2"/>
      </g>
     </g>
     <g id="line2d_40">
      <g>
       <use style="stroke:#000000;stroke-width:0.5;" x="777.6" xlink:href="#m00da17e906" y="43.2"/>
      </g>
     </g>
     <g id="text_17">
      <!-- 0.5 -->
      <g transform="translate(84.91625 46.51125)scale(0.12 -0.12)">
       <use xlink:href="#BitstreamVeraSans-Roman-30"/>
       <use x="63.623046875" xlink:href="#BitstreamVeraSans-Roman-2e"/>
       <use x="95.41015625" xlink:href="#BitstreamVeraSans-Roman-35"/>
      </g>
     </g>
    </g>
    <g id="text_18">
     <!-- QBER -->
     <defs>
      <path d="M 39.40625 66.21875 
Q 28.65625 66.21875 22.328125 58.203125 
Q 16.015625 50.203125 16.015625 36.375 
Q 16.015625 22.609375 22.328125 14.59375 
Q 28.65625 6.59375 39.40625 6.59375 
Q 50.140625 6.59375 56.421875 14.59375 
Q 62.703125 22.609375 62.703125 36.375 
Q 62.703125 50.203125 56.421875 58.203125 
Q 50.140625 66.21875 39.40625 66.21875 
M 53.21875 1.3125 
L 66.21875 -12.890625 
L 54.296875 -12.890625 
L 43.5 -1.21875 
Q 41.890625 -1.3125 41.03125 -1.359375 
Q 40.1875 -1.421875 39.40625 -1.421875 
Q 24.03125 -1.421875 14.8125 8.859375 
Q 5.609375 19.140625 5.609375 36.375 
Q 5.609375 53.65625 14.8125 63.9375 
Q 24.03125 74.21875 39.40625 74.21875 
Q 54.734375 74.21875 63.90625 63.9375 
Q 73.09375 53.65625 73.09375 36.375 
Q 73.09375 23.6875 67.984375 14.640625 
Q 62.890625 5.609375 53.21875 1.3125 
" id="BitstreamVeraSans-Roman-51"/>
      <path d="M 9.8125 72.90625 
L 55.90625 72.90625 
L 55.90625 64.59375 
L 19.671875 64.59375 
L 19.671875 43.015625 
L 54.390625 43.015625 
L 54.390625 34.71875 
L 19.671875 34.71875 
L 19.671875 8.296875 
L 56.78125 8.296875 
L 56.78125 0 
L 9.8125 0 
z
" id="BitstreamVeraSans-Roman-45"/>
      <path d="M 44.390625 34.1875 
Q 47.5625 33.109375 50.5625 29.59375 
Q 53.5625 26.078125 56.59375 19.921875 
L 66.609375 0 
L 56 0 
L 46.6875 18.703125 
Q 43.0625 26.03125 39.671875 28.421875 
Q 36.28125 30.8125 30.421875 30.8125 
L 19.671875 30.8125 
L 19.671875 0 
L 9.8125 0 
L 9.8125 72.90625 
L 32.078125 72.90625 
Q 44.578125 72.90625 50.734375 67.671875 
Q 56.890625 62.453125 56.890625 51.90625 
Q 56.890625 45.015625 53.6875 40.46875 
Q 50.484375 35.9375 44.390625 34.1875 
M 19.671875 64.796875 
L 19.671875 38.921875 
L 32.078125 38.921875 
Q 39.203125 38.921875 42.84375 42.21875 
Q 46.484375 45.515625 46.484375 51.90625 
Q 46.484375 58.296875 42.84375 61.546875 
Q 39.203125 64.796875 32.078125 64.796875 
z
" id="BitstreamVeraSans-Roman-52"/>
     </defs>
     <g transform="translate(77.420625 232.8)rotate(-90.0)scale(0.12 -0.12)">
      <use xlink:href="#BitstreamVeraSans-Roman-51"/>
      <use x="78.7109375" xlink:href="#BitstreamVeraSans-Roman-42"/>
      <use x="147.314453125" xlink:href="#BitstreamVeraSans-Roman-45"/>
      <use x="210.498046875" xlink:href="#BitstreamVeraSans-Roman-52"/>
     </g>
    </g>
   </g>
   <g id="text_19">
    <!-- QBER vs. Optical losses at different APD temperatures -->
    <defs>
     <path d="M 8.5 21.578125 
L 8.5 54.6875 
L 17.484375 54.6875 
L 17.484375 21.921875 
Q 17.484375 14.15625 20.5 10.265625 
Q 23.53125 6.390625 29.59375 6.390625 
Q 36.859375 6.390625 41.078125 11.03125 
Q 45.3125 15.671875 45.3125 23.6875 
L 45.3125 54.6875 
L 54.296875 54.6875 
L 54.296875 0 
L 45.3125 0 
L 45.3125 8.40625 
Q 42.046875 3.421875 37.71875 1 
Q 33.40625 -1.421875 27.6875 -1.421875 
Q 18.265625 -1.421875 13.375 4.4375 
Q 8.5 10.296875 8.5 21.578125 
" id="BitstreamVeraSans-Roman-75"/>
     <path d="M 54.890625 33.015625 
L 54.890625 0 
L 45.90625 0 
L 45.90625 32.71875 
Q 45.90625 40.484375 42.875 44.328125 
Q 39.84375 48.1875 33.796875 48.1875 
Q 26.515625 48.1875 22.3125 43.546875 
Q 18.109375 38.921875 18.109375 30.90625 
L 18.109375 0 
L 9.078125 0 
L 9.078125 54.6875 
L 18.109375 54.6875 
L 18.109375 46.1875 
Q 21.34375 51.125 25.703125 53.5625 
Q 30.078125 56 35.796875 56 
Q 45.21875 56 50.046875 50.171875 
Q 54.890625 44.34375 54.890625 33.015625 
" id="BitstreamVeraSans-Roman-6e"/>
     <path d="M 52 44.1875 
Q 55.375 50.25 60.0625 53.125 
Q 64.75 56 71.09375 56 
Q 79.640625 56 84.28125 50.015625 
Q 88.921875 44.046875 88.921875 33.015625 
L 88.921875 0 
L 79.890625 0 
L 79.890625 32.71875 
Q 79.890625 40.578125 77.09375 44.375 
Q 74.3125 48.1875 68.609375 48.1875 
Q 61.625 48.1875 57.5625 43.546875 
Q 53.515625 38.921875 53.515625 30.90625 
L 53.515625 0 
L 44.484375 0 
L 44.484375 32.71875 
Q 44.484375 40.625 41.703125 44.40625 
Q 38.921875 48.1875 33.109375 48.1875 
Q 26.21875 48.1875 22.15625 43.53125 
Q 18.109375 38.875 18.109375 30.90625 
L 18.109375 0 
L 9.078125 0 
L 9.078125 54.6875 
L 18.109375 54.6875 
L 18.109375 46.1875 
Q 21.1875 51.21875 25.484375 53.609375 
Q 29.78125 56 35.6875 56 
Q 41.65625 56 45.828125 52.96875 
Q 50 49.953125 52 44.1875 
" id="BitstreamVeraSans-Roman-6d"/>
     <path d="M 19.671875 64.796875 
L 19.671875 37.40625 
L 32.078125 37.40625 
Q 38.96875 37.40625 42.71875 40.96875 
Q 46.484375 44.53125 46.484375 51.125 
Q 46.484375 57.671875 42.71875 61.234375 
Q 38.96875 64.796875 32.078125 64.796875 
z
M 9.8125 72.90625 
L 32.078125 72.90625 
Q 44.34375 72.90625 50.609375 67.359375 
Q 56.890625 61.8125 56.890625 51.125 
Q 56.890625 40.328125 50.609375 34.8125 
Q 44.34375 29.296875 32.078125 29.296875 
L 19.671875 29.296875 
L 19.671875 0 
L 9.8125 0 
z
" id="BitstreamVeraSans-Roman-50"/>
     <path d="M 19.671875 64.796875 
L 19.671875 8.109375 
L 31.59375 8.109375 
Q 46.6875 8.109375 53.6875 14.9375 
Q 60.6875 21.78125 60.6875 36.53125 
Q 60.6875 51.171875 53.6875 57.984375 
Q 46.6875 64.796875 31.59375 64.796875 
z
M 9.8125 72.90625 
L 30.078125 72.90625 
Q 51.265625 72.90625 61.171875 64.09375 
Q 71.09375 55.28125 71.09375 36.53125 
Q 71.09375 17.671875 61.125 8.828125 
Q 51.171875 0 30.078125 0 
L 9.8125 0 
z
" id="BitstreamVeraSans-Roman-44"/>
     <path d="M 34.1875 63.1875 
L 20.796875 26.90625 
L 47.609375 26.90625 
z
M 28.609375 72.90625 
L 39.796875 72.90625 
L 67.578125 0 
L 57.328125 0 
L 50.6875 18.703125 
L 17.828125 18.703125 
L 11.1875 0 
L 0.78125 0 
z
" id="BitstreamVeraSans-Roman-41"/>
     <path d="M 2.984375 54.6875 
L 12.5 54.6875 
L 29.59375 8.796875 
L 46.6875 54.6875 
L 56.203125 54.6875 
L 35.6875 0 
L 23.484375 0 
z
" id="BitstreamVeraSans-Roman-76"/>
     <path d="M 37.109375 75.984375 
L 37.109375 68.5 
L 28.515625 68.5 
Q 23.6875 68.5 21.796875 66.546875 
Q 19.921875 64.59375 19.921875 59.515625 
L 19.921875 54.6875 
L 34.71875 54.6875 
L 34.71875 47.703125 
L 19.921875 47.703125 
L 19.921875 0 
L 10.890625 0 
L 10.890625 47.703125 
L 2.296875 47.703125 
L 2.296875 54.6875 
L 10.890625 54.6875 
L 10.890625 58.5 
Q 10.890625 67.625 15.140625 71.796875 
Q 19.390625 75.984375 28.609375 75.984375 
z
" id="BitstreamVeraSans-Roman-66"/>
     <path d="M 41.109375 46.296875 
Q 39.59375 47.171875 37.8125 47.578125 
Q 36.03125 48 33.890625 48 
Q 26.265625 48 22.1875 43.046875 
Q 18.109375 38.09375 18.109375 28.8125 
L 18.109375 0 
L 9.078125 0 
L 9.078125 54.6875 
L 18.109375 54.6875 
L 18.109375 46.1875 
Q 20.953125 51.171875 25.484375 53.578125 
Q 30.03125 56 36.53125 56 
Q 37.453125 56 38.578125 55.875 
Q 39.703125 55.765625 41.0625 55.515625 
z
" id="BitstreamVeraSans-Roman-72"/>
    </defs>
    <g transform="translate(246.747375 38.2)scale(0.144 -0.144)">
     <use xlink:href="#BitstreamVeraSans-Roman-51"/>
     <use x="78.7109375" xlink:href="#BitstreamVeraSans-Roman-42"/>
     <use x="147.314453125" xlink:href="#BitstreamVeraSans-Roman-45"/>
     <use x="210.498046875" xlink:href="#BitstreamVeraSans-Roman-52"/>
     <use x="279.98046875" xlink:href="#BitstreamVeraSans-Roman-20"/>
     <use x="311.767578125" xlink:href="#BitstreamVeraSans-Roman-76"/>
     <use x="370.947265625" xlink:href="#BitstreamVeraSans-Roman-73"/>
     <use x="423.046875" xlink:href="#BitstreamVeraSans-Roman-2e"/>
     <use x="454.833984375" xlink:href="#BitstreamVeraSans-Roman-20"/>
     <use x="486.62109375" xlink:href="#BitstreamVeraSans-Roman-4f"/>
     <use x="565.33203125" xlink:href="#BitstreamVeraSans-Roman-70"/>
     <use x="628.80859375" xlink:href="#BitstreamVeraSans-Roman-74"/>
     <use x="668.017578125" xlink:href="#BitstreamVeraSans-Roman-69"/>
     <use x="695.80078125" xlink:href="#BitstreamVeraSans-Roman-63"/>
     <use x="750.78125" xlink:href="#BitstreamVeraSans-Roman-61"/>
     <use x="812.060546875" xlink:href="#BitstreamVeraSans-Roman-6c"/>
     <use x="839.84375" xlink:href="#BitstreamVeraSans-Roman-20"/>
     <use x="871.630859375" xlink:href="#BitstreamVeraSans-Roman-6c"/>
     <use x="899.4140625" xlink:href="#BitstreamVeraSans-Roman-6f"/>
     <use x="960.595703125" xlink:href="#BitstreamVeraSans-Roman-73"/>
     <use x="1012.6953125" xlink:href="#BitstreamVeraSans-Roman-73"/>
     <use x="1064.79492188" xlink:href="#BitstreamVeraSans-Roman-65"/>
     <use x="1126.31835938" xlink:href="#BitstreamVeraSans-Roman-73"/>
     <use x="1178.41796875" xlink:href="#BitstreamVeraSans-Roman-20"/>
     <use x="1210.20507812" xlink:href="#BitstreamVeraSans-Roman-61"/>
     <use x="1271.484375" xlink:href="#BitstreamVeraSans-Roman-74"/>
     <use x="1310.69335938" xlink:href="#BitstreamVeraSans-Roman-20"/>
     <use x="1342.48046875" xlink:href="#BitstreamVeraSans-Roman-64"/>
     <use x="1405.95703125" xlink:href="#BitstreamVeraSans-Roman-69"/>
     <use x="1433.74023438" xlink:href="#BitstreamVeraSans-Roman-66"/>
     <use x="1468.9453125" xlink:href="#BitstreamVeraSans-Roman-66"/>
     <use x="1504.15039062" xlink:href="#BitstreamVeraSans-Roman-65"/>
     <use x="1565.67382812" xlink:href="#BitstreamVeraSans-Roman-72"/>
     <use x="1606.75585938" xlink:href="#BitstreamVeraSans-Roman-65"/>
     <use x="1668.27929688" xlink:href="#BitstreamVeraSans-Roman-6e"/>
     <use x="1731.65820312" xlink:href="#BitstreamVeraSans-Roman-74"/>
     <use x="1770.8671875" xlink:href="#BitstreamVeraSans-Roman-20"/>
     <use x="1802.65429688" xlink:href="#BitstreamVeraSans-Roman-41"/>
     <use x="1871.0625" xlink:href="#BitstreamVeraSans-Roman-50"/>
     <use x="1931.36523438" xlink:href="#BitstreamVeraSans-Roman-44"/>
     <use x="2008.3671875" xlink:href="#BitstreamVeraSans-Roman-20"/>
     <use x="2040.15429688" xlink:href="#BitstreamVeraSans-Roman-74"/>
     <use x="2079.36328125" xlink:href="#BitstreamVeraSans-Roman-65"/>
     <use x="2140.88671875" xlink:href="#BitstreamVeraSans-Roman-6d"/>
     <use x="2238.29882812" xlink:href="#BitstreamVeraSans-Roman-70"/>
     <use x="2301.77539062" xlink:href="#BitstreamVeraSans-Roman-65"/>
     <use x="2363.29882812" xlink:href="#BitstreamVeraSans-Roman-72"/>
     <use x="2404.41210938" xlink:href="#BitstreamVeraSans-Roman-61"/>
     <use x="2465.69140625" xlink:href="#BitstreamVeraSans-Roman-74"/>
     <use x="2504.90039062" xlink:href="#BitstreamVeraSans-Roman-75"/>
     <use x="2568.27929688" xlink:href="#BitstreamVeraSans-Roman-72"/>
     <use x="2609.36132812" xlink:href="#BitstreamVeraSans-Roman-65"/>
     <use x="2670.88476562" xlink:href="#BitstreamVeraSans-Roman-73"/>
    </g>
   </g>
   <g id="legend_1">
    <g id="patch_7">
     <path d="M 115.2 202.6755 
L 210.816 202.6755 
L 210.816 50.4 
L 115.2 50.4 
z
" style="fill:#ffffff;stroke:#000000;stroke-linejoin:miter;"/>
    </g>
    <g id="line2d_41">
     <path d="M 125.28 62.06175 
L 145.44 62.06175 
" style="fill:none;stroke:#0000ff;stroke-dasharray:3.000000,5.000000,1.000000,5.000000;stroke-dashoffset:0.0;stroke-width:2.0;"/>
    </g>
    <g id="line2d_42"/>
    <g id="text_20">
     <!-- 20$ ^\circ$C -->
     <defs>
      <path d="M 64.40625 67.28125 
L 64.40625 56.890625 
Q 59.421875 61.53125 53.78125 63.8125 
Q 48.140625 66.109375 41.796875 66.109375 
Q 29.296875 66.109375 22.65625 58.46875 
Q 16.015625 50.828125 16.015625 36.375 
Q 16.015625 21.96875 22.65625 14.328125 
Q 29.296875 6.6875 41.796875 6.6875 
Q 48.140625 6.6875 53.78125 8.984375 
Q 59.421875 11.28125 64.40625 15.921875 
L 64.40625 5.609375 
Q 59.234375 2.09375 53.4375 0.328125 
Q 47.65625 -1.421875 41.21875 -1.421875 
Q 24.65625 -1.421875 15.125 8.703125 
Q 5.609375 18.84375 5.609375 36.375 
Q 5.609375 53.953125 15.125 64.078125 
Q 24.65625 74.21875 41.21875 74.21875 
Q 47.75 74.21875 53.53125 72.484375 
Q 59.328125 70.75 64.40625 67.28125 
" id="BitstreamVeraSans-Roman-43"/>
      <path d="M 25 5.609375 
Q 19.828125 5.609375 15.359375 8.21875 
Q 10.890625 10.84375 8.25 15.375 
Q 5.609375 19.921875 5.609375 25 
Q 5.609375 30.078125 8.25 34.609375 
Q 10.890625 39.15625 15.359375 41.765625 
Q 19.828125 44.390625 25 44.390625 
Q 30.171875 44.390625 34.609375 41.75 
Q 39.0625 39.109375 41.671875 34.59375 
Q 44.28125 30.078125 44.28125 25 
Q 44.28125 19.921875 41.671875 15.40625 
Q 39.0625 10.890625 34.609375 8.25 
Q 30.171875 5.609375 25 5.609375 
M 25 9.625 
Q 31.25 9.625 35.765625 14.1875 
Q 40.28125 18.75 40.28125 25 
Q 40.28125 29 38.203125 32.59375 
Q 36.140625 36.1875 32.625 38.28125 
Q 29.109375 40.375 25 40.375 
Q 21.921875 40.375 19.140625 39.171875 
Q 16.359375 37.984375 14.15625 35.78125 
Q 11.96875 33.59375 10.796875 30.828125 
Q 9.625 28.078125 9.625 25 
Q 9.625 18.75 14.140625 14.1875 
Q 18.65625 9.625 25 9.625 
" id="Cmsy10-b1"/>
     </defs>
     <g transform="translate(161.28 67.10175)scale(0.144 -0.144)">
      <use transform="translate(0.0 0.78125)" xlink:href="#BitstreamVeraSans-Roman-32"/>
      <use transform="translate(63.623046875 0.78125)" xlink:href="#BitstreamVeraSans-Roman-30"/>
      <use transform="translate(144.00125 39.0453125)scale(0.7)" xlink:href="#Cmsy10-b1"/>
      <use transform="translate(197.669609375 0.78125)" xlink:href="#BitstreamVeraSans-Roman-43"/>
     </g>
    </g>
    <g id="line2d_43">
     <path d="M 125.28 83.19825 
L 145.44 83.19825 
" style="fill:none;stroke:#008000;stroke-dasharray:6.000000,6.000000;stroke-dashoffset:0.0;stroke-width:2.0;"/>
    </g>
    <g id="line2d_44"/>
    <g id="text_21">
     <!-- 15$ ^\circ$C -->
     <g transform="translate(161.28 88.23825)scale(0.144 -0.144)">
      <use transform="translate(0.0 0.78125)" xlink:href="#BitstreamVeraSans-Roman-31"/>
      <use transform="translate(63.623046875 0.78125)" xlink:href="#BitstreamVeraSans-Roman-35"/>
      <use transform="translate(144.00125 39.0453125)scale(0.7)" xlink:href="#Cmsy10-b1"/>
      <use transform="translate(197.669609375 0.78125)" xlink:href="#BitstreamVeraSans-Roman-43"/>
     </g>
    </g>
    <g id="line2d_45">
     <path d="M 125.28 104.33475 
L 145.44 104.33475 
" style="fill:none;stroke:#ff0000;stroke-dasharray:3.000000,2.000000,3.000000,4.000000;stroke-dashoffset:0.0;stroke-width:2.0;"/>
    </g>
    <g id="line2d_46"/>
    <g id="text_22">
     <!-- 10$ ^\circ$C -->
     <g transform="translate(161.28 109.37475)scale(0.144 -0.144)">
      <use transform="translate(0.0 0.78125)" xlink:href="#BitstreamVeraSans-Roman-31"/>
      <use transform="translate(63.623046875 0.78125)" xlink:href="#BitstreamVeraSans-Roman-30"/>
      <use transform="translate(144.00125 39.0453125)scale(0.7)" xlink:href="#Cmsy10-b1"/>
      <use transform="translate(197.669609375 0.78125)" xlink:href="#BitstreamVeraSans-Roman-43"/>
     </g>
    </g>
    <g id="line2d_47">
     <path d="M 125.28 125.47125 
L 145.44 125.47125 
" style="fill:none;stroke:#00bfbf;stroke-dasharray:1.000000,3.000000;stroke-dashoffset:0.0;stroke-width:2.0;"/>
    </g>
    <g id="line2d_48"/>
    <g id="text_23">
     <!-- 5$ ^\circ$C -->
     <g transform="translate(161.28 130.51125)scale(0.144 -0.144)">
      <use transform="translate(0.0 0.78125)" xlink:href="#BitstreamVeraSans-Roman-35"/>
      <use transform="translate(80.378203125 39.0453125)scale(0.7)" xlink:href="#Cmsy10-b1"/>
      <use transform="translate(134.0465625 0.78125)" xlink:href="#BitstreamVeraSans-Roman-43"/>
     </g>
    </g>
    <g id="line2d_49">
     <path d="M 125.28 146.60775 
L 145.44 146.60775 
" style="fill:none;stroke:#bf00bf;stroke-dasharray:1.000000,2.000000,3.000000,4.000000;stroke-dashoffset:0.0;stroke-width:2.0;"/>
    </g>
    <g id="line2d_50"/>
    <g id="text_24">
     <!-- 0$ ^\circ$C -->
     <g transform="translate(161.28 151.64775)scale(0.144 -0.144)">
      <use transform="translate(0.0 0.78125)" xlink:href="#BitstreamVeraSans-Roman-30"/>
      <use transform="translate(80.378203125 39.0453125)scale(0.7)" xlink:href="#Cmsy10-b1"/>
      <use transform="translate(134.0465625 0.78125)" xlink:href="#BitstreamVeraSans-Roman-43"/>
     </g>
    </g>
    <g id="line2d_51">
     <path d="M 125.28 167.74425 
L 145.44 167.74425 
" style="fill:none;stroke:#bfbf00;stroke-dasharray:3.000000,4.000000;stroke-dashoffset:0.0;stroke-width:2.0;"/>
    </g>
    <g id="line2d_52"/>
    <g id="text_25">
     <!-- -5$ ^\circ$C -->
     <defs>
      <path d="M 4.890625 31.390625 
L 31.203125 31.390625 
L 31.203125 23.390625 
L 4.890625 23.390625 
z
" id="BitstreamVeraSans-Roman-2d"/>
     </defs>
     <g transform="translate(161.28 172.78425)scale(0.144 -0.144)">
      <use transform="translate(0.0 0.78125)" xlink:href="#BitstreamVeraSans-Roman-2d"/>
      <use transform="translate(36.083984375 0.78125)" xlink:href="#BitstreamVeraSans-Roman-35"/>
      <use transform="translate(116.4621875 39.0453125)scale(0.7)" xlink:href="#Cmsy10-b1"/>
      <use transform="translate(170.130546875 0.78125)" xlink:href="#BitstreamVeraSans-Roman-43"/>
     </g>
    </g>
    <g id="line2d_53">
     <path d="M 125.28 188.88075 
L 145.44 188.88075 
" style="fill:none;stroke:#000000;stroke-linecap:square;stroke-width:2.0;"/>
    </g>
    <g id="line2d_54"/>
    <g id="text_26">
     <!-- -10$ ^\circ$C -->
     <g transform="translate(161.28 193.92075)scale(0.144 -0.144)">
      <use transform="translate(0.0 0.78125)" xlink:href="#BitstreamVeraSans-Roman-2d"/>
      <use transform="translate(36.083984375 0.78125)" xlink:href="#BitstreamVeraSans-Roman-31"/>
      <use transform="translate(99.70703125 0.78125)" xlink:href="#BitstreamVeraSans-Roman-30"/>
      <use transform="translate(180.085234375 39.0453125)scale(0.7)" xlink:href="#Cmsy10-b1"/>
      <use transform="translate(233.75359375 0.78125)" xlink:href="#BitstreamVeraSans-Roman-43"/>
     </g>
    </g>
   </g>
  </g>
 </g>
 <defs>
  <clipPath id="p553cca84b8">
   <rect height="345.6" width="669.6" x="108.0" y="43.2"/>
  </clipPath>
 </defs>
</svg>
