<?xml version="1.0" encoding="utf-8" standalone="no"?>
<!DOCTYPE svg PUBLIC "-//W3C//DTD SVG 1.1//EN"
  "http://www.w3.org/Graphics/SVG/1.1/DTD/svg11.dtd">
<!-- Created with matplotlib (http://matplotlib.org/) -->
<svg height="432pt" version="1.1" viewBox="0 0 864 432" width="864pt" xmlns="http://www.w3.org/2000/svg" xmlns:xlink="http://www.w3.org/1999/xlink">
 <defs>
  <style type="text/css">
*{stroke-linecap:butt;stroke-linejoin:round;stroke-miterlimit:100000;}
  </style>
 </defs>
 <g id="figure_1">
  <g id="patch_1">
   <path d="M 0 432 
L 864 432 
L 864 0 
L 0 0 
z
" style="fill:#ffffff;"/>
  </g>
  <g id="axes_1">
   <g id="patch_2">
    <path d="M 108 388.8 
L 777.6 388.8 
L 777.6 43.2 
L 108 43.2 
z
" style="fill:#ffffff;"/>
   </g>
   <g id="line2d_1">
    <path clip-path="url(#pffa30ca435)" d="M 108 312.768 
L 777.6 312.768 
" style="fill:none;stroke:#0000ff;stroke-linecap:square;"/>
   </g>
   <g id="line2d_2">
    <path clip-path="url(#pffa30ca435)" d="M 777.6 44.073134 
L 754.9452 44.591235 
L 736.6428 45.225657 
L 721.242 45.976998 
L 707.9616 46.842769 
L 696.2436 47.825193 
L 685.7532 48.923607 
L 676.2672 50.135114 
L 667.5624 51.465552 
L 659.4156 52.934118 
L 651.8268 54.527731 
L 644.6844 56.255566 
L 637.9884 58.102942 
L 631.6272 60.086729 
L 625.6008 62.194578 
L 619.7976 64.455903 
L 614.2176 66.864583 
L 608.7492 69.467331 
L 603.504 72.207148 
L 598.3704 75.136296 
L 593.3484 78.25467 
L 588.3264 81.638512 
L 583.416 85.218093 
L 578.6172 88.987945 
L 573.8184 93.037874 
L 569.0196 97.378183 
L 564.2208 102.017659 
L 559.422 106.963209 
L 554.5116 112.34545 
L 549.4896 118.188738 
L 544.4676 124.373269 
L 539.2224 131.191206 
L 533.8656 138.520804 
L 528.174 146.69444 
L 522.1476 155.750264 
L 515.6748 165.886708 
L 508.4208 177.668983 
L 499.6044 192.432965 
L 481.6368 223.102125 
L 471.3696 240.336425 
L 463.6692 252.840108 
L 456.9732 263.301383 
L 450.8352 272.48783 
L 445.032 280.775576 
L 439.5636 288.203922 
L 434.3184 294.964251 
L 429.1848 301.224723 
L 424.1628 307.003549 
L 419.2524 312.322925 
L 414.342 317.317713 
L 409.4316 321.993438 
L 404.5212 326.358001 
L 399.6108 330.421262 
L 394.7004 334.194645 
L 389.79 337.690762 
L 384.768 340.99358 
L 379.6344 344.10021 
L 374.3892 347.009754 
L 369.0324 349.723182 
L 363.564 352.243177 
L 357.8724 354.618233 
L 351.9576 356.840583 
L 345.8196 358.905288 
L 339.4584 360.810106 
L 332.7624 362.583045 
L 325.62 364.240476 
L 318.0312 365.768482 
L 309.996 367.158215 
L 301.2912 368.435702 
L 291.8052 369.59862 
L 281.4264 370.642587 
L 269.9316 371.571224 
L 256.986 372.38884 
L 242.1432 373.096559 
L 224.8452 373.69176 
L 203.976 374.178888 
L 177.75 374.558153 
L 142.4844 374.831787 
L 108 374.96212 
L 108 374.96212 
" style="fill:none;stroke:#0000ff;stroke-linecap:square;stroke-width:2.0;"/>
   </g>
   <g id="line2d_3">
    <path clip-path="url(#pffa30ca435)" d="M 777.6 44.534575 
L 758.9628 45.156703 
L 743.3388 45.894958 
L 729.8352 46.751571 
L 718.0056 47.719992 
L 707.4036 48.806526 
L 697.806 50.009109 
L 688.9896 51.334229 
L 680.8428 52.780153 
L 673.254 54.349434 
L 666.1116 56.051166 
L 659.4156 57.870952 
L 653.0544 59.82548 
L 646.9164 61.943338 
L 641.1132 64.176761 
L 635.4216 66.606237 
L 629.9532 69.182972 
L 624.5964 71.95634 
L 619.4628 74.862817 
L 614.4408 77.95759 
L 609.4188 81.316449 
L 604.5084 84.87031 
L 599.598 88.704199 
L 594.7992 92.733394 
L 590.0004 97.052271 
L 585.2016 101.669739 
L 580.4028 106.592856 
L 575.4924 111.951887 
L 570.582 117.638356 
L 565.56 123.791785 
L 560.3148 130.577965 
L 554.958 137.876383 
L 549.378 145.855535 
L 543.4632 154.703404 
L 536.9904 164.79798 
L 529.848 176.358897 
L 521.2548 190.709585 
L 507.0816 214.894824 
L 494.4708 236.241685 
L 486.324 249.60217 
L 479.4048 260.534858 
L 473.1552 270.005848 
L 467.2404 278.567733 
L 461.6604 286.255224 
L 456.3036 293.259006 
L 451.17 299.613291 
L 446.148 305.484712 
L 441.126 311.013567 
L 436.2156 316.090272 
L 431.3052 320.846264 
L 426.3948 325.288883 
L 421.4844 329.427533 
L 416.574 333.273277 
L 411.6636 336.838461 
L 406.6416 340.208316 
L 401.6196 343.313475 
L 396.486 346.229926 
L 391.2408 348.957619 
L 385.7724 351.548626 
L 380.1924 353.946247 
L 374.3892 356.19702 
L 368.3628 358.294887 
L 362.1132 360.236499 
L 355.5288 362.049944 
L 348.6096 363.726172 
L 341.244 365.281831 
L 333.3204 366.724739 
L 324.8388 368.040169 
L 315.6876 369.232818 
L 305.6436 370.314509 
L 294.5952 371.278061 
L 282.2076 372.131574 
L 268.146 372.873233 
L 251.8524 373.504943 
L 232.434 374.028654 
L 208.44 374.444794 
L 176.9688 374.755736 
L 131.6592 374.962624 
L 108 375.014323 
L 108 375.014323 
" style="fill:none;stroke:#008000;stroke-linecap:square;stroke-width:2.0;"/>
   </g>
   <g id="line2d_4">
    <path clip-path="url(#pffa30ca435)" d="M 777.6 45.241339 
L 762.3108 45.992065 
L 749.0304 46.862482 
L 737.3124 47.850147 
L 726.822 48.954383 
L 717.336 50.172267 
L 708.6312 51.509652 
L 700.596 52.963973 
L 693.0072 54.562304 
L 685.9764 56.266268 
L 679.2804 58.115091 
L 672.9192 60.100413 
L 666.8928 62.209873 
L 661.0896 64.472901 
L 655.5096 66.883369 
L 650.0412 69.488016 
L 644.796 72.229798 
L 639.6624 75.161005 
L 634.6404 78.281525 
L 629.6184 81.667642 
L 624.708 85.24957 
L 619.9092 89.021824 
L 615.1104 93.074258 
L 610.3116 97.417163 
L 605.5128 102.059311 
L 600.714 107.007596 
L 595.8036 112.392675 
L 590.7816 118.238887 
L 585.7596 124.42633 
L 580.5144 131.247262 
L 575.1576 138.579827 
L 569.466 146.756463 
L 563.4396 155.815229 
L 556.9668 165.954494 
L 549.7128 177.739419 
L 540.8964 192.505766 
L 522.3708 224.124444 
L 512.3268 240.962069 
L 504.6264 253.444362 
L 497.9304 263.882174 
L 491.7924 273.043835 
L 486.1008 281.150851 
L 480.6324 288.561238 
L 475.3872 295.303663 
L 470.2536 301.546232 
L 465.2316 307.307403 
L 460.3212 312.609568 
L 455.4108 317.58736 
L 450.5004 322.24644 
L 445.59 326.594826 
L 440.6796 330.642472 
L 435.7692 334.400874 
L 430.8588 337.882699 
L 425.8368 341.171652 
L 420.7032 344.264917 
L 415.458 347.16166 
L 410.1012 349.862903 
L 404.6328 352.371368 
L 398.9412 354.735369 
L 393.0264 356.947209 
L 386.8884 359.002006 
L 380.5272 360.897562 
L 373.8312 362.661773 
L 366.6888 364.310953 
L 359.1 365.831274 
L 350.9532 367.231665 
L 342.2484 368.499815 
L 332.7624 369.654169 
L 322.3836 370.690395 
L 310.8888 371.612104 
L 297.9432 372.423587 
L 283.1004 373.125973 
L 265.6908 373.719845 
L 244.71 374.204235 
L 218.2608 374.581292 
L 182.6604 374.852088 
L 128.4228 375.020461 
L 108 375.048556 
L 108 375.048556 
" style="fill:none;stroke:#ff0000;stroke-linecap:square;stroke-width:2.0;"/>
   </g>
   <g id="line2d_5">
    <path clip-path="url(#pffa30ca435)" d="M 777.6 46.328239 
L 764.9892 47.246552 
L 753.8292 48.278277 
L 743.7852 49.425711 
L 734.634 50.690302 
L 726.1524 52.084419 
L 718.3404 53.589641 
L 710.9748 55.23303 
L 704.0556 57.002749 
L 697.4712 58.916123 
L 691.2216 60.963331 
L 685.3068 63.13049 
L 679.6152 65.447465 
L 674.0352 67.959562 
L 668.6784 70.614055 
L 663.4332 73.461654 
L 658.2996 76.503571 
L 653.2776 79.739208 
L 648.3672 83.166031 
L 643.4568 86.866725 
L 638.658 90.760257 
L 633.8592 94.938638 
L 629.0604 99.411541 
L 624.2616 104.186959 
L 619.3512 109.392779 
L 614.4408 114.925319 
L 609.4188 120.922231 
L 604.2852 127.403165 
L 599.04 134.383174 
L 593.5716 142.030989 
L 587.7684 150.536628 
L 581.6304 159.931526 
L 574.8228 170.768867 
L 567.0108 183.63967 
L 556.7436 201.019843 
L 534.87 238.160212 
L 526.9464 251.097404 
L 520.1388 261.8 
L 513.8892 271.216927 
L 508.086 279.565595 
L 502.506 287.203845 
L 497.1492 294.158308 
L 492.0156 300.464176 
L 486.9936 306.287753 
L 482.0832 311.65074 
L 477.1728 316.688591 
L 472.2624 321.406483 
L 467.352 325.812025 
L 462.4416 329.914844 
L 457.5312 333.726177 
L 452.6208 337.258501 
L 447.5988 340.596448 
L 442.4652 343.736939 
L 437.3316 346.619009 
L 431.9748 349.368605 
L 426.5064 351.922828 
L 420.9264 354.285819 
L 415.1232 356.503562 
L 409.0968 358.570192 
L 402.7356 360.514658 
L 396.0396 362.324958 
L 389.0088 363.993012 
L 381.5316 365.535927 
L 373.4964 366.962085 
L 364.9032 368.257919 
L 355.5288 369.441667 
L 345.2616 370.508014 
L 333.99 371.451567 
L 321.2676 372.288081 
L 306.7596 373.012426 
L 289.908 373.624501 
L 269.7084 374.127916 
L 244.4868 374.524 
L 211.0068 374.814008 
L 161.4564 375.000839 
L 108 375.07103 
L 108 375.07103 
" style="fill:none;stroke:#00bfbf;stroke-linecap:square;stroke-width:2.0;"/>
   </g>
   <g id="line2d_6">
    <path clip-path="url(#pffa30ca435)" d="M 777.6 48.0102 
L 767.3328 49.124895 
L 757.9584 50.36192 
L 749.3652 51.715602 
L 741.33 53.204855 
L 733.8528 54.815356 
L 726.822 56.55569 
L 720.2376 58.410056 
L 713.8764 60.432508 
L 707.85 62.580871 
L 702.0468 64.885007 
L 696.4668 67.338545 
L 691.11 69.932255 
L 685.8648 72.7159 
L 680.7312 75.690931 
L 675.7092 78.857046 
L 670.7988 82.212066 
L 665.8884 85.837331 
L 661.0896 89.653875 
L 656.2908 93.752342 
L 651.492 98.142806 
L 646.6932 102.833761 
L 641.8944 107.831764 
L 636.984 113.268247 
L 631.962 119.167077 
L 626.8284 125.549087 
L 621.5832 132.430786 
L 616.1148 139.980706 
L 610.4232 148.224179 
L 604.3968 157.347241 
L 597.8124 167.725436 
L 590.3352 179.939799 
L 581.0724 195.521202 
L 552.6144 243.698848 
L 545.2488 255.552248 
L 538.6644 265.734715 
L 532.638 274.652256 
L 526.9464 282.683238 
L 521.478 290.016342 
L 516.2328 296.682003 
L 511.0992 302.84803 
L 506.0772 308.5339 
L 501.1668 313.762817 
L 496.2564 318.668401 
L 491.346 323.256881 
L 486.4356 327.536746 
L 481.5252 331.518332 
L 476.6148 335.213429 
L 471.7044 338.634921 
L 466.6824 341.865392 
L 461.5488 344.902337 
L 456.3036 347.745178 
L 450.9468 350.395147 
L 445.4784 352.855126 
L 439.7868 355.172664 
L 433.872 357.340358 
L 427.734 359.353559 
L 421.2612 361.240873 
L 414.4536 362.991725 
L 407.3112 364.599397 
L 399.6108 366.10127 
L 391.3524 367.479936 
L 382.536 368.724283 
L 372.9384 369.853014 
L 362.3364 370.872375 
L 350.5068 371.780567 
L 337.2264 372.572057 
L 321.9372 373.254403 
L 303.9696 373.826468 
L 282.2076 374.289032 
L 254.4192 374.646059 
L 216.3636 374.897376 
L 156.3228 375.047205 
L 108 375.085795 
L 108 375.085795 
" style="fill:none;stroke:#bf00bf;stroke-linecap:square;stroke-width:2.0;"/>
   </g>
   <g id="line2d_7">
    <path clip-path="url(#pffa30ca435)" d="M 777.6 50.638337 
L 769.1184 52.023045 
L 761.1948 53.541247 
L 753.8292 55.177267 
L 746.91 56.939137 
L 740.3256 58.844129 
L 734.076 60.882484 
L 728.0496 63.083401 
L 722.358 65.395293 
L 716.778 67.901972 
L 711.4212 70.550843 
L 706.176 73.39253 
L 701.0424 76.428269 
L 696.0204 79.657488 
L 691.11 83.077687 
L 686.1996 86.771428 
L 681.4008 90.65787 
L 676.602 94.828899 
L 671.8032 99.294225 
L 667.0044 104.06189 
L 662.094 109.259652 
L 657.1836 114.784082 
L 652.1616 120.772727 
L 647.028 127.245343 
L 641.7828 134.217108 
L 636.3144 141.856741 
L 630.5112 150.354326 
L 624.3732 159.741608 
L 617.5656 170.571833 
L 609.7536 183.436509 
L 599.598 200.621842 
L 577.3896 238.32955 
L 569.466 251.261149 
L 562.6584 261.957535 
L 556.4088 271.367815 
L 550.6056 279.709664 
L 545.1372 287.192177 
L 539.7804 294.147501 
L 534.6468 300.454205 
L 529.6248 306.278604 
L 524.7144 311.642388 
L 519.804 316.681024 
L 514.8936 321.399682 
L 509.9832 325.805968 
L 505.0728 329.909503 
L 500.1624 333.721522 
L 495.252 337.254499 
L 490.23 340.593079 
L 485.0964 343.73418 
L 479.9628 346.616821 
L 474.606 349.366972 
L 469.1376 351.921721 
L 463.5576 354.285205 
L 457.7544 356.50342 
L 451.728 358.570494 
L 445.3668 360.515383 
L 438.6708 362.326083 
L 431.64 363.994508 
L 424.1628 365.53777 
L 416.1276 366.964252 
L 407.5344 368.260382 
L 398.16 369.444403 
L 387.8928 370.510998 
L 376.6212 371.454771 
L 363.8988 372.291481 
L 349.3908 373.015998 
L 332.5392 373.628218 
L 312.3396 374.131752 
L 287.118 374.52793 
L 253.638 374.818008 
L 204.0876 375.004883 
L 111.4596 375.094429 
L 108 375.0955 
L 108 375.0955 
" style="fill:none;stroke:#bfbf00;stroke-linecap:square;stroke-width:2.0;"/>
   </g>
   <g id="line2d_8">
    <path clip-path="url(#pffa30ca435)" d="M 777.6 54.807701 
L 770.5692 56.546936 
L 763.9848 58.400146 
L 757.6236 60.421352 
L 751.5972 62.568412 
L 745.794 64.87117 
L 740.214 67.323266 
L 734.8572 69.915479 
L 729.612 72.697547 
L 724.4784 75.670929 
L 719.4564 78.835331 
L 714.546 82.18858 
L 709.6356 85.811985 
L 704.8368 89.626628 
L 700.038 93.723123 
L 695.2392 98.111551 
L 690.4404 102.80042 
L 685.6416 107.796301 
L 680.7312 113.230595 
L 675.7092 119.127188 
L 670.5756 125.506941 
L 665.3304 132.386397 
L 659.862 139.934082 
L 654.1704 148.175386 
L 648.144 157.296378 
L 641.5596 167.67264 
L 634.0824 179.885302 
L 624.8196 195.465438 
L 596.3616 243.645567 
L 588.996 255.50106 
L 582.4116 265.685793 
L 576.3852 274.605673 
L 570.6936 282.639045 
L 565.2252 289.974567 
L 559.98 296.642621 
L 554.8464 302.811025 
L 549.8244 308.499229 
L 544.914 313.73041 
L 540.0036 318.638222 
L 535.0932 323.228877 
L 530.1828 327.51085 
L 525.2724 331.494465 
L 520.362 335.191506 
L 515.4516 338.614847 
L 510.4296 341.84711 
L 505.296 344.885777 
L 500.0508 347.730267 
L 494.694 350.381802 
L 489.2256 352.843262 
L 483.534 355.162219 
L 477.6192 357.331259 
L 471.4812 359.345728 
L 465.0084 361.234246 
L 458.2008 362.986229 
L 451.0584 364.59495 
L 443.358 366.097813 
L 435.0996 367.477396 
L 426.2832 368.722578 
L 416.6856 369.852071 
L 406.0836 370.872125 
L 394.254 371.780938 
L 380.9736 372.572973 
L 365.6844 373.25579 
L 347.7168 373.828252 
L 325.9548 374.291137 
L 298.1664 374.648413 
L 260.1108 374.899905 
L 200.1816 375.049699 
L 108 375.101882 
L 108 375.101882 
" style="fill:none;stroke:#000000;stroke-linecap:square;stroke-width:2.0;"/>
   </g>
   <g id="patch_3">
    <path d="M 108 43.2 
L 777.6 43.2 
" style="fill:none;stroke:#000000;stroke-linecap:square;stroke-linejoin:miter;"/>
   </g>
   <g id="patch_4">
    <path d="M 777.6 388.8 
L 777.6 43.2 
" style="fill:none;stroke:#000000;stroke-linecap:square;stroke-linejoin:miter;"/>
   </g>
   <g id="patch_5">
    <path d="M 108 388.8 
L 777.6 388.8 
" style="fill:none;stroke:#000000;stroke-linecap:square;stroke-linejoin:miter;"/>
   </g>
   <g id="patch_6">
    <path d="M 108 388.8 
L 108 43.2 
" style="fill:none;stroke:#000000;stroke-linecap:square;stroke-linejoin:miter;"/>
   </g>
   <g id="matplotlib.axis_1">
    <g id="xtick_1">
     <g id="line2d_9">
      <defs>
       <path d="M 0 0 
L 0 -4 
" id="m8b767a5e1b" style="stroke:#000000;stroke-width:0.5;"/>
      </defs>
      <g>
       <use style="stroke:#000000;stroke-width:0.5;" x="108.0" xlink:href="#m8b767a5e1b" y="388.8"/>
      </g>
     </g>
     <g id="line2d_10">
      <defs>
       <path d="M 0 0 
L 0 4 
" id="me49f0ebdbb" style="stroke:#000000;stroke-width:0.5;"/>
      </defs>
      <g>
       <use style="stroke:#000000;stroke-width:0.5;" x="108.0" xlink:href="#me49f0ebdbb" y="43.2"/>
      </g>
     </g>
     <g id="text_1">
      <!-- 0 -->
      <defs>
       <path d="M 31.78125 66.40625 
Q 24.171875 66.40625 20.328125 58.90625 
Q 16.5 51.421875 16.5 36.375 
Q 16.5 21.390625 20.328125 13.890625 
Q 24.171875 6.390625 31.78125 6.390625 
Q 39.453125 6.390625 43.28125 13.890625 
Q 47.125 21.390625 47.125 36.375 
Q 47.125 51.421875 43.28125 58.90625 
Q 39.453125 66.40625 31.78125 66.40625 
M 31.78125 74.21875 
Q 44.046875 74.21875 50.515625 64.515625 
Q 56.984375 54.828125 56.984375 36.375 
Q 56.984375 17.96875 50.515625 8.265625 
Q 44.046875 -1.421875 31.78125 -1.421875 
Q 19.53125 -1.421875 13.0625 8.265625 
Q 6.59375 17.96875 6.59375 36.375 
Q 6.59375 54.828125 13.0625 64.515625 
Q 19.53125 74.21875 31.78125 74.21875 
" id="BitstreamVeraSans-Roman-30"/>
      </defs>
      <g transform="translate(104.1825 401.918125)scale(0.12 -0.12)">
       <use xlink:href="#BitstreamVeraSans-Roman-30"/>
      </g>
     </g>
    </g>
    <g id="xtick_2">
     <g id="line2d_11">
      <g>
       <use style="stroke:#000000;stroke-width:0.5;" x="219.6" xlink:href="#m8b767a5e1b" y="388.8"/>
      </g>
     </g>
     <g id="line2d_12">
      <g>
       <use style="stroke:#000000;stroke-width:0.5;" x="219.6" xlink:href="#me49f0ebdbb" y="43.2"/>
      </g>
     </g>
     <g id="text_2">
      <!-- 10 -->
      <defs>
       <path d="M 12.40625 8.296875 
L 28.515625 8.296875 
L 28.515625 63.921875 
L 10.984375 60.40625 
L 10.984375 69.390625 
L 28.421875 72.90625 
L 38.28125 72.90625 
L 38.28125 8.296875 
L 54.390625 8.296875 
L 54.390625 0 
L 12.40625 0 
z
" id="BitstreamVeraSans-Roman-31"/>
      </defs>
      <g transform="translate(211.965 401.918125)scale(0.12 -0.12)">
       <use xlink:href="#BitstreamVeraSans-Roman-31"/>
       <use x="63.623046875" xlink:href="#BitstreamVeraSans-Roman-30"/>
      </g>
     </g>
    </g>
    <g id="xtick_3">
     <g id="line2d_13">
      <g>
       <use style="stroke:#000000;stroke-width:0.5;" x="331.2" xlink:href="#m8b767a5e1b" y="388.8"/>
      </g>
     </g>
     <g id="line2d_14">
      <g>
       <use style="stroke:#000000;stroke-width:0.5;" x="331.2" xlink:href="#me49f0ebdbb" y="43.2"/>
      </g>
     </g>
     <g id="text_3">
      <!-- 20 -->
      <defs>
       <path d="M 19.1875 8.296875 
L 53.609375 8.296875 
L 53.609375 0 
L 7.328125 0 
L 7.328125 8.296875 
Q 12.9375 14.109375 22.625 23.890625 
Q 32.328125 33.6875 34.8125 36.53125 
Q 39.546875 41.84375 41.421875 45.53125 
Q 43.3125 49.21875 43.3125 52.78125 
Q 43.3125 58.59375 39.234375 62.25 
Q 35.15625 65.921875 28.609375 65.921875 
Q 23.96875 65.921875 18.8125 64.3125 
Q 13.671875 62.703125 7.8125 59.421875 
L 7.8125 69.390625 
Q 13.765625 71.78125 18.9375 73 
Q 24.125 74.21875 28.421875 74.21875 
Q 39.75 74.21875 46.484375 68.546875 
Q 53.21875 62.890625 53.21875 53.421875 
Q 53.21875 48.921875 51.53125 44.890625 
Q 49.859375 40.875 45.40625 35.40625 
Q 44.1875 33.984375 37.640625 27.21875 
Q 31.109375 20.453125 19.1875 8.296875 
" id="BitstreamVeraSans-Roman-32"/>
      </defs>
      <g transform="translate(323.565 401.918125)scale(0.12 -0.12)">
       <use xlink:href="#BitstreamVeraSans-Roman-32"/>
       <use x="63.623046875" xlink:href="#BitstreamVeraSans-Roman-30"/>
      </g>
     </g>
    </g>
    <g id="xtick_4">
     <g id="line2d_15">
      <g>
       <use style="stroke:#000000;stroke-width:0.5;" x="442.8" xlink:href="#m8b767a5e1b" y="388.8"/>
      </g>
     </g>
     <g id="line2d_16">
      <g>
       <use style="stroke:#000000;stroke-width:0.5;" x="442.8" xlink:href="#me49f0ebdbb" y="43.2"/>
      </g>
     </g>
     <g id="text_4">
      <!-- 30 -->
      <defs>
       <path d="M 40.578125 39.3125 
Q 47.65625 37.796875 51.625 33 
Q 55.609375 28.21875 55.609375 21.1875 
Q 55.609375 10.40625 48.1875 4.484375 
Q 40.765625 -1.421875 27.09375 -1.421875 
Q 22.515625 -1.421875 17.65625 -0.515625 
Q 12.796875 0.390625 7.625 2.203125 
L 7.625 11.71875 
Q 11.71875 9.328125 16.59375 8.109375 
Q 21.484375 6.890625 26.8125 6.890625 
Q 36.078125 6.890625 40.9375 10.546875 
Q 45.796875 14.203125 45.796875 21.1875 
Q 45.796875 27.640625 41.28125 31.265625 
Q 36.765625 34.90625 28.71875 34.90625 
L 20.21875 34.90625 
L 20.21875 43.015625 
L 29.109375 43.015625 
Q 36.375 43.015625 40.234375 45.921875 
Q 44.09375 48.828125 44.09375 54.296875 
Q 44.09375 59.90625 40.109375 62.90625 
Q 36.140625 65.921875 28.71875 65.921875 
Q 24.65625 65.921875 20.015625 65.03125 
Q 15.375 64.15625 9.8125 62.3125 
L 9.8125 71.09375 
Q 15.4375 72.65625 20.34375 73.4375 
Q 25.25 74.21875 29.59375 74.21875 
Q 40.828125 74.21875 47.359375 69.109375 
Q 53.90625 64.015625 53.90625 55.328125 
Q 53.90625 49.265625 50.4375 45.09375 
Q 46.96875 40.921875 40.578125 39.3125 
" id="BitstreamVeraSans-Roman-33"/>
      </defs>
      <g transform="translate(435.165 401.918125)scale(0.12 -0.12)">
       <use xlink:href="#BitstreamVeraSans-Roman-33"/>
       <use x="63.623046875" xlink:href="#BitstreamVeraSans-Roman-30"/>
      </g>
     </g>
    </g>
    <g id="xtick_5">
     <g id="line2d_17">
      <g>
       <use style="stroke:#000000;stroke-width:0.5;" x="554.4" xlink:href="#m8b767a5e1b" y="388.8"/>
      </g>
     </g>
     <g id="line2d_18">
      <g>
       <use style="stroke:#000000;stroke-width:0.5;" x="554.4" xlink:href="#me49f0ebdbb" y="43.2"/>
      </g>
     </g>
     <g id="text_5">
      <!-- 40 -->
      <defs>
       <path d="M 37.796875 64.3125 
L 12.890625 25.390625 
L 37.796875 25.390625 
z
M 35.203125 72.90625 
L 47.609375 72.90625 
L 47.609375 25.390625 
L 58.015625 25.390625 
L 58.015625 17.1875 
L 47.609375 17.1875 
L 47.609375 0 
L 37.796875 0 
L 37.796875 17.1875 
L 4.890625 17.1875 
L 4.890625 26.703125 
z
" id="BitstreamVeraSans-Roman-34"/>
      </defs>
      <g transform="translate(546.765 401.918125)scale(0.12 -0.12)">
       <use xlink:href="#BitstreamVeraSans-Roman-34"/>
       <use x="63.623046875" xlink:href="#BitstreamVeraSans-Roman-30"/>
      </g>
     </g>
    </g>
    <g id="xtick_6">
     <g id="line2d_19">
      <g>
       <use style="stroke:#000000;stroke-width:0.5;" x="666.0" xlink:href="#m8b767a5e1b" y="388.8"/>
      </g>
     </g>
     <g id="line2d_20">
      <g>
       <use style="stroke:#000000;stroke-width:0.5;" x="666.0" xlink:href="#me49f0ebdbb" y="43.2"/>
      </g>
     </g>
     <g id="text_6">
      <!-- 50 -->
      <defs>
       <path d="M 10.796875 72.90625 
L 49.515625 72.90625 
L 49.515625 64.59375 
L 19.828125 64.59375 
L 19.828125 46.734375 
Q 21.96875 47.46875 24.109375 47.828125 
Q 26.265625 48.1875 28.421875 48.1875 
Q 40.625 48.1875 47.75 41.5 
Q 54.890625 34.8125 54.890625 23.390625 
Q 54.890625 11.625 47.5625 5.09375 
Q 40.234375 -1.421875 26.90625 -1.421875 
Q 22.3125 -1.421875 17.546875 -0.640625 
Q 12.796875 0.140625 7.71875 1.703125 
L 7.71875 11.625 
Q 12.109375 9.234375 16.796875 8.0625 
Q 21.484375 6.890625 26.703125 6.890625 
Q 35.15625 6.890625 40.078125 11.328125 
Q 45.015625 15.765625 45.015625 23.390625 
Q 45.015625 31 40.078125 35.4375 
Q 35.15625 39.890625 26.703125 39.890625 
Q 22.75 39.890625 18.8125 39.015625 
Q 14.890625 38.140625 10.796875 36.28125 
z
" id="BitstreamVeraSans-Roman-35"/>
      </defs>
      <g transform="translate(658.365 401.918125)scale(0.12 -0.12)">
       <use xlink:href="#BitstreamVeraSans-Roman-35"/>
       <use x="63.623046875" xlink:href="#BitstreamVeraSans-Roman-30"/>
      </g>
     </g>
    </g>
    <g id="xtick_7">
     <g id="line2d_21">
      <g>
       <use style="stroke:#000000;stroke-width:0.5;" x="777.6" xlink:href="#m8b767a5e1b" y="388.8"/>
      </g>
     </g>
     <g id="line2d_22">
      <g>
       <use style="stroke:#000000;stroke-width:0.5;" x="777.6" xlink:href="#me49f0ebdbb" y="43.2"/>
      </g>
     </g>
     <g id="text_7">
      <!-- 60 -->
      <defs>
       <path d="M 33.015625 40.375 
Q 26.375 40.375 22.484375 35.828125 
Q 18.609375 31.296875 18.609375 23.390625 
Q 18.609375 15.53125 22.484375 10.953125 
Q 26.375 6.390625 33.015625 6.390625 
Q 39.65625 6.390625 43.53125 10.953125 
Q 47.40625 15.53125 47.40625 23.390625 
Q 47.40625 31.296875 43.53125 35.828125 
Q 39.65625 40.375 33.015625 40.375 
M 52.59375 71.296875 
L 52.59375 62.3125 
Q 48.875 64.0625 45.09375 64.984375 
Q 41.3125 65.921875 37.59375 65.921875 
Q 27.828125 65.921875 22.671875 59.328125 
Q 17.53125 52.734375 16.796875 39.40625 
Q 19.671875 43.65625 24.015625 45.921875 
Q 28.375 48.1875 33.59375 48.1875 
Q 44.578125 48.1875 50.953125 41.515625 
Q 57.328125 34.859375 57.328125 23.390625 
Q 57.328125 12.15625 50.6875 5.359375 
Q 44.046875 -1.421875 33.015625 -1.421875 
Q 20.359375 -1.421875 13.671875 8.265625 
Q 6.984375 17.96875 6.984375 36.375 
Q 6.984375 53.65625 15.1875 63.9375 
Q 23.390625 74.21875 37.203125 74.21875 
Q 40.921875 74.21875 44.703125 73.484375 
Q 48.484375 72.75 52.59375 71.296875 
" id="BitstreamVeraSans-Roman-36"/>
      </defs>
      <g transform="translate(769.965 401.918125)scale(0.12 -0.12)">
       <use xlink:href="#BitstreamVeraSans-Roman-36"/>
       <use x="63.623046875" xlink:href="#BitstreamVeraSans-Roman-30"/>
      </g>
     </g>
    </g>
    <g id="text_8">
     <!-- Optical losses (dB) -->
     <defs>
      <path d="M 39.40625 66.21875 
Q 28.65625 66.21875 22.328125 58.203125 
Q 16.015625 50.203125 16.015625 36.375 
Q 16.015625 22.609375 22.328125 14.59375 
Q 28.65625 6.59375 39.40625 6.59375 
Q 50.140625 6.59375 56.421875 14.59375 
Q 62.703125 22.609375 62.703125 36.375 
Q 62.703125 50.203125 56.421875 58.203125 
Q 50.140625 66.21875 39.40625 66.21875 
M 39.40625 74.21875 
Q 54.734375 74.21875 63.90625 63.9375 
Q 73.09375 53.65625 73.09375 36.375 
Q 73.09375 19.140625 63.90625 8.859375 
Q 54.734375 -1.421875 39.40625 -1.421875 
Q 24.03125 -1.421875 14.8125 8.828125 
Q 5.609375 19.09375 5.609375 36.375 
Q 5.609375 53.65625 14.8125 63.9375 
Q 24.03125 74.21875 39.40625 74.21875 
" id="BitstreamVeraSans-Roman-4f"/>
      <path id="BitstreamVeraSans-Roman-20"/>
      <path d="M 8.015625 75.875 
L 15.828125 75.875 
Q 23.140625 64.359375 26.78125 53.3125 
Q 30.421875 42.28125 30.421875 31.390625 
Q 30.421875 20.453125 26.78125 9.375 
Q 23.140625 -1.703125 15.828125 -13.1875 
L 8.015625 -13.1875 
Q 14.5 -2 17.703125 9.0625 
Q 20.90625 20.125 20.90625 31.390625 
Q 20.90625 42.671875 17.703125 53.65625 
Q 14.5 64.65625 8.015625 75.875 
" id="BitstreamVeraSans-Roman-29"/>
      <path d="M 31 75.875 
Q 24.46875 64.65625 21.28125 53.65625 
Q 18.109375 42.671875 18.109375 31.390625 
Q 18.109375 20.125 21.3125 9.0625 
Q 24.515625 -2 31 -13.1875 
L 23.1875 -13.1875 
Q 15.875 -1.703125 12.234375 9.375 
Q 8.59375 20.453125 8.59375 31.390625 
Q 8.59375 42.28125 12.203125 53.3125 
Q 15.828125 64.359375 23.1875 75.875 
z
" id="BitstreamVeraSans-Roman-28"/>
      <path d="M 30.609375 48.390625 
Q 23.390625 48.390625 19.1875 42.75 
Q 14.984375 37.109375 14.984375 27.296875 
Q 14.984375 17.484375 19.15625 11.84375 
Q 23.34375 6.203125 30.609375 6.203125 
Q 37.796875 6.203125 41.984375 11.859375 
Q 46.1875 17.53125 46.1875 27.296875 
Q 46.1875 37.015625 41.984375 42.703125 
Q 37.796875 48.390625 30.609375 48.390625 
M 30.609375 56 
Q 42.328125 56 49.015625 48.375 
Q 55.71875 40.765625 55.71875 27.296875 
Q 55.71875 13.875 49.015625 6.21875 
Q 42.328125 -1.421875 30.609375 -1.421875 
Q 18.84375 -1.421875 12.171875 6.21875 
Q 5.515625 13.875 5.515625 27.296875 
Q 5.515625 40.765625 12.171875 48.375 
Q 18.84375 56 30.609375 56 
" id="BitstreamVeraSans-Roman-6f"/>
      <path d="M 9.421875 75.984375 
L 18.40625 75.984375 
L 18.40625 0 
L 9.421875 0 
z
" id="BitstreamVeraSans-Roman-6c"/>
      <path d="M 9.421875 54.6875 
L 18.40625 54.6875 
L 18.40625 0 
L 9.421875 0 
z
M 9.421875 75.984375 
L 18.40625 75.984375 
L 18.40625 64.59375 
L 9.421875 64.59375 
z
" id="BitstreamVeraSans-Roman-69"/>
      <path d="M 18.109375 8.203125 
L 18.109375 -20.796875 
L 9.078125 -20.796875 
L 9.078125 54.6875 
L 18.109375 54.6875 
L 18.109375 46.390625 
Q 20.953125 51.265625 25.265625 53.625 
Q 29.59375 56 35.59375 56 
Q 45.5625 56 51.78125 48.09375 
Q 58.015625 40.1875 58.015625 27.296875 
Q 58.015625 14.40625 51.78125 6.484375 
Q 45.5625 -1.421875 35.59375 -1.421875 
Q 29.59375 -1.421875 25.265625 0.953125 
Q 20.953125 3.328125 18.109375 8.203125 
M 48.6875 27.296875 
Q 48.6875 37.203125 44.609375 42.84375 
Q 40.53125 48.484375 33.40625 48.484375 
Q 26.265625 48.484375 22.1875 42.84375 
Q 18.109375 37.203125 18.109375 27.296875 
Q 18.109375 17.390625 22.1875 11.75 
Q 26.265625 6.109375 33.40625 6.109375 
Q 40.53125 6.109375 44.609375 11.75 
Q 48.6875 17.390625 48.6875 27.296875 
" id="BitstreamVeraSans-Roman-70"/>
      <path d="M 56.203125 29.59375 
L 56.203125 25.203125 
L 14.890625 25.203125 
Q 15.484375 15.921875 20.484375 11.0625 
Q 25.484375 6.203125 34.421875 6.203125 
Q 39.59375 6.203125 44.453125 7.46875 
Q 49.3125 8.734375 54.109375 11.28125 
L 54.109375 2.78125 
Q 49.265625 0.734375 44.1875 -0.34375 
Q 39.109375 -1.421875 33.890625 -1.421875 
Q 20.796875 -1.421875 13.15625 6.1875 
Q 5.515625 13.8125 5.515625 26.8125 
Q 5.515625 40.234375 12.765625 48.109375 
Q 20.015625 56 32.328125 56 
Q 43.359375 56 49.78125 48.890625 
Q 56.203125 41.796875 56.203125 29.59375 
M 47.21875 32.234375 
Q 47.125 39.59375 43.09375 43.984375 
Q 39.0625 48.390625 32.421875 48.390625 
Q 24.90625 48.390625 20.390625 44.140625 
Q 15.875 39.890625 15.1875 32.171875 
z
" id="BitstreamVeraSans-Roman-65"/>
      <path d="M 45.40625 46.390625 
L 45.40625 75.984375 
L 54.390625 75.984375 
L 54.390625 0 
L 45.40625 0 
L 45.40625 8.203125 
Q 42.578125 3.328125 38.25 0.953125 
Q 33.9375 -1.421875 27.875 -1.421875 
Q 17.96875 -1.421875 11.734375 6.484375 
Q 5.515625 14.40625 5.515625 27.296875 
Q 5.515625 40.1875 11.734375 48.09375 
Q 17.96875 56 27.875 56 
Q 33.9375 56 38.25 53.625 
Q 42.578125 51.265625 45.40625 46.390625 
M 14.796875 27.296875 
Q 14.796875 17.390625 18.875 11.75 
Q 22.953125 6.109375 30.078125 6.109375 
Q 37.203125 6.109375 41.296875 11.75 
Q 45.40625 17.390625 45.40625 27.296875 
Q 45.40625 37.203125 41.296875 42.84375 
Q 37.203125 48.484375 30.078125 48.484375 
Q 22.953125 48.484375 18.875 42.84375 
Q 14.796875 37.203125 14.796875 27.296875 
" id="BitstreamVeraSans-Roman-64"/>
      <path d="M 18.3125 70.21875 
L 18.3125 54.6875 
L 36.8125 54.6875 
L 36.8125 47.703125 
L 18.3125 47.703125 
L 18.3125 18.015625 
Q 18.3125 11.328125 20.140625 9.421875 
Q 21.96875 7.515625 27.59375 7.515625 
L 36.8125 7.515625 
L 36.8125 0 
L 27.59375 0 
Q 17.1875 0 13.234375 3.875 
Q 9.28125 7.765625 9.28125 18.015625 
L 9.28125 47.703125 
L 2.6875 47.703125 
L 2.6875 54.6875 
L 9.28125 54.6875 
L 9.28125 70.21875 
z
" id="BitstreamVeraSans-Roman-74"/>
      <path d="M 34.28125 27.484375 
Q 23.390625 27.484375 19.1875 25 
Q 14.984375 22.515625 14.984375 16.5 
Q 14.984375 11.71875 18.140625 8.90625 
Q 21.296875 6.109375 26.703125 6.109375 
Q 34.1875 6.109375 38.703125 11.40625 
Q 43.21875 16.703125 43.21875 25.484375 
L 43.21875 27.484375 
z
M 52.203125 31.203125 
L 52.203125 0 
L 43.21875 0 
L 43.21875 8.296875 
Q 40.140625 3.328125 35.546875 0.953125 
Q 30.953125 -1.421875 24.3125 -1.421875 
Q 15.921875 -1.421875 10.953125 3.296875 
Q 6 8.015625 6 15.921875 
Q 6 25.140625 12.171875 29.828125 
Q 18.359375 34.515625 30.609375 34.515625 
L 43.21875 34.515625 
L 43.21875 35.40625 
Q 43.21875 41.609375 39.140625 45 
Q 35.0625 48.390625 27.6875 48.390625 
Q 23 48.390625 18.546875 47.265625 
Q 14.109375 46.140625 10.015625 43.890625 
L 10.015625 52.203125 
Q 14.9375 54.109375 19.578125 55.046875 
Q 24.21875 56 28.609375 56 
Q 40.484375 56 46.34375 49.84375 
Q 52.203125 43.703125 52.203125 31.203125 
" id="BitstreamVeraSans-Roman-61"/>
      <path d="M 44.28125 53.078125 
L 44.28125 44.578125 
Q 40.484375 46.53125 36.375 47.5 
Q 32.28125 48.484375 27.875 48.484375 
Q 21.1875 48.484375 17.84375 46.4375 
Q 14.5 44.390625 14.5 40.28125 
Q 14.5 37.15625 16.890625 35.375 
Q 19.28125 33.59375 26.515625 31.984375 
L 29.59375 31.296875 
Q 39.15625 29.25 43.1875 25.515625 
Q 47.21875 21.78125 47.21875 15.09375 
Q 47.21875 7.46875 41.1875 3.015625 
Q 35.15625 -1.421875 24.609375 -1.421875 
Q 20.21875 -1.421875 15.453125 -0.5625 
Q 10.6875 0.296875 5.421875 2 
L 5.421875 11.28125 
Q 10.40625 8.6875 15.234375 7.390625 
Q 20.0625 6.109375 24.8125 6.109375 
Q 31.15625 6.109375 34.5625 8.28125 
Q 37.984375 10.453125 37.984375 14.40625 
Q 37.984375 18.0625 35.515625 20.015625 
Q 33.0625 21.96875 24.703125 23.78125 
L 21.578125 24.515625 
Q 13.234375 26.265625 9.515625 29.90625 
Q 5.8125 33.546875 5.8125 39.890625 
Q 5.8125 47.609375 11.28125 51.796875 
Q 16.75 56 26.8125 56 
Q 31.78125 56 36.171875 55.265625 
Q 40.578125 54.546875 44.28125 53.078125 
" id="BitstreamVeraSans-Roman-73"/>
      <path d="M 48.78125 52.59375 
L 48.78125 44.1875 
Q 44.96875 46.296875 41.140625 47.34375 
Q 37.3125 48.390625 33.40625 48.390625 
Q 24.65625 48.390625 19.8125 42.84375 
Q 14.984375 37.3125 14.984375 27.296875 
Q 14.984375 17.28125 19.8125 11.734375 
Q 24.65625 6.203125 33.40625 6.203125 
Q 37.3125 6.203125 41.140625 7.25 
Q 44.96875 8.296875 48.78125 10.40625 
L 48.78125 2.09375 
Q 45.015625 0.34375 40.984375 -0.53125 
Q 36.96875 -1.421875 32.421875 -1.421875 
Q 20.0625 -1.421875 12.78125 6.34375 
Q 5.515625 14.109375 5.515625 27.296875 
Q 5.515625 40.671875 12.859375 48.328125 
Q 20.21875 56 33.015625 56 
Q 37.15625 56 41.109375 55.140625 
Q 45.0625 54.296875 48.78125 52.59375 
" id="BitstreamVeraSans-Roman-63"/>
      <path d="M 19.671875 34.8125 
L 19.671875 8.109375 
L 35.5 8.109375 
Q 43.453125 8.109375 47.28125 11.40625 
Q 51.125 14.703125 51.125 21.484375 
Q 51.125 28.328125 47.28125 31.5625 
Q 43.453125 34.8125 35.5 34.8125 
z
M 19.671875 64.796875 
L 19.671875 42.828125 
L 34.28125 42.828125 
Q 41.5 42.828125 45.03125 45.53125 
Q 48.578125 48.25 48.578125 53.8125 
Q 48.578125 59.328125 45.03125 62.0625 
Q 41.5 64.796875 34.28125 64.796875 
z
M 9.8125 72.90625 
L 35.015625 72.90625 
Q 46.296875 72.90625 52.390625 68.21875 
Q 58.5 63.53125 58.5 54.890625 
Q 58.5 48.1875 55.375 44.234375 
Q 52.25 40.28125 46.1875 39.3125 
Q 53.46875 37.75 57.5 32.78125 
Q 61.53125 27.828125 61.53125 20.40625 
Q 61.53125 10.640625 54.890625 5.3125 
Q 48.25 0 35.984375 0 
L 9.8125 0 
z
" id="BitstreamVeraSans-Roman-42"/>
     </defs>
     <g transform="translate(386.7778125 418.531875)scale(0.12 -0.12)">
      <use xlink:href="#BitstreamVeraSans-Roman-4f"/>
      <use x="78.7109375" xlink:href="#BitstreamVeraSans-Roman-70"/>
      <use x="142.1875" xlink:href="#BitstreamVeraSans-Roman-74"/>
      <use x="181.396484375" xlink:href="#BitstreamVeraSans-Roman-69"/>
      <use x="209.1796875" xlink:href="#BitstreamVeraSans-Roman-63"/>
      <use x="264.16015625" xlink:href="#BitstreamVeraSans-Roman-61"/>
      <use x="325.439453125" xlink:href="#BitstreamVeraSans-Roman-6c"/>
      <use x="353.22265625" xlink:href="#BitstreamVeraSans-Roman-20"/>
      <use x="385.009765625" xlink:href="#BitstreamVeraSans-Roman-6c"/>
      <use x="412.79296875" xlink:href="#BitstreamVeraSans-Roman-6f"/>
      <use x="473.974609375" xlink:href="#BitstreamVeraSans-Roman-73"/>
      <use x="526.07421875" xlink:href="#BitstreamVeraSans-Roman-73"/>
      <use x="578.173828125" xlink:href="#BitstreamVeraSans-Roman-65"/>
      <use x="639.697265625" xlink:href="#BitstreamVeraSans-Roman-73"/>
      <use x="691.796875" xlink:href="#BitstreamVeraSans-Roman-20"/>
      <use x="723.583984375" xlink:href="#BitstreamVeraSans-Roman-28"/>
      <use x="762.59765625" xlink:href="#BitstreamVeraSans-Roman-64"/>
      <use x="826.07421875" xlink:href="#BitstreamVeraSans-Roman-42"/>
      <use x="894.677734375" xlink:href="#BitstreamVeraSans-Roman-29"/>
     </g>
    </g>
   </g>
   <g id="matplotlib.axis_2">
    <g id="ytick_1">
     <g id="line2d_23">
      <defs>
       <path d="M 0 0 
L 4 0 
" id="mc173d5c789" style="stroke:#000000;stroke-width:0.5;"/>
      </defs>
      <g>
       <use style="stroke:#000000;stroke-width:0.5;" x="108.0" xlink:href="#mc173d5c789" y="388.8"/>
      </g>
     </g>
     <g id="line2d_24">
      <defs>
       <path d="M 0 0 
L -4 0 
" id="m9b0e072ecc" style="stroke:#000000;stroke-width:0.5;"/>
      </defs>
      <g>
       <use style="stroke:#000000;stroke-width:0.5;" x="777.6" xlink:href="#m9b0e072ecc" y="388.8"/>
      </g>
     </g>
     <g id="text_9">
      <!-- 0.0 -->
      <defs>
       <path d="M 10.6875 12.40625 
L 21 12.40625 
L 21 0 
L 10.6875 0 
z
" id="BitstreamVeraSans-Roman-2e"/>
      </defs>
      <g transform="translate(84.91625 392.11125)scale(0.12 -0.12)">
       <use xlink:href="#BitstreamVeraSans-Roman-30"/>
       <use x="63.623046875" xlink:href="#BitstreamVeraSans-Roman-2e"/>
       <use x="95.41015625" xlink:href="#BitstreamVeraSans-Roman-30"/>
      </g>
     </g>
    </g>
    <g id="ytick_2">
     <g id="line2d_25">
      <g>
       <use style="stroke:#000000;stroke-width:0.5;" x="108.0" xlink:href="#mc173d5c789" y="319.68"/>
      </g>
     </g>
     <g id="line2d_26">
      <g>
       <use style="stroke:#000000;stroke-width:0.5;" x="777.6" xlink:href="#m9b0e072ecc" y="319.68"/>
      </g>
     </g>
     <g id="text_10">
      <!-- 0.1 -->
      <g transform="translate(84.91625 322.99125)scale(0.12 -0.12)">
       <use xlink:href="#BitstreamVeraSans-Roman-30"/>
       <use x="63.623046875" xlink:href="#BitstreamVeraSans-Roman-2e"/>
       <use x="95.41015625" xlink:href="#BitstreamVeraSans-Roman-31"/>
      </g>
     </g>
    </g>
    <g id="ytick_3">
     <g id="line2d_27">
      <g>
       <use style="stroke:#000000;stroke-width:0.5;" x="108.0" xlink:href="#mc173d5c789" y="250.56"/>
      </g>
     </g>
     <g id="line2d_28">
      <g>
       <use style="stroke:#000000;stroke-width:0.5;" x="777.6" xlink:href="#m9b0e072ecc" y="250.56"/>
      </g>
     </g>
     <g id="text_11">
      <!-- 0.2 -->
      <g transform="translate(84.91625 253.87125)scale(0.12 -0.12)">
       <use xlink:href="#BitstreamVeraSans-Roman-30"/>
       <use x="63.623046875" xlink:href="#BitstreamVeraSans-Roman-2e"/>
       <use x="95.41015625" xlink:href="#BitstreamVeraSans-Roman-32"/>
      </g>
     </g>
    </g>
    <g id="ytick_4">
     <g id="line2d_29">
      <g>
       <use style="stroke:#000000;stroke-width:0.5;" x="108.0" xlink:href="#mc173d5c789" y="181.44"/>
      </g>
     </g>
     <g id="line2d_30">
      <g>
       <use style="stroke:#000000;stroke-width:0.5;" x="777.6" xlink:href="#m9b0e072ecc" y="181.44"/>
      </g>
     </g>
     <g id="text_12">
      <!-- 0.3 -->
      <g transform="translate(84.91625 184.75125)scale(0.12 -0.12)">
       <use xlink:href="#BitstreamVeraSans-Roman-30"/>
       <use x="63.623046875" xlink:href="#BitstreamVeraSans-Roman-2e"/>
       <use x="95.41015625" xlink:href="#BitstreamVeraSans-Roman-33"/>
      </g>
     </g>
    </g>
    <g id="ytick_5">
     <g id="line2d_31">
      <g>
       <use style="stroke:#000000;stroke-width:0.5;" x="108.0" xlink:href="#mc173d5c789" y="112.32"/>
      </g>
     </g>
     <g id="line2d_32">
      <g>
       <use style="stroke:#000000;stroke-width:0.5;" x="777.6" xlink:href="#m9b0e072ecc" y="112.32"/>
      </g>
     </g>
     <g id="text_13">
      <!-- 0.4 -->
      <g transform="translate(84.91625 115.63125)scale(0.12 -0.12)">
       <use xlink:href="#BitstreamVeraSans-Roman-30"/>
       <use x="63.623046875" xlink:href="#BitstreamVeraSans-Roman-2e"/>
       <use x="95.41015625" xlink:href="#BitstreamVeraSans-Roman-34"/>
      </g>
     </g>
    </g>
    <g id="ytick_6">
     <g id="line2d_33">
      <g>
       <use style="stroke:#000000;stroke-width:0.5;" x="108.0" xlink:href="#mc173d5c789" y="43.2"/>
      </g>
     </g>
     <g id="line2d_34">
      <g>
       <use style="stroke:#000000;stroke-width:0.5;" x="777.6" xlink:href="#m9b0e072ecc" y="43.2"/>
      </g>
     </g>
     <g id="text_14">
      <!-- 0.5 -->
      <g transform="translate(84.91625 46.51125)scale(0.12 -0.12)">
       <use xlink:href="#BitstreamVeraSans-Roman-30"/>
       <use x="63.623046875" xlink:href="#BitstreamVeraSans-Roman-2e"/>
       <use x="95.41015625" xlink:href="#BitstreamVeraSans-Roman-35"/>
      </g>
     </g>
    </g>
    <g id="text_15">
     <!-- QBER -->
     <defs>
      <path d="M 39.40625 66.21875 
Q 28.65625 66.21875 22.328125 58.203125 
Q 16.015625 50.203125 16.015625 36.375 
Q 16.015625 22.609375 22.328125 14.59375 
Q 28.65625 6.59375 39.40625 6.59375 
Q 50.140625 6.59375 56.421875 14.59375 
Q 62.703125 22.609375 62.703125 36.375 
Q 62.703125 50.203125 56.421875 58.203125 
Q 50.140625 66.21875 39.40625 66.21875 
M 53.21875 1.3125 
L 66.21875 -12.890625 
L 54.296875 -12.890625 
L 43.5 -1.21875 
Q 41.890625 -1.3125 41.03125 -1.359375 
Q 40.1875 -1.421875 39.40625 -1.421875 
Q 24.03125 -1.421875 14.8125 8.859375 
Q 5.609375 19.140625 5.609375 36.375 
Q 5.609375 53.65625 14.8125 63.9375 
Q 24.03125 74.21875 39.40625 74.21875 
Q 54.734375 74.21875 63.90625 63.9375 
Q 73.09375 53.65625 73.09375 36.375 
Q 73.09375 23.6875 67.984375 14.640625 
Q 62.890625 5.609375 53.21875 1.3125 
" id="BitstreamVeraSans-Roman-51"/>
      <path d="M 9.8125 72.90625 
L 55.90625 72.90625 
L 55.90625 64.59375 
L 19.671875 64.59375 
L 19.671875 43.015625 
L 54.390625 43.015625 
L 54.390625 34.71875 
L 19.671875 34.71875 
L 19.671875 8.296875 
L 56.78125 8.296875 
L 56.78125 0 
L 9.8125 0 
z
" id="BitstreamVeraSans-Roman-45"/>
      <path d="M 44.390625 34.1875 
Q 47.5625 33.109375 50.5625 29.59375 
Q 53.5625 26.078125 56.59375 19.921875 
L 66.609375 0 
L 56 0 
L 46.6875 18.703125 
Q 43.0625 26.03125 39.671875 28.421875 
Q 36.28125 30.8125 30.421875 30.8125 
L 19.671875 30.8125 
L 19.671875 0 
L 9.8125 0 
L 9.8125 72.90625 
L 32.078125 72.90625 
Q 44.578125 72.90625 50.734375 67.671875 
Q 56.890625 62.453125 56.890625 51.90625 
Q 56.890625 45.015625 53.6875 40.46875 
Q 50.484375 35.9375 44.390625 34.1875 
M 19.671875 64.796875 
L 19.671875 38.921875 
L 32.078125 38.921875 
Q 39.203125 38.921875 42.84375 42.21875 
Q 46.484375 45.515625 46.484375 51.90625 
Q 46.484375 58.296875 42.84375 61.546875 
Q 39.203125 64.796875 32.078125 64.796875 
z
" id="BitstreamVeraSans-Roman-52"/>
     </defs>
     <g transform="translate(77.420625 232.8)rotate(-90.0)scale(0.12 -0.12)">
      <use xlink:href="#BitstreamVeraSans-Roman-51"/>
      <use x="78.7109375" xlink:href="#BitstreamVeraSans-Roman-42"/>
      <use x="147.314453125" xlink:href="#BitstreamVeraSans-Roman-45"/>
      <use x="210.498046875" xlink:href="#BitstreamVeraSans-Roman-52"/>
     </g>
    </g>
   </g>
   <g id="text_16">
    <!-- QBER vs. Optical losses at different temperatures -->
    <defs>
     <path d="M 37.109375 75.984375 
L 37.109375 68.5 
L 28.515625 68.5 
Q 23.6875 68.5 21.796875 66.546875 
Q 19.921875 64.59375 19.921875 59.515625 
L 19.921875 54.6875 
L 34.71875 54.6875 
L 34.71875 47.703125 
L 19.921875 47.703125 
L 19.921875 0 
L 10.890625 0 
L 10.890625 47.703125 
L 2.296875 47.703125 
L 2.296875 54.6875 
L 10.890625 54.6875 
L 10.890625 58.5 
Q 10.890625 67.625 15.140625 71.796875 
Q 19.390625 75.984375 28.609375 75.984375 
z
" id="BitstreamVeraSans-Roman-66"/>
     <path d="M 54.890625 33.015625 
L 54.890625 0 
L 45.90625 0 
L 45.90625 32.71875 
Q 45.90625 40.484375 42.875 44.328125 
Q 39.84375 48.1875 33.796875 48.1875 
Q 26.515625 48.1875 22.3125 43.546875 
Q 18.109375 38.921875 18.109375 30.90625 
L 18.109375 0 
L 9.078125 0 
L 9.078125 54.6875 
L 18.109375 54.6875 
L 18.109375 46.1875 
Q 21.34375 51.125 25.703125 53.5625 
Q 30.078125 56 35.796875 56 
Q 45.21875 56 50.046875 50.171875 
Q 54.890625 44.34375 54.890625 33.015625 
" id="BitstreamVeraSans-Roman-6e"/>
     <path d="M 52 44.1875 
Q 55.375 50.25 60.0625 53.125 
Q 64.75 56 71.09375 56 
Q 79.640625 56 84.28125 50.015625 
Q 88.921875 44.046875 88.921875 33.015625 
L 88.921875 0 
L 79.890625 0 
L 79.890625 32.71875 
Q 79.890625 40.578125 77.09375 44.375 
Q 74.3125 48.1875 68.609375 48.1875 
Q 61.625 48.1875 57.5625 43.546875 
Q 53.515625 38.921875 53.515625 30.90625 
L 53.515625 0 
L 44.484375 0 
L 44.484375 32.71875 
Q 44.484375 40.625 41.703125 44.40625 
Q 38.921875 48.1875 33.109375 48.1875 
Q 26.21875 48.1875 22.15625 43.53125 
Q 18.109375 38.875 18.109375 30.90625 
L 18.109375 0 
L 9.078125 0 
L 9.078125 54.6875 
L 18.109375 54.6875 
L 18.109375 46.1875 
Q 21.1875 51.21875 25.484375 53.609375 
Q 29.78125 56 35.6875 56 
Q 41.65625 56 45.828125 52.96875 
Q 50 49.953125 52 44.1875 
" id="BitstreamVeraSans-Roman-6d"/>
     <path d="M 2.984375 54.6875 
L 12.5 54.6875 
L 29.59375 8.796875 
L 46.6875 54.6875 
L 56.203125 54.6875 
L 35.6875 0 
L 23.484375 0 
z
" id="BitstreamVeraSans-Roman-76"/>
     <path d="M 8.5 21.578125 
L 8.5 54.6875 
L 17.484375 54.6875 
L 17.484375 21.921875 
Q 17.484375 14.15625 20.5 10.265625 
Q 23.53125 6.390625 29.59375 6.390625 
Q 36.859375 6.390625 41.078125 11.03125 
Q 45.3125 15.671875 45.3125 23.6875 
L 45.3125 54.6875 
L 54.296875 54.6875 
L 54.296875 0 
L 45.3125 0 
L 45.3125 8.40625 
Q 42.046875 3.421875 37.71875 1 
Q 33.40625 -1.421875 27.6875 -1.421875 
Q 18.265625 -1.421875 13.375 4.4375 
Q 8.5 10.296875 8.5 21.578125 
" id="BitstreamVeraSans-Roman-75"/>
     <path d="M 41.109375 46.296875 
Q 39.59375 47.171875 37.8125 47.578125 
Q 36.03125 48 33.890625 48 
Q 26.265625 48 22.1875 43.046875 
Q 18.109375 38.09375 18.109375 28.8125 
L 18.109375 0 
L 9.078125 0 
L 9.078125 54.6875 
L 18.109375 54.6875 
L 18.109375 46.1875 
Q 20.953125 51.171875 25.484375 53.578125 
Q 30.03125 56 36.53125 56 
Q 37.453125 56 38.578125 55.875 
Q 39.703125 55.765625 41.0625 55.515625 
z
" id="BitstreamVeraSans-Roman-72"/>
    </defs>
    <g transform="translate(263.84625 38.2)scale(0.144 -0.144)">
     <use xlink:href="#BitstreamVeraSans-Roman-51"/>
     <use x="78.7109375" xlink:href="#BitstreamVeraSans-Roman-42"/>
     <use x="147.314453125" xlink:href="#BitstreamVeraSans-Roman-45"/>
     <use x="210.498046875" xlink:href="#BitstreamVeraSans-Roman-52"/>
     <use x="279.98046875" xlink:href="#BitstreamVeraSans-Roman-20"/>
     <use x="311.767578125" xlink:href="#BitstreamVeraSans-Roman-76"/>
     <use x="370.947265625" xlink:href="#BitstreamVeraSans-Roman-73"/>
     <use x="423.046875" xlink:href="#BitstreamVeraSans-Roman-2e"/>
     <use x="454.833984375" xlink:href="#BitstreamVeraSans-Roman-20"/>
     <use x="486.62109375" xlink:href="#BitstreamVeraSans-Roman-4f"/>
     <use x="565.33203125" xlink:href="#BitstreamVeraSans-Roman-70"/>
     <use x="628.80859375" xlink:href="#BitstreamVeraSans-Roman-74"/>
     <use x="668.017578125" xlink:href="#BitstreamVeraSans-Roman-69"/>
     <use x="695.80078125" xlink:href="#BitstreamVeraSans-Roman-63"/>
     <use x="750.78125" xlink:href="#BitstreamVeraSans-Roman-61"/>
     <use x="812.060546875" xlink:href="#BitstreamVeraSans-Roman-6c"/>
     <use x="839.84375" xlink:href="#BitstreamVeraSans-Roman-20"/>
     <use x="871.630859375" xlink:href="#BitstreamVeraSans-Roman-6c"/>
     <use x="899.4140625" xlink:href="#BitstreamVeraSans-Roman-6f"/>
     <use x="960.595703125" xlink:href="#BitstreamVeraSans-Roman-73"/>
     <use x="1012.6953125" xlink:href="#BitstreamVeraSans-Roman-73"/>
     <use x="1064.79492188" xlink:href="#BitstreamVeraSans-Roman-65"/>
     <use x="1126.31835938" xlink:href="#BitstreamVeraSans-Roman-73"/>
     <use x="1178.41796875" xlink:href="#BitstreamVeraSans-Roman-20"/>
     <use x="1210.20507812" xlink:href="#BitstreamVeraSans-Roman-61"/>
     <use x="1271.484375" xlink:href="#BitstreamVeraSans-Roman-74"/>
     <use x="1310.69335938" xlink:href="#BitstreamVeraSans-Roman-20"/>
     <use x="1342.48046875" xlink:href="#BitstreamVeraSans-Roman-64"/>
     <use x="1405.95703125" xlink:href="#BitstreamVeraSans-Roman-69"/>
     <use x="1433.74023438" xlink:href="#BitstreamVeraSans-Roman-66"/>
     <use x="1468.9453125" xlink:href="#BitstreamVeraSans-Roman-66"/>
     <use x="1504.15039062" xlink:href="#BitstreamVeraSans-Roman-65"/>
     <use x="1565.67382812" xlink:href="#BitstreamVeraSans-Roman-72"/>
     <use x="1606.75585938" xlink:href="#BitstreamVeraSans-Roman-65"/>
     <use x="1668.27929688" xlink:href="#BitstreamVeraSans-Roman-6e"/>
     <use x="1731.65820312" xlink:href="#BitstreamVeraSans-Roman-74"/>
     <use x="1770.8671875" xlink:href="#BitstreamVeraSans-Roman-20"/>
     <use x="1802.65429688" xlink:href="#BitstreamVeraSans-Roman-74"/>
     <use x="1841.86328125" xlink:href="#BitstreamVeraSans-Roman-65"/>
     <use x="1903.38671875" xlink:href="#BitstreamVeraSans-Roman-6d"/>
     <use x="2000.79882812" xlink:href="#BitstreamVeraSans-Roman-70"/>
     <use x="2064.27539062" xlink:href="#BitstreamVeraSans-Roman-65"/>
     <use x="2125.79882812" xlink:href="#BitstreamVeraSans-Roman-72"/>
     <use x="2166.91210938" xlink:href="#BitstreamVeraSans-Roman-61"/>
     <use x="2228.19140625" xlink:href="#BitstreamVeraSans-Roman-74"/>
     <use x="2267.40039062" xlink:href="#BitstreamVeraSans-Roman-75"/>
     <use x="2330.77929688" xlink:href="#BitstreamVeraSans-Roman-72"/>
     <use x="2371.86132812" xlink:href="#BitstreamVeraSans-Roman-65"/>
     <use x="2433.38476562" xlink:href="#BitstreamVeraSans-Roman-73"/>
    </g>
   </g>
   <g id="legend_1">
    <g id="patch_7">
     <path d="M 115.2 202.6755 
L 226.86975 202.6755 
L 226.86975 50.4 
L 115.2 50.4 
z
" style="fill:#ffffff;stroke:#000000;stroke-linejoin:miter;"/>
    </g>
    <g id="line2d_35">
     <path d="M 125.28 62.06175 
L 145.44 62.06175 
" style="fill:none;stroke:#0000ff;stroke-linecap:square;stroke-width:2.0;"/>
    </g>
    <g id="line2d_36"/>
    <g id="text_17">
     <!-- 293.15K -->
     <defs>
      <path d="M 10.984375 1.515625 
L 10.984375 10.5 
Q 14.703125 8.734375 18.5 7.8125 
Q 22.3125 6.890625 25.984375 6.890625 
Q 35.75 6.890625 40.890625 13.453125 
Q 46.046875 20.015625 46.78125 33.40625 
Q 43.953125 29.203125 39.59375 26.953125 
Q 35.25 24.703125 29.984375 24.703125 
Q 19.046875 24.703125 12.671875 31.3125 
Q 6.296875 37.9375 6.296875 49.421875 
Q 6.296875 60.640625 12.9375 67.421875 
Q 19.578125 74.21875 30.609375 74.21875 
Q 43.265625 74.21875 49.921875 64.515625 
Q 56.59375 54.828125 56.59375 36.375 
Q 56.59375 19.140625 48.40625 8.859375 
Q 40.234375 -1.421875 26.421875 -1.421875 
Q 22.703125 -1.421875 18.890625 -0.6875 
Q 15.09375 0.046875 10.984375 1.515625 
M 30.609375 32.421875 
Q 37.25 32.421875 41.125 36.953125 
Q 45.015625 41.5 45.015625 49.421875 
Q 45.015625 57.28125 41.125 61.84375 
Q 37.25 66.40625 30.609375 66.40625 
Q 23.96875 66.40625 20.09375 61.84375 
Q 16.21875 57.28125 16.21875 49.421875 
Q 16.21875 41.5 20.09375 36.953125 
Q 23.96875 32.421875 30.609375 32.421875 
" id="BitstreamVeraSans-Roman-39"/>
      <path d="M 9.8125 72.90625 
L 19.671875 72.90625 
L 19.671875 42.09375 
L 52.390625 72.90625 
L 65.09375 72.90625 
L 28.90625 38.921875 
L 67.671875 0 
L 54.6875 0 
L 19.671875 35.109375 
L 19.671875 0 
L 9.8125 0 
z
" id="BitstreamVeraSans-Roman-4b"/>
     </defs>
     <g transform="translate(161.28 67.10175)scale(0.144 -0.144)">
      <use xlink:href="#BitstreamVeraSans-Roman-32"/>
      <use x="63.623046875" xlink:href="#BitstreamVeraSans-Roman-39"/>
      <use x="127.24609375" xlink:href="#BitstreamVeraSans-Roman-33"/>
      <use x="190.869140625" xlink:href="#BitstreamVeraSans-Roman-2e"/>
      <use x="222.65625" xlink:href="#BitstreamVeraSans-Roman-31"/>
      <use x="286.279296875" xlink:href="#BitstreamVeraSans-Roman-35"/>
      <use x="349.90234375" xlink:href="#BitstreamVeraSans-Roman-4b"/>
     </g>
    </g>
    <g id="line2d_37">
     <path d="M 125.28 83.19825 
L 145.44 83.19825 
" style="fill:none;stroke:#008000;stroke-linecap:square;stroke-width:2.0;"/>
    </g>
    <g id="line2d_38"/>
    <g id="text_18">
     <!-- 288.15K -->
     <defs>
      <path d="M 31.78125 34.625 
Q 24.75 34.625 20.71875 30.859375 
Q 16.703125 27.09375 16.703125 20.515625 
Q 16.703125 13.921875 20.71875 10.15625 
Q 24.75 6.390625 31.78125 6.390625 
Q 38.8125 6.390625 42.859375 10.171875 
Q 46.921875 13.96875 46.921875 20.515625 
Q 46.921875 27.09375 42.890625 30.859375 
Q 38.875 34.625 31.78125 34.625 
M 21.921875 38.8125 
Q 15.578125 40.375 12.03125 44.71875 
Q 8.5 49.078125 8.5 55.328125 
Q 8.5 64.0625 14.71875 69.140625 
Q 20.953125 74.21875 31.78125 74.21875 
Q 42.671875 74.21875 48.875 69.140625 
Q 55.078125 64.0625 55.078125 55.328125 
Q 55.078125 49.078125 51.53125 44.71875 
Q 48 40.375 41.703125 38.8125 
Q 48.828125 37.15625 52.796875 32.3125 
Q 56.78125 27.484375 56.78125 20.515625 
Q 56.78125 9.90625 50.3125 4.234375 
Q 43.84375 -1.421875 31.78125 -1.421875 
Q 19.734375 -1.421875 13.25 4.234375 
Q 6.78125 9.90625 6.78125 20.515625 
Q 6.78125 27.484375 10.78125 32.3125 
Q 14.796875 37.15625 21.921875 38.8125 
M 18.3125 54.390625 
Q 18.3125 48.734375 21.84375 45.5625 
Q 25.390625 42.390625 31.78125 42.390625 
Q 38.140625 42.390625 41.71875 45.5625 
Q 45.3125 48.734375 45.3125 54.390625 
Q 45.3125 60.0625 41.71875 63.234375 
Q 38.140625 66.40625 31.78125 66.40625 
Q 25.390625 66.40625 21.84375 63.234375 
Q 18.3125 60.0625 18.3125 54.390625 
" id="BitstreamVeraSans-Roman-38"/>
     </defs>
     <g transform="translate(161.28 88.23825)scale(0.144 -0.144)">
      <use xlink:href="#BitstreamVeraSans-Roman-32"/>
      <use x="63.623046875" xlink:href="#BitstreamVeraSans-Roman-38"/>
      <use x="127.24609375" xlink:href="#BitstreamVeraSans-Roman-38"/>
      <use x="190.869140625" xlink:href="#BitstreamVeraSans-Roman-2e"/>
      <use x="222.65625" xlink:href="#BitstreamVeraSans-Roman-31"/>
      <use x="286.279296875" xlink:href="#BitstreamVeraSans-Roman-35"/>
      <use x="349.90234375" xlink:href="#BitstreamVeraSans-Roman-4b"/>
     </g>
    </g>
    <g id="line2d_39">
     <path d="M 125.28 104.33475 
L 145.44 104.33475 
" style="fill:none;stroke:#ff0000;stroke-linecap:square;stroke-width:2.0;"/>
    </g>
    <g id="line2d_40"/>
    <g id="text_19">
     <!-- 283.15K -->
     <g transform="translate(161.28 109.37475)scale(0.144 -0.144)">
      <use xlink:href="#BitstreamVeraSans-Roman-32"/>
      <use x="63.623046875" xlink:href="#BitstreamVeraSans-Roman-38"/>
      <use x="127.24609375" xlink:href="#BitstreamVeraSans-Roman-33"/>
      <use x="190.869140625" xlink:href="#BitstreamVeraSans-Roman-2e"/>
      <use x="222.65625" xlink:href="#BitstreamVeraSans-Roman-31"/>
      <use x="286.279296875" xlink:href="#BitstreamVeraSans-Roman-35"/>
      <use x="349.90234375" xlink:href="#BitstreamVeraSans-Roman-4b"/>
     </g>
    </g>
    <g id="line2d_41">
     <path d="M 125.28 125.47125 
L 145.44 125.47125 
" style="fill:none;stroke:#00bfbf;stroke-linecap:square;stroke-width:2.0;"/>
    </g>
    <g id="line2d_42"/>
    <g id="text_20">
     <!-- 278.15K -->
     <defs>
      <path d="M 8.203125 72.90625 
L 55.078125 72.90625 
L 55.078125 68.703125 
L 28.609375 0 
L 18.3125 0 
L 43.21875 64.59375 
L 8.203125 64.59375 
z
" id="BitstreamVeraSans-Roman-37"/>
     </defs>
     <g transform="translate(161.28 130.51125)scale(0.144 -0.144)">
      <use xlink:href="#BitstreamVeraSans-Roman-32"/>
      <use x="63.623046875" xlink:href="#BitstreamVeraSans-Roman-37"/>
      <use x="127.24609375" xlink:href="#BitstreamVeraSans-Roman-38"/>
      <use x="190.869140625" xlink:href="#BitstreamVeraSans-Roman-2e"/>
      <use x="222.65625" xlink:href="#BitstreamVeraSans-Roman-31"/>
      <use x="286.279296875" xlink:href="#BitstreamVeraSans-Roman-35"/>
      <use x="349.90234375" xlink:href="#BitstreamVeraSans-Roman-4b"/>
     </g>
    </g>
    <g id="line2d_43">
     <path d="M 125.28 146.60775 
L 145.44 146.60775 
" style="fill:none;stroke:#bf00bf;stroke-linecap:square;stroke-width:2.0;"/>
    </g>
    <g id="line2d_44"/>
    <g id="text_21">
     <!-- 273.15K -->
     <g transform="translate(161.28 151.64775)scale(0.144 -0.144)">
      <use xlink:href="#BitstreamVeraSans-Roman-32"/>
      <use x="63.623046875" xlink:href="#BitstreamVeraSans-Roman-37"/>
      <use x="127.24609375" xlink:href="#BitstreamVeraSans-Roman-33"/>
      <use x="190.869140625" xlink:href="#BitstreamVeraSans-Roman-2e"/>
      <use x="222.65625" xlink:href="#BitstreamVeraSans-Roman-31"/>
      <use x="286.279296875" xlink:href="#BitstreamVeraSans-Roman-35"/>
      <use x="349.90234375" xlink:href="#BitstreamVeraSans-Roman-4b"/>
     </g>
    </g>
    <g id="line2d_45">
     <path d="M 125.28 167.74425 
L 145.44 167.74425 
" style="fill:none;stroke:#bfbf00;stroke-linecap:square;stroke-width:2.0;"/>
    </g>
    <g id="line2d_46"/>
    <g id="text_22">
     <!-- 268.15K -->
     <g transform="translate(161.28 172.78425)scale(0.144 -0.144)">
      <use xlink:href="#BitstreamVeraSans-Roman-32"/>
      <use x="63.623046875" xlink:href="#BitstreamVeraSans-Roman-36"/>
      <use x="127.24609375" xlink:href="#BitstreamVeraSans-Roman-38"/>
      <use x="190.869140625" xlink:href="#BitstreamVeraSans-Roman-2e"/>
      <use x="222.65625" xlink:href="#BitstreamVeraSans-Roman-31"/>
      <use x="286.279296875" xlink:href="#BitstreamVeraSans-Roman-35"/>
      <use x="349.90234375" xlink:href="#BitstreamVeraSans-Roman-4b"/>
     </g>
    </g>
    <g id="line2d_47">
     <path d="M 125.28 188.88075 
L 145.44 188.88075 
" style="fill:none;stroke:#000000;stroke-linecap:square;stroke-width:2.0;"/>
    </g>
    <g id="line2d_48"/>
    <g id="text_23">
     <!-- 263.15K -->
     <g transform="translate(161.28 193.92075)scale(0.144 -0.144)">
      <use xlink:href="#BitstreamVeraSans-Roman-32"/>
      <use x="63.623046875" xlink:href="#BitstreamVeraSans-Roman-36"/>
      <use x="127.24609375" xlink:href="#BitstreamVeraSans-Roman-33"/>
      <use x="190.869140625" xlink:href="#BitstreamVeraSans-Roman-2e"/>
      <use x="222.65625" xlink:href="#BitstreamVeraSans-Roman-31"/>
      <use x="286.279296875" xlink:href="#BitstreamVeraSans-Roman-35"/>
      <use x="349.90234375" xlink:href="#BitstreamVeraSans-Roman-4b"/>
     </g>
    </g>
   </g>
  </g>
 </g>
 <defs>
  <clipPath id="pffa30ca435">
   <rect height="345.6" width="669.6" x="108.0" y="43.2"/>
  </clipPath>
 </defs>
</svg>
