<?xml version="1.0" encoding="utf-8" standalone="no"?>
<!DOCTYPE svg PUBLIC "-//W3C//DTD SVG 1.1//EN"
  "http://www.w3.org/Graphics/SVG/1.1/DTD/svg11.dtd">
<!-- Created with matplotlib (http://matplotlib.org/) -->
<svg height="720pt" version="1.1" viewBox="0 0 864 720" width="864pt" xmlns="http://www.w3.org/2000/svg" xmlns:xlink="http://www.w3.org/1999/xlink">
 <defs>
  <style type="text/css">
*{stroke-linecap:butt;stroke-linejoin:round;stroke-miterlimit:100000;}
  </style>
 </defs>
 <g id="figure_1">
  <g id="patch_1">
   <path d="M 0 720 
L 864 720 
L 864 0 
L 0 0 
z
" style="fill:#ffffff;"/>
  </g>
  <g id="axes_1">
   <g id="patch_2">
    <path d="M 259.2 196.438625 
L 677.412766 196.438625 
L 677.412766 72 
L 259.2 72 
z
" style="fill:#ffffff;"/>
   </g>
   <g id="line2d_1">
    <path clip-path="url(#pf9c351dc2d)" d="M 259.2 169.062128 
L 677.412766 169.062128 
" style="fill:none;stroke:#0000ff;stroke-linecap:square;"/>
   </g>
   <g id="line2d_2">
    <path clip-path="url(#pf9c351dc2d)" d="M 677.412766 119.237298 
L 664.029957 125.673291 
L 620.954043 146.586211 
L 610.080511 151.496439 
L 600.322213 155.663895 
L 591.121532 159.35543 
L 582.19966 162.69638 
L 573.417191 165.745532 
L 564.774128 168.510583 
L 556.131064 171.043246 
L 547.348596 173.384425 
L 538.426723 175.532443 
L 529.226043 177.517532 
L 519.746553 179.334868 
L 509.848851 181.005373 
L 499.393532 182.54173 
L 488.380596 183.933701 
L 476.531234 185.203839 
L 463.706043 186.34965 
L 449.765617 187.367525 
L 434.291745 188.269033 
L 417.005617 189.049124 
L 397.070809 189.719673 
L 373.650894 190.277091 
L 345.212426 190.723228 
L 308.688511 191.062537 
L 259.2 191.292447 
L 259.2 191.292447 
" style="fill:none;stroke:#ff0000;stroke-linecap:square;stroke-width:2.0;"/>
   </g>
   <g id="patch_3">
    <path d="M 259.2 72 
L 677.412766 72 
" style="fill:none;stroke:#000000;stroke-linecap:square;stroke-linejoin:miter;"/>
   </g>
   <g id="patch_4">
    <path d="M 677.412766 196.438625 
L 677.412766 72 
" style="fill:none;stroke:#000000;stroke-linecap:square;stroke-linejoin:miter;"/>
   </g>
   <g id="patch_5">
    <path d="M 259.2 196.438625 
L 677.412766 196.438625 
" style="fill:none;stroke:#000000;stroke-linecap:square;stroke-linejoin:miter;"/>
   </g>
   <g id="patch_6">
    <path d="M 259.2 196.438625 
L 259.2 72 
" style="fill:none;stroke:#000000;stroke-linecap:square;stroke-linejoin:miter;"/>
   </g>
   <g id="matplotlib.axis_1">
    <g id="xtick_1">
     <g id="line2d_3">
      <defs>
       <path d="M 0 0 
L 0 -4 
" id="m69a2b5db33" style="stroke:#000000;stroke-width:0.5;"/>
      </defs>
      <g>
       <use style="stroke:#000000;stroke-width:0.5;" x="259.2" xlink:href="#m69a2b5db33" y="196.438625205"/>
      </g>
     </g>
     <g id="line2d_4">
      <defs>
       <path d="M 0 0 
L 0 4 
" id="me69832b708" style="stroke:#000000;stroke-width:0.5;"/>
      </defs>
      <g>
       <use style="stroke:#000000;stroke-width:0.5;" x="259.2" xlink:href="#me69832b708" y="72.0"/>
      </g>
     </g>
     <g id="text_1">
      <!-- 0 -->
      <defs>
       <path d="M 31.78125 66.40625 
Q 24.171875 66.40625 20.328125 58.90625 
Q 16.5 51.421875 16.5 36.375 
Q 16.5 21.390625 20.328125 13.890625 
Q 24.171875 6.390625 31.78125 6.390625 
Q 39.453125 6.390625 43.28125 13.890625 
Q 47.125 21.390625 47.125 36.375 
Q 47.125 51.421875 43.28125 58.90625 
Q 39.453125 66.40625 31.78125 66.40625 
M 31.78125 74.21875 
Q 44.046875 74.21875 50.515625 64.515625 
Q 56.984375 54.828125 56.984375 36.375 
Q 56.984375 17.96875 50.515625 8.265625 
Q 44.046875 -1.421875 31.78125 -1.421875 
Q 19.53125 -1.421875 13.0625 8.265625 
Q 6.59375 17.96875 6.59375 36.375 
Q 6.59375 54.828125 13.0625 64.515625 
Q 19.53125 74.21875 31.78125 74.21875 
" id="BitstreamVeraSans-Roman-30"/>
      </defs>
      <g transform="translate(255.3825 209.556750205)scale(0.12 -0.12)">
       <use xlink:href="#BitstreamVeraSans-Roman-30"/>
      </g>
     </g>
    </g>
    <g id="xtick_2">
     <g id="line2d_5">
      <g>
       <use style="stroke:#000000;stroke-width:0.5;" x="328.90212766" xlink:href="#m69a2b5db33" y="196.438625205"/>
      </g>
     </g>
     <g id="line2d_6">
      <g>
       <use style="stroke:#000000;stroke-width:0.5;" x="328.90212766" xlink:href="#me69832b708" y="72.0"/>
      </g>
     </g>
     <g id="text_2">
      <!-- 5 -->
      <defs>
       <path d="M 10.796875 72.90625 
L 49.515625 72.90625 
L 49.515625 64.59375 
L 19.828125 64.59375 
L 19.828125 46.734375 
Q 21.96875 47.46875 24.109375 47.828125 
Q 26.265625 48.1875 28.421875 48.1875 
Q 40.625 48.1875 47.75 41.5 
Q 54.890625 34.8125 54.890625 23.390625 
Q 54.890625 11.625 47.5625 5.09375 
Q 40.234375 -1.421875 26.90625 -1.421875 
Q 22.3125 -1.421875 17.546875 -0.640625 
Q 12.796875 0.140625 7.71875 1.703125 
L 7.71875 11.625 
Q 12.109375 9.234375 16.796875 8.0625 
Q 21.484375 6.890625 26.703125 6.890625 
Q 35.15625 6.890625 40.078125 11.328125 
Q 45.015625 15.765625 45.015625 23.390625 
Q 45.015625 31 40.078125 35.4375 
Q 35.15625 39.890625 26.703125 39.890625 
Q 22.75 39.890625 18.8125 39.015625 
Q 14.890625 38.140625 10.796875 36.28125 
z
" id="BitstreamVeraSans-Roman-35"/>
      </defs>
      <g transform="translate(325.08462766 209.556750205)scale(0.12 -0.12)">
       <use xlink:href="#BitstreamVeraSans-Roman-35"/>
      </g>
     </g>
    </g>
    <g id="xtick_3">
     <g id="line2d_7">
      <g>
       <use style="stroke:#000000;stroke-width:0.5;" x="398.604255319" xlink:href="#m69a2b5db33" y="196.438625205"/>
      </g>
     </g>
     <g id="line2d_8">
      <g>
       <use style="stroke:#000000;stroke-width:0.5;" x="398.604255319" xlink:href="#me69832b708" y="72.0"/>
      </g>
     </g>
     <g id="text_3">
      <!-- 10 -->
      <defs>
       <path d="M 12.40625 8.296875 
L 28.515625 8.296875 
L 28.515625 63.921875 
L 10.984375 60.40625 
L 10.984375 69.390625 
L 28.421875 72.90625 
L 38.28125 72.90625 
L 38.28125 8.296875 
L 54.390625 8.296875 
L 54.390625 0 
L 12.40625 0 
z
" id="BitstreamVeraSans-Roman-31"/>
      </defs>
      <g transform="translate(390.969255319 209.556750205)scale(0.12 -0.12)">
       <use xlink:href="#BitstreamVeraSans-Roman-31"/>
       <use x="63.623046875" xlink:href="#BitstreamVeraSans-Roman-30"/>
      </g>
     </g>
    </g>
    <g id="xtick_4">
     <g id="line2d_9">
      <g>
       <use style="stroke:#000000;stroke-width:0.5;" x="468.306382979" xlink:href="#m69a2b5db33" y="196.438625205"/>
      </g>
     </g>
     <g id="line2d_10">
      <g>
       <use style="stroke:#000000;stroke-width:0.5;" x="468.306382979" xlink:href="#me69832b708" y="72.0"/>
      </g>
     </g>
     <g id="text_4">
      <!-- 15 -->
      <g transform="translate(460.671382979 209.556750205)scale(0.12 -0.12)">
       <use xlink:href="#BitstreamVeraSans-Roman-31"/>
       <use x="63.623046875" xlink:href="#BitstreamVeraSans-Roman-35"/>
      </g>
     </g>
    </g>
    <g id="xtick_5">
     <g id="line2d_11">
      <g>
       <use style="stroke:#000000;stroke-width:0.5;" x="538.008510638" xlink:href="#m69a2b5db33" y="196.438625205"/>
      </g>
     </g>
     <g id="line2d_12">
      <g>
       <use style="stroke:#000000;stroke-width:0.5;" x="538.008510638" xlink:href="#me69832b708" y="72.0"/>
      </g>
     </g>
     <g id="text_5">
      <!-- 20 -->
      <defs>
       <path d="M 19.1875 8.296875 
L 53.609375 8.296875 
L 53.609375 0 
L 7.328125 0 
L 7.328125 8.296875 
Q 12.9375 14.109375 22.625 23.890625 
Q 32.328125 33.6875 34.8125 36.53125 
Q 39.546875 41.84375 41.421875 45.53125 
Q 43.3125 49.21875 43.3125 52.78125 
Q 43.3125 58.59375 39.234375 62.25 
Q 35.15625 65.921875 28.609375 65.921875 
Q 23.96875 65.921875 18.8125 64.3125 
Q 13.671875 62.703125 7.8125 59.421875 
L 7.8125 69.390625 
Q 13.765625 71.78125 18.9375 73 
Q 24.125 74.21875 28.421875 74.21875 
Q 39.75 74.21875 46.484375 68.546875 
Q 53.21875 62.890625 53.21875 53.421875 
Q 53.21875 48.921875 51.53125 44.890625 
Q 49.859375 40.875 45.40625 35.40625 
Q 44.1875 33.984375 37.640625 27.21875 
Q 31.109375 20.453125 19.1875 8.296875 
" id="BitstreamVeraSans-Roman-32"/>
      </defs>
      <g transform="translate(530.373510638 209.556750205)scale(0.12 -0.12)">
       <use xlink:href="#BitstreamVeraSans-Roman-32"/>
       <use x="63.623046875" xlink:href="#BitstreamVeraSans-Roman-30"/>
      </g>
     </g>
    </g>
    <g id="xtick_6">
     <g id="line2d_13">
      <g>
       <use style="stroke:#000000;stroke-width:0.5;" x="607.710638298" xlink:href="#m69a2b5db33" y="196.438625205"/>
      </g>
     </g>
     <g id="line2d_14">
      <g>
       <use style="stroke:#000000;stroke-width:0.5;" x="607.710638298" xlink:href="#me69832b708" y="72.0"/>
      </g>
     </g>
     <g id="text_6">
      <!-- 25 -->
      <g transform="translate(600.075638298 209.556750205)scale(0.12 -0.12)">
       <use xlink:href="#BitstreamVeraSans-Roman-32"/>
       <use x="63.623046875" xlink:href="#BitstreamVeraSans-Roman-35"/>
      </g>
     </g>
    </g>
    <g id="xtick_7">
     <g id="line2d_15">
      <g>
       <use style="stroke:#000000;stroke-width:0.5;" x="677.412765957" xlink:href="#m69a2b5db33" y="196.438625205"/>
      </g>
     </g>
     <g id="line2d_16">
      <g>
       <use style="stroke:#000000;stroke-width:0.5;" x="677.412765957" xlink:href="#me69832b708" y="72.0"/>
      </g>
     </g>
     <g id="text_7">
      <!-- 30 -->
      <defs>
       <path d="M 40.578125 39.3125 
Q 47.65625 37.796875 51.625 33 
Q 55.609375 28.21875 55.609375 21.1875 
Q 55.609375 10.40625 48.1875 4.484375 
Q 40.765625 -1.421875 27.09375 -1.421875 
Q 22.515625 -1.421875 17.65625 -0.515625 
Q 12.796875 0.390625 7.625 2.203125 
L 7.625 11.71875 
Q 11.71875 9.328125 16.59375 8.109375 
Q 21.484375 6.890625 26.8125 6.890625 
Q 36.078125 6.890625 40.9375 10.546875 
Q 45.796875 14.203125 45.796875 21.1875 
Q 45.796875 27.640625 41.28125 31.265625 
Q 36.765625 34.90625 28.71875 34.90625 
L 20.21875 34.90625 
L 20.21875 43.015625 
L 29.109375 43.015625 
Q 36.375 43.015625 40.234375 45.921875 
Q 44.09375 48.828125 44.09375 54.296875 
Q 44.09375 59.90625 40.109375 62.90625 
Q 36.140625 65.921875 28.71875 65.921875 
Q 24.65625 65.921875 20.015625 65.03125 
Q 15.375 64.15625 9.8125 62.3125 
L 9.8125 71.09375 
Q 15.4375 72.65625 20.34375 73.4375 
Q 25.25 74.21875 29.59375 74.21875 
Q 40.828125 74.21875 47.359375 69.109375 
Q 53.90625 64.015625 53.90625 55.328125 
Q 53.90625 49.265625 50.4375 45.09375 
Q 46.96875 40.921875 40.578125 39.3125 
" id="BitstreamVeraSans-Roman-33"/>
      </defs>
      <g transform="translate(669.777765957 209.556750205)scale(0.12 -0.12)">
       <use xlink:href="#BitstreamVeraSans-Roman-33"/>
       <use x="63.623046875" xlink:href="#BitstreamVeraSans-Roman-30"/>
      </g>
     </g>
    </g>
   </g>
   <g id="matplotlib.axis_2">
    <g id="ytick_1">
     <g id="line2d_17">
      <defs>
       <path d="M 0 0 
L 4 0 
" id="m02a114f034" style="stroke:#000000;stroke-width:0.5;"/>
      </defs>
      <g>
       <use style="stroke:#000000;stroke-width:0.5;" x="259.2" xlink:href="#m02a114f034" y="196.438625205"/>
      </g>
     </g>
     <g id="line2d_18">
      <defs>
       <path d="M 0 0 
L -4 0 
" id="m736e8bd86d" style="stroke:#000000;stroke-width:0.5;"/>
      </defs>
      <g>
       <use style="stroke:#000000;stroke-width:0.5;" x="677.412765957" xlink:href="#m736e8bd86d" y="196.438625205"/>
      </g>
     </g>
     <g id="text_8">
      <!-- 0.0 -->
      <defs>
       <path d="M 10.6875 12.40625 
L 21 12.40625 
L 21 0 
L 10.6875 0 
z
" id="BitstreamVeraSans-Roman-2e"/>
      </defs>
      <g transform="translate(236.11625 199.749875205)scale(0.12 -0.12)">
       <use xlink:href="#BitstreamVeraSans-Roman-30"/>
       <use x="63.623046875" xlink:href="#BitstreamVeraSans-Roman-2e"/>
       <use x="95.41015625" xlink:href="#BitstreamVeraSans-Roman-30"/>
      </g>
     </g>
    </g>
    <g id="ytick_2">
     <g id="line2d_19">
      <g>
       <use style="stroke:#000000;stroke-width:0.5;" x="259.2" xlink:href="#m02a114f034" y="171.550900164"/>
      </g>
     </g>
     <g id="line2d_20">
      <g>
       <use style="stroke:#000000;stroke-width:0.5;" x="677.412765957" xlink:href="#m736e8bd86d" y="171.550900164"/>
      </g>
     </g>
     <g id="text_9">
      <!-- 0.1 -->
      <g transform="translate(236.11625 174.862150164)scale(0.12 -0.12)">
       <use xlink:href="#BitstreamVeraSans-Roman-30"/>
       <use x="63.623046875" xlink:href="#BitstreamVeraSans-Roman-2e"/>
       <use x="95.41015625" xlink:href="#BitstreamVeraSans-Roman-31"/>
      </g>
     </g>
    </g>
    <g id="ytick_3">
     <g id="line2d_21">
      <g>
       <use style="stroke:#000000;stroke-width:0.5;" x="259.2" xlink:href="#m02a114f034" y="146.663175123"/>
      </g>
     </g>
     <g id="line2d_22">
      <g>
       <use style="stroke:#000000;stroke-width:0.5;" x="677.412765957" xlink:href="#m736e8bd86d" y="146.663175123"/>
      </g>
     </g>
     <g id="text_10">
      <!-- 0.2 -->
      <g transform="translate(236.11625 149.974425123)scale(0.12 -0.12)">
       <use xlink:href="#BitstreamVeraSans-Roman-30"/>
       <use x="63.623046875" xlink:href="#BitstreamVeraSans-Roman-2e"/>
       <use x="95.41015625" xlink:href="#BitstreamVeraSans-Roman-32"/>
      </g>
     </g>
    </g>
    <g id="ytick_4">
     <g id="line2d_23">
      <g>
       <use style="stroke:#000000;stroke-width:0.5;" x="259.2" xlink:href="#m02a114f034" y="121.775450082"/>
      </g>
     </g>
     <g id="line2d_24">
      <g>
       <use style="stroke:#000000;stroke-width:0.5;" x="677.412765957" xlink:href="#m736e8bd86d" y="121.775450082"/>
      </g>
     </g>
     <g id="text_11">
      <!-- 0.3 -->
      <g transform="translate(236.11625 125.086700082)scale(0.12 -0.12)">
       <use xlink:href="#BitstreamVeraSans-Roman-30"/>
       <use x="63.623046875" xlink:href="#BitstreamVeraSans-Roman-2e"/>
       <use x="95.41015625" xlink:href="#BitstreamVeraSans-Roman-33"/>
      </g>
     </g>
    </g>
    <g id="ytick_5">
     <g id="line2d_25">
      <g>
       <use style="stroke:#000000;stroke-width:0.5;" x="259.2" xlink:href="#m02a114f034" y="96.8877250409"/>
      </g>
     </g>
     <g id="line2d_26">
      <g>
       <use style="stroke:#000000;stroke-width:0.5;" x="677.412765957" xlink:href="#m736e8bd86d" y="96.8877250409"/>
      </g>
     </g>
     <g id="text_12">
      <!-- 0.4 -->
      <defs>
       <path d="M 37.796875 64.3125 
L 12.890625 25.390625 
L 37.796875 25.390625 
z
M 35.203125 72.90625 
L 47.609375 72.90625 
L 47.609375 25.390625 
L 58.015625 25.390625 
L 58.015625 17.1875 
L 47.609375 17.1875 
L 47.609375 0 
L 37.796875 0 
L 37.796875 17.1875 
L 4.890625 17.1875 
L 4.890625 26.703125 
z
" id="BitstreamVeraSans-Roman-34"/>
      </defs>
      <g transform="translate(236.11625 100.198975041)scale(0.12 -0.12)">
       <use xlink:href="#BitstreamVeraSans-Roman-30"/>
       <use x="63.623046875" xlink:href="#BitstreamVeraSans-Roman-2e"/>
       <use x="95.41015625" xlink:href="#BitstreamVeraSans-Roman-34"/>
      </g>
     </g>
    </g>
    <g id="ytick_6">
     <g id="line2d_27">
      <g>
       <use style="stroke:#000000;stroke-width:0.5;" x="259.2" xlink:href="#m02a114f034" y="72.0"/>
      </g>
     </g>
     <g id="line2d_28">
      <g>
       <use style="stroke:#000000;stroke-width:0.5;" x="677.412765957" xlink:href="#m736e8bd86d" y="72.0"/>
      </g>
     </g>
     <g id="text_13">
      <!-- 0.5 -->
      <g transform="translate(236.11625 75.31125)scale(0.12 -0.12)">
       <use xlink:href="#BitstreamVeraSans-Roman-30"/>
       <use x="63.623046875" xlink:href="#BitstreamVeraSans-Roman-2e"/>
       <use x="95.41015625" xlink:href="#BitstreamVeraSans-Roman-35"/>
      </g>
     </g>
    </g>
    <g id="text_14">
     <!-- QBER -->
     <defs>
      <path d="M 44.390625 34.1875 
Q 47.5625 33.109375 50.5625 29.59375 
Q 53.5625 26.078125 56.59375 19.921875 
L 66.609375 0 
L 56 0 
L 46.6875 18.703125 
Q 43.0625 26.03125 39.671875 28.421875 
Q 36.28125 30.8125 30.421875 30.8125 
L 19.671875 30.8125 
L 19.671875 0 
L 9.8125 0 
L 9.8125 72.90625 
L 32.078125 72.90625 
Q 44.578125 72.90625 50.734375 67.671875 
Q 56.890625 62.453125 56.890625 51.90625 
Q 56.890625 45.015625 53.6875 40.46875 
Q 50.484375 35.9375 44.390625 34.1875 
M 19.671875 64.796875 
L 19.671875 38.921875 
L 32.078125 38.921875 
Q 39.203125 38.921875 42.84375 42.21875 
Q 46.484375 45.515625 46.484375 51.90625 
Q 46.484375 58.296875 42.84375 61.546875 
Q 39.203125 64.796875 32.078125 64.796875 
z
" id="BitstreamVeraSans-Roman-52"/>
      <path d="M 39.40625 66.21875 
Q 28.65625 66.21875 22.328125 58.203125 
Q 16.015625 50.203125 16.015625 36.375 
Q 16.015625 22.609375 22.328125 14.59375 
Q 28.65625 6.59375 39.40625 6.59375 
Q 50.140625 6.59375 56.421875 14.59375 
Q 62.703125 22.609375 62.703125 36.375 
Q 62.703125 50.203125 56.421875 58.203125 
Q 50.140625 66.21875 39.40625 66.21875 
M 53.21875 1.3125 
L 66.21875 -12.890625 
L 54.296875 -12.890625 
L 43.5 -1.21875 
Q 41.890625 -1.3125 41.03125 -1.359375 
Q 40.1875 -1.421875 39.40625 -1.421875 
Q 24.03125 -1.421875 14.8125 8.859375 
Q 5.609375 19.140625 5.609375 36.375 
Q 5.609375 53.65625 14.8125 63.9375 
Q 24.03125 74.21875 39.40625 74.21875 
Q 54.734375 74.21875 63.90625 63.9375 
Q 73.09375 53.65625 73.09375 36.375 
Q 73.09375 23.6875 67.984375 14.640625 
Q 62.890625 5.609375 53.21875 1.3125 
" id="BitstreamVeraSans-Roman-51"/>
      <path d="M 9.8125 72.90625 
L 55.90625 72.90625 
L 55.90625 64.59375 
L 19.671875 64.59375 
L 19.671875 43.015625 
L 54.390625 43.015625 
L 54.390625 34.71875 
L 19.671875 34.71875 
L 19.671875 8.296875 
L 56.78125 8.296875 
L 56.78125 0 
L 9.8125 0 
z
" id="BitstreamVeraSans-Roman-45"/>
      <path d="M 19.671875 34.8125 
L 19.671875 8.109375 
L 35.5 8.109375 
Q 43.453125 8.109375 47.28125 11.40625 
Q 51.125 14.703125 51.125 21.484375 
Q 51.125 28.328125 47.28125 31.5625 
Q 43.453125 34.8125 35.5 34.8125 
z
M 19.671875 64.796875 
L 19.671875 42.828125 
L 34.28125 42.828125 
Q 41.5 42.828125 45.03125 45.53125 
Q 48.578125 48.25 48.578125 53.8125 
Q 48.578125 59.328125 45.03125 62.0625 
Q 41.5 64.796875 34.28125 64.796875 
z
M 9.8125 72.90625 
L 35.015625 72.90625 
Q 46.296875 72.90625 52.390625 68.21875 
Q 58.5 63.53125 58.5 54.890625 
Q 58.5 48.1875 55.375 44.234375 
Q 52.25 40.28125 46.1875 39.3125 
Q 53.46875 37.75 57.5 32.78125 
Q 61.53125 27.828125 61.53125 20.40625 
Q 61.53125 10.640625 54.890625 5.3125 
Q 48.25 0 35.984375 0 
L 9.8125 0 
z
" id="BitstreamVeraSans-Roman-42"/>
     </defs>
     <g transform="translate(228.620625 151.019312602)rotate(-90.0)scale(0.12 -0.12)">
      <use xlink:href="#BitstreamVeraSans-Roman-51"/>
      <use x="78.7109375" xlink:href="#BitstreamVeraSans-Roman-42"/>
      <use x="147.314453125" xlink:href="#BitstreamVeraSans-Roman-45"/>
      <use x="210.498046875" xlink:href="#BitstreamVeraSans-Roman-52"/>
     </g>
    </g>
   </g>
  </g>
  <g id="axes_2">
   <g id="patch_7">
    <path d="M 259.2 590.305728 
L 677.412766 590.305728 
L 677.412766 579.935843 
L 259.2 579.935843 
z
" style="fill:#fafad2;"/>
   </g>
   <g id="patch_8">
    <path clip-path="url(#p2ba23bf45d)" d="M 259.2 590.305728 
L 259.2 579.935843 
L 398.604255 579.935843 
L 398.604255 590.305728 
z
" style="fill:#0000ff;stroke:#000000;stroke-linejoin:miter;"/>
   </g>
   <g id="line2d_29">
    <path clip-path="url(#p2ba23bf45d)" d="M 398.604255 590.305728 
L 398.604255 579.935843 
" style="fill:none;stroke:#ff0000;stroke-linecap:square;"/>
   </g>
   <g id="patch_9">
    <path d="M 259.2 579.935843 
L 677.412766 579.935843 
" style="fill:none;stroke:#000000;stroke-linecap:square;stroke-linejoin:miter;"/>
   </g>
   <g id="patch_10">
    <path d="M 677.412766 590.305728 
L 677.412766 579.935843 
" style="fill:none;stroke:#000000;stroke-linecap:square;stroke-linejoin:miter;"/>
   </g>
   <g id="patch_11">
    <path d="M 259.2 590.305728 
L 677.412766 590.305728 
" style="fill:none;stroke:#000000;stroke-linecap:square;stroke-linejoin:miter;"/>
   </g>
   <g id="patch_12">
    <path d="M 259.2 590.305728 
L 259.2 579.935843 
" style="fill:none;stroke:#000000;stroke-linecap:square;stroke-linejoin:miter;"/>
   </g>
   <g id="matplotlib.axis_3"/>
   <g id="matplotlib.axis_4"/>
   <g id="text_15">
    <!-- Coincidence window (ns) -->
    <defs>
     <path id="BitstreamVeraSans-Roman-20"/>
     <path d="M 54.890625 33.015625 
L 54.890625 0 
L 45.90625 0 
L 45.90625 32.71875 
Q 45.90625 40.484375 42.875 44.328125 
Q 39.84375 48.1875 33.796875 48.1875 
Q 26.515625 48.1875 22.3125 43.546875 
Q 18.109375 38.921875 18.109375 30.90625 
L 18.109375 0 
L 9.078125 0 
L 9.078125 54.6875 
L 18.109375 54.6875 
L 18.109375 46.1875 
Q 21.34375 51.125 25.703125 53.5625 
Q 30.078125 56 35.796875 56 
Q 45.21875 56 50.046875 50.171875 
Q 54.890625 44.34375 54.890625 33.015625 
" id="BitstreamVeraSans-Roman-6e"/>
     <path d="M 31 75.875 
Q 24.46875 64.65625 21.28125 53.65625 
Q 18.109375 42.671875 18.109375 31.390625 
Q 18.109375 20.125 21.3125 9.0625 
Q 24.515625 -2 31 -13.1875 
L 23.1875 -13.1875 
Q 15.875 -1.703125 12.234375 9.375 
Q 8.59375 20.453125 8.59375 31.390625 
Q 8.59375 42.28125 12.203125 53.3125 
Q 15.828125 64.359375 23.1875 75.875 
z
" id="BitstreamVeraSans-Roman-28"/>
     <path d="M 30.609375 48.390625 
Q 23.390625 48.390625 19.1875 42.75 
Q 14.984375 37.109375 14.984375 27.296875 
Q 14.984375 17.484375 19.15625 11.84375 
Q 23.34375 6.203125 30.609375 6.203125 
Q 37.796875 6.203125 41.984375 11.859375 
Q 46.1875 17.53125 46.1875 27.296875 
Q 46.1875 37.015625 41.984375 42.703125 
Q 37.796875 48.390625 30.609375 48.390625 
M 30.609375 56 
Q 42.328125 56 49.015625 48.375 
Q 55.71875 40.765625 55.71875 27.296875 
Q 55.71875 13.875 49.015625 6.21875 
Q 42.328125 -1.421875 30.609375 -1.421875 
Q 18.84375 -1.421875 12.171875 6.21875 
Q 5.515625 13.875 5.515625 27.296875 
Q 5.515625 40.765625 12.171875 48.375 
Q 18.84375 56 30.609375 56 
" id="BitstreamVeraSans-Roman-6f"/>
     <path d="M 4.203125 54.6875 
L 13.1875 54.6875 
L 24.421875 12.015625 
L 35.59375 54.6875 
L 46.1875 54.6875 
L 57.421875 12.015625 
L 68.609375 54.6875 
L 77.59375 54.6875 
L 63.28125 0 
L 52.6875 0 
L 40.921875 44.828125 
L 29.109375 0 
L 18.5 0 
z
" id="BitstreamVeraSans-Roman-77"/>
     <path d="M 8.015625 75.875 
L 15.828125 75.875 
Q 23.140625 64.359375 26.78125 53.3125 
Q 30.421875 42.28125 30.421875 31.390625 
Q 30.421875 20.453125 26.78125 9.375 
Q 23.140625 -1.703125 15.828125 -13.1875 
L 8.015625 -13.1875 
Q 14.5 -2 17.703125 9.0625 
Q 20.90625 20.125 20.90625 31.390625 
Q 20.90625 42.671875 17.703125 53.65625 
Q 14.5 64.65625 8.015625 75.875 
" id="BitstreamVeraSans-Roman-29"/>
     <path d="M 9.421875 54.6875 
L 18.40625 54.6875 
L 18.40625 0 
L 9.421875 0 
z
M 9.421875 75.984375 
L 18.40625 75.984375 
L 18.40625 64.59375 
L 9.421875 64.59375 
z
" id="BitstreamVeraSans-Roman-69"/>
     <path d="M 45.40625 46.390625 
L 45.40625 75.984375 
L 54.390625 75.984375 
L 54.390625 0 
L 45.40625 0 
L 45.40625 8.203125 
Q 42.578125 3.328125 38.25 0.953125 
Q 33.9375 -1.421875 27.875 -1.421875 
Q 17.96875 -1.421875 11.734375 6.484375 
Q 5.515625 14.40625 5.515625 27.296875 
Q 5.515625 40.1875 11.734375 48.09375 
Q 17.96875 56 27.875 56 
Q 33.9375 56 38.25 53.625 
Q 42.578125 51.265625 45.40625 46.390625 
M 14.796875 27.296875 
Q 14.796875 17.390625 18.875 11.75 
Q 22.953125 6.109375 30.078125 6.109375 
Q 37.203125 6.109375 41.296875 11.75 
Q 45.40625 17.390625 45.40625 27.296875 
Q 45.40625 37.203125 41.296875 42.84375 
Q 37.203125 48.484375 30.078125 48.484375 
Q 22.953125 48.484375 18.875 42.84375 
Q 14.796875 37.203125 14.796875 27.296875 
" id="BitstreamVeraSans-Roman-64"/>
     <path d="M 56.203125 29.59375 
L 56.203125 25.203125 
L 14.890625 25.203125 
Q 15.484375 15.921875 20.484375 11.0625 
Q 25.484375 6.203125 34.421875 6.203125 
Q 39.59375 6.203125 44.453125 7.46875 
Q 49.3125 8.734375 54.109375 11.28125 
L 54.109375 2.78125 
Q 49.265625 0.734375 44.1875 -0.34375 
Q 39.109375 -1.421875 33.890625 -1.421875 
Q 20.796875 -1.421875 13.15625 6.1875 
Q 5.515625 13.8125 5.515625 26.8125 
Q 5.515625 40.234375 12.765625 48.109375 
Q 20.015625 56 32.328125 56 
Q 43.359375 56 49.78125 48.890625 
Q 56.203125 41.796875 56.203125 29.59375 
M 47.21875 32.234375 
Q 47.125 39.59375 43.09375 43.984375 
Q 39.0625 48.390625 32.421875 48.390625 
Q 24.90625 48.390625 20.390625 44.140625 
Q 15.875 39.890625 15.1875 32.171875 
z
" id="BitstreamVeraSans-Roman-65"/>
     <path d="M 64.40625 67.28125 
L 64.40625 56.890625 
Q 59.421875 61.53125 53.78125 63.8125 
Q 48.140625 66.109375 41.796875 66.109375 
Q 29.296875 66.109375 22.65625 58.46875 
Q 16.015625 50.828125 16.015625 36.375 
Q 16.015625 21.96875 22.65625 14.328125 
Q 29.296875 6.6875 41.796875 6.6875 
Q 48.140625 6.6875 53.78125 8.984375 
Q 59.421875 11.28125 64.40625 15.921875 
L 64.40625 5.609375 
Q 59.234375 2.09375 53.4375 0.328125 
Q 47.65625 -1.421875 41.21875 -1.421875 
Q 24.65625 -1.421875 15.125 8.703125 
Q 5.609375 18.84375 5.609375 36.375 
Q 5.609375 53.953125 15.125 64.078125 
Q 24.65625 74.21875 41.21875 74.21875 
Q 47.75 74.21875 53.53125 72.484375 
Q 59.328125 70.75 64.40625 67.28125 
" id="BitstreamVeraSans-Roman-43"/>
     <path d="M 44.28125 53.078125 
L 44.28125 44.578125 
Q 40.484375 46.53125 36.375 47.5 
Q 32.28125 48.484375 27.875 48.484375 
Q 21.1875 48.484375 17.84375 46.4375 
Q 14.5 44.390625 14.5 40.28125 
Q 14.5 37.15625 16.890625 35.375 
Q 19.28125 33.59375 26.515625 31.984375 
L 29.59375 31.296875 
Q 39.15625 29.25 43.1875 25.515625 
Q 47.21875 21.78125 47.21875 15.09375 
Q 47.21875 7.46875 41.1875 3.015625 
Q 35.15625 -1.421875 24.609375 -1.421875 
Q 20.21875 -1.421875 15.453125 -0.5625 
Q 10.6875 0.296875 5.421875 2 
L 5.421875 11.28125 
Q 10.40625 8.6875 15.234375 7.390625 
Q 20.0625 6.109375 24.8125 6.109375 
Q 31.15625 6.109375 34.5625 8.28125 
Q 37.984375 10.453125 37.984375 14.40625 
Q 37.984375 18.0625 35.515625 20.015625 
Q 33.0625 21.96875 24.703125 23.78125 
L 21.578125 24.515625 
Q 13.234375 26.265625 9.515625 29.90625 
Q 5.8125 33.546875 5.8125 39.890625 
Q 5.8125 47.609375 11.28125 51.796875 
Q 16.75 56 26.8125 56 
Q 31.78125 56 36.171875 55.265625 
Q 40.578125 54.546875 44.28125 53.078125 
" id="BitstreamVeraSans-Roman-73"/>
     <path d="M 48.78125 52.59375 
L 48.78125 44.1875 
Q 44.96875 46.296875 41.140625 47.34375 
Q 37.3125 48.390625 33.40625 48.390625 
Q 24.65625 48.390625 19.8125 42.84375 
Q 14.984375 37.3125 14.984375 27.296875 
Q 14.984375 17.28125 19.8125 11.734375 
Q 24.65625 6.203125 33.40625 6.203125 
Q 37.3125 6.203125 41.140625 7.25 
Q 44.96875 8.296875 48.78125 10.40625 
L 48.78125 2.09375 
Q 45.015625 0.34375 40.984375 -0.53125 
Q 36.96875 -1.421875 32.421875 -1.421875 
Q 20.0625 -1.421875 12.78125 6.34375 
Q 5.515625 14.109375 5.515625 27.296875 
Q 5.515625 40.671875 12.859375 48.328125 
Q 20.21875 56 33.015625 56 
Q 37.15625 56 41.109375 55.140625 
Q 45.0625 54.296875 48.78125 52.59375 
" id="BitstreamVeraSans-Roman-63"/>
    </defs>
    <g transform="translate(101.280119681 588.432035597)scale(0.12 -0.12)">
     <use xlink:href="#BitstreamVeraSans-Roman-43"/>
     <use x="69.82421875" xlink:href="#BitstreamVeraSans-Roman-6f"/>
     <use x="131.005859375" xlink:href="#BitstreamVeraSans-Roman-69"/>
     <use x="158.7890625" xlink:href="#BitstreamVeraSans-Roman-6e"/>
     <use x="222.16796875" xlink:href="#BitstreamVeraSans-Roman-63"/>
     <use x="277.1484375" xlink:href="#BitstreamVeraSans-Roman-69"/>
     <use x="304.931640625" xlink:href="#BitstreamVeraSans-Roman-64"/>
     <use x="368.408203125" xlink:href="#BitstreamVeraSans-Roman-65"/>
     <use x="429.931640625" xlink:href="#BitstreamVeraSans-Roman-6e"/>
     <use x="493.310546875" xlink:href="#BitstreamVeraSans-Roman-63"/>
     <use x="548.291015625" xlink:href="#BitstreamVeraSans-Roman-65"/>
     <use x="609.814453125" xlink:href="#BitstreamVeraSans-Roman-20"/>
     <use x="641.6015625" xlink:href="#BitstreamVeraSans-Roman-77"/>
     <use x="723.388671875" xlink:href="#BitstreamVeraSans-Roman-69"/>
     <use x="751.171875" xlink:href="#BitstreamVeraSans-Roman-6e"/>
     <use x="814.55078125" xlink:href="#BitstreamVeraSans-Roman-64"/>
     <use x="878.02734375" xlink:href="#BitstreamVeraSans-Roman-6f"/>
     <use x="939.208984375" xlink:href="#BitstreamVeraSans-Roman-77"/>
     <use x="1020.99609375" xlink:href="#BitstreamVeraSans-Roman-20"/>
     <use x="1052.78320312" xlink:href="#BitstreamVeraSans-Roman-28"/>
     <use x="1091.796875" xlink:href="#BitstreamVeraSans-Roman-6e"/>
     <use x="1155.17578125" xlink:href="#BitstreamVeraSans-Roman-73"/>
     <use x="1207.27539062" xlink:href="#BitstreamVeraSans-Roman-29"/>
    </g>
   </g>
   <g id="text_16">
    <!-- 2.00 -->
    <g transform="translate(685.777021277 588.432035597)scale(0.12 -0.12)">
     <use xlink:href="#BitstreamVeraSans-Roman-32"/>
     <use x="63.623046875" xlink:href="#BitstreamVeraSans-Roman-2e"/>
     <use x="95.41015625" xlink:href="#BitstreamVeraSans-Roman-30"/>
     <use x="159.033203125" xlink:href="#BitstreamVeraSans-Roman-30"/>
    </g>
   </g>
  </g>
  <g id="axes_3">
   <g id="patch_13">
    <path d="M 259.2 571.074304 
L 677.412766 571.074304 
L 677.412766 560.704419 
L 259.2 560.704419 
z
" style="fill:#fafad2;"/>
   </g>
   <g id="patch_14">
    <path clip-path="url(#pec41a7a42f)" d="M 259.2 571.074304 
L 259.2 560.704419 
L 279.371205 560.704419 
L 279.371205 571.074304 
z
" style="fill:#0000ff;stroke:#000000;stroke-linejoin:miter;"/>
   </g>
   <g id="line2d_30">
    <path clip-path="url(#pec41a7a42f)" d="M 279.371205 571.074304 
L 279.371205 560.704419 
" style="fill:none;stroke:#ff0000;stroke-linecap:square;"/>
   </g>
   <g id="patch_15">
    <path d="M 259.2 560.704419 
L 677.412766 560.704419 
" style="fill:none;stroke:#000000;stroke-linecap:square;stroke-linejoin:miter;"/>
   </g>
   <g id="patch_16">
    <path d="M 677.412766 571.074304 
L 677.412766 560.704419 
" style="fill:none;stroke:#000000;stroke-linecap:square;stroke-linejoin:miter;"/>
   </g>
   <g id="patch_17">
    <path d="M 259.2 571.074304 
L 677.412766 571.074304 
" style="fill:none;stroke:#000000;stroke-linecap:square;stroke-linejoin:miter;"/>
   </g>
   <g id="patch_18">
    <path d="M 259.2 571.074304 
L 259.2 560.704419 
" style="fill:none;stroke:#000000;stroke-linecap:square;stroke-linejoin:miter;"/>
   </g>
   <g id="matplotlib.axis_5"/>
   <g id="matplotlib.axis_6"/>
   <g id="text_17">
    <!-- Dark count rate at each side -->
    <defs>
     <path d="M 34.28125 27.484375 
Q 23.390625 27.484375 19.1875 25 
Q 14.984375 22.515625 14.984375 16.5 
Q 14.984375 11.71875 18.140625 8.90625 
Q 21.296875 6.109375 26.703125 6.109375 
Q 34.1875 6.109375 38.703125 11.40625 
Q 43.21875 16.703125 43.21875 25.484375 
L 43.21875 27.484375 
z
M 52.203125 31.203125 
L 52.203125 0 
L 43.21875 0 
L 43.21875 8.296875 
Q 40.140625 3.328125 35.546875 0.953125 
Q 30.953125 -1.421875 24.3125 -1.421875 
Q 15.921875 -1.421875 10.953125 3.296875 
Q 6 8.015625 6 15.921875 
Q 6 25.140625 12.171875 29.828125 
Q 18.359375 34.515625 30.609375 34.515625 
L 43.21875 34.515625 
L 43.21875 35.40625 
Q 43.21875 41.609375 39.140625 45 
Q 35.0625 48.390625 27.6875 48.390625 
Q 23 48.390625 18.546875 47.265625 
Q 14.109375 46.140625 10.015625 43.890625 
L 10.015625 52.203125 
Q 14.9375 54.109375 19.578125 55.046875 
Q 24.21875 56 28.609375 56 
Q 40.484375 56 46.34375 49.84375 
Q 52.203125 43.703125 52.203125 31.203125 
" id="BitstreamVeraSans-Roman-61"/>
     <path d="M 9.078125 75.984375 
L 18.109375 75.984375 
L 18.109375 31.109375 
L 44.921875 54.6875 
L 56.390625 54.6875 
L 27.390625 29.109375 
L 57.625 0 
L 45.90625 0 
L 18.109375 26.703125 
L 18.109375 0 
L 9.078125 0 
z
" id="BitstreamVeraSans-Roman-6b"/>
     <path d="M 19.671875 64.796875 
L 19.671875 8.109375 
L 31.59375 8.109375 
Q 46.6875 8.109375 53.6875 14.9375 
Q 60.6875 21.78125 60.6875 36.53125 
Q 60.6875 51.171875 53.6875 57.984375 
Q 46.6875 64.796875 31.59375 64.796875 
z
M 9.8125 72.90625 
L 30.078125 72.90625 
Q 51.265625 72.90625 61.171875 64.09375 
Q 71.09375 55.28125 71.09375 36.53125 
Q 71.09375 17.671875 61.125 8.828125 
Q 51.171875 0 30.078125 0 
L 9.8125 0 
z
" id="BitstreamVeraSans-Roman-44"/>
     <path d="M 54.890625 33.015625 
L 54.890625 0 
L 45.90625 0 
L 45.90625 32.71875 
Q 45.90625 40.484375 42.875 44.328125 
Q 39.84375 48.1875 33.796875 48.1875 
Q 26.515625 48.1875 22.3125 43.546875 
Q 18.109375 38.921875 18.109375 30.90625 
L 18.109375 0 
L 9.078125 0 
L 9.078125 75.984375 
L 18.109375 75.984375 
L 18.109375 46.1875 
Q 21.34375 51.125 25.703125 53.5625 
Q 30.078125 56 35.796875 56 
Q 45.21875 56 50.046875 50.171875 
Q 54.890625 44.34375 54.890625 33.015625 
" id="BitstreamVeraSans-Roman-68"/>
     <path d="M 18.3125 70.21875 
L 18.3125 54.6875 
L 36.8125 54.6875 
L 36.8125 47.703125 
L 18.3125 47.703125 
L 18.3125 18.015625 
Q 18.3125 11.328125 20.140625 9.421875 
Q 21.96875 7.515625 27.59375 7.515625 
L 36.8125 7.515625 
L 36.8125 0 
L 27.59375 0 
Q 17.1875 0 13.234375 3.875 
Q 9.28125 7.765625 9.28125 18.015625 
L 9.28125 47.703125 
L 2.6875 47.703125 
L 2.6875 54.6875 
L 9.28125 54.6875 
L 9.28125 70.21875 
z
" id="BitstreamVeraSans-Roman-74"/>
     <path d="M 8.5 21.578125 
L 8.5 54.6875 
L 17.484375 54.6875 
L 17.484375 21.921875 
Q 17.484375 14.15625 20.5 10.265625 
Q 23.53125 6.390625 29.59375 6.390625 
Q 36.859375 6.390625 41.078125 11.03125 
Q 45.3125 15.671875 45.3125 23.6875 
L 45.3125 54.6875 
L 54.296875 54.6875 
L 54.296875 0 
L 45.3125 0 
L 45.3125 8.40625 
Q 42.046875 3.421875 37.71875 1 
Q 33.40625 -1.421875 27.6875 -1.421875 
Q 18.265625 -1.421875 13.375 4.4375 
Q 8.5 10.296875 8.5 21.578125 
" id="BitstreamVeraSans-Roman-75"/>
     <path d="M 41.109375 46.296875 
Q 39.59375 47.171875 37.8125 47.578125 
Q 36.03125 48 33.890625 48 
Q 26.265625 48 22.1875 43.046875 
Q 18.109375 38.09375 18.109375 28.8125 
L 18.109375 0 
L 9.078125 0 
L 9.078125 54.6875 
L 18.109375 54.6875 
L 18.109375 46.1875 
Q 20.953125 51.171875 25.484375 53.578125 
Q 30.03125 56 36.53125 56 
Q 37.453125 56 38.578125 55.875 
Q 39.703125 55.765625 41.0625 55.515625 
z
" id="BitstreamVeraSans-Roman-72"/>
    </defs>
    <g transform="translate(79.4757446809 569.200611702)scale(0.12 -0.12)">
     <use xlink:href="#BitstreamVeraSans-Roman-44"/>
     <use x="77.001953125" xlink:href="#BitstreamVeraSans-Roman-61"/>
     <use x="138.28125" xlink:href="#BitstreamVeraSans-Roman-72"/>
     <use x="179.39453125" xlink:href="#BitstreamVeraSans-Roman-6b"/>
     <use x="237.3046875" xlink:href="#BitstreamVeraSans-Roman-20"/>
     <use x="269.091796875" xlink:href="#BitstreamVeraSans-Roman-63"/>
     <use x="324.072265625" xlink:href="#BitstreamVeraSans-Roman-6f"/>
     <use x="385.25390625" xlink:href="#BitstreamVeraSans-Roman-75"/>
     <use x="448.6328125" xlink:href="#BitstreamVeraSans-Roman-6e"/>
     <use x="512.01171875" xlink:href="#BitstreamVeraSans-Roman-74"/>
     <use x="551.220703125" xlink:href="#BitstreamVeraSans-Roman-20"/>
     <use x="583.0078125" xlink:href="#BitstreamVeraSans-Roman-72"/>
     <use x="624.12109375" xlink:href="#BitstreamVeraSans-Roman-61"/>
     <use x="685.400390625" xlink:href="#BitstreamVeraSans-Roman-74"/>
     <use x="724.609375" xlink:href="#BitstreamVeraSans-Roman-65"/>
     <use x="786.1328125" xlink:href="#BitstreamVeraSans-Roman-20"/>
     <use x="817.919921875" xlink:href="#BitstreamVeraSans-Roman-61"/>
     <use x="879.19921875" xlink:href="#BitstreamVeraSans-Roman-74"/>
     <use x="918.408203125" xlink:href="#BitstreamVeraSans-Roman-20"/>
     <use x="950.1953125" xlink:href="#BitstreamVeraSans-Roman-65"/>
     <use x="1011.71875" xlink:href="#BitstreamVeraSans-Roman-61"/>
     <use x="1072.99804688" xlink:href="#BitstreamVeraSans-Roman-63"/>
     <use x="1127.97851562" xlink:href="#BitstreamVeraSans-Roman-68"/>
     <use x="1191.35742188" xlink:href="#BitstreamVeraSans-Roman-20"/>
     <use x="1223.14453125" xlink:href="#BitstreamVeraSans-Roman-73"/>
     <use x="1275.24414062" xlink:href="#BitstreamVeraSans-Roman-69"/>
     <use x="1303.02734375" xlink:href="#BitstreamVeraSans-Roman-64"/>
     <use x="1366.50390625" xlink:href="#BitstreamVeraSans-Roman-65"/>
    </g>
   </g>
   <g id="text_18">
    <!-- 19292.77 -->
    <defs>
     <path d="M 10.984375 1.515625 
L 10.984375 10.5 
Q 14.703125 8.734375 18.5 7.8125 
Q 22.3125 6.890625 25.984375 6.890625 
Q 35.75 6.890625 40.890625 13.453125 
Q 46.046875 20.015625 46.78125 33.40625 
Q 43.953125 29.203125 39.59375 26.953125 
Q 35.25 24.703125 29.984375 24.703125 
Q 19.046875 24.703125 12.671875 31.3125 
Q 6.296875 37.9375 6.296875 49.421875 
Q 6.296875 60.640625 12.9375 67.421875 
Q 19.578125 74.21875 30.609375 74.21875 
Q 43.265625 74.21875 49.921875 64.515625 
Q 56.59375 54.828125 56.59375 36.375 
Q 56.59375 19.140625 48.40625 8.859375 
Q 40.234375 -1.421875 26.421875 -1.421875 
Q 22.703125 -1.421875 18.890625 -0.6875 
Q 15.09375 0.046875 10.984375 1.515625 
M 30.609375 32.421875 
Q 37.25 32.421875 41.125 36.953125 
Q 45.015625 41.5 45.015625 49.421875 
Q 45.015625 57.28125 41.125 61.84375 
Q 37.25 66.40625 30.609375 66.40625 
Q 23.96875 66.40625 20.09375 61.84375 
Q 16.21875 57.28125 16.21875 49.421875 
Q 16.21875 41.5 20.09375 36.953125 
Q 23.96875 32.421875 30.609375 32.421875 
" id="BitstreamVeraSans-Roman-39"/>
     <path d="M 8.203125 72.90625 
L 55.078125 72.90625 
L 55.078125 68.703125 
L 28.609375 0 
L 18.3125 0 
L 43.21875 64.59375 
L 8.203125 64.59375 
z
" id="BitstreamVeraSans-Roman-37"/>
    </defs>
    <g transform="translate(685.777021277 569.200611702)scale(0.12 -0.12)">
     <use xlink:href="#BitstreamVeraSans-Roman-31"/>
     <use x="63.623046875" xlink:href="#BitstreamVeraSans-Roman-39"/>
     <use x="127.24609375" xlink:href="#BitstreamVeraSans-Roman-32"/>
     <use x="190.869140625" xlink:href="#BitstreamVeraSans-Roman-39"/>
     <use x="254.4921875" xlink:href="#BitstreamVeraSans-Roman-32"/>
     <use x="318.115234375" xlink:href="#BitstreamVeraSans-Roman-2e"/>
     <use x="349.90234375" xlink:href="#BitstreamVeraSans-Roman-37"/>
     <use x="413.525390625" xlink:href="#BitstreamVeraSans-Roman-37"/>
    </g>
   </g>
  </g>
  <g id="axes_4">
   <g id="patch_19">
    <path d="M 259.2 628.768576 
L 677.412766 628.768576 
L 677.412766 618.398691 
L 259.2 618.398691 
z
" style="fill:#fafad2;"/>
   </g>
   <g id="patch_20">
    <path clip-path="url(#pfc3510ed02)" d="M 259.2 628.768576 
L 259.2 618.398691 
L 468.306383 618.398691 
L 468.306383 628.768576 
z
" style="fill:#0000ff;stroke:#000000;stroke-linejoin:miter;"/>
   </g>
   <g id="line2d_31">
    <path clip-path="url(#pfc3510ed02)" d="M 468.306383 628.768576 
L 468.306383 618.398691 
" style="fill:none;stroke:#ff0000;stroke-linecap:square;"/>
   </g>
   <g id="patch_21">
    <path d="M 259.2 618.398691 
L 677.412766 618.398691 
" style="fill:none;stroke:#000000;stroke-linecap:square;stroke-linejoin:miter;"/>
   </g>
   <g id="patch_22">
    <path d="M 677.412766 628.768576 
L 677.412766 618.398691 
" style="fill:none;stroke:#000000;stroke-linecap:square;stroke-linejoin:miter;"/>
   </g>
   <g id="patch_23">
    <path d="M 259.2 628.768576 
L 677.412766 628.768576 
" style="fill:none;stroke:#000000;stroke-linecap:square;stroke-linejoin:miter;"/>
   </g>
   <g id="patch_24">
    <path d="M 259.2 628.768576 
L 259.2 618.398691 
" style="fill:none;stroke:#000000;stroke-linecap:square;stroke-linejoin:miter;"/>
   </g>
   <g id="matplotlib.axis_7"/>
   <g id="matplotlib.axis_8"/>
   <g id="text_19">
    <!-- Entengled pair generation rate -->
    <defs>
     <path d="M 45.40625 27.984375 
Q 45.40625 37.75 41.375 43.109375 
Q 37.359375 48.484375 30.078125 48.484375 
Q 22.859375 48.484375 18.828125 43.109375 
Q 14.796875 37.75 14.796875 27.984375 
Q 14.796875 18.265625 18.828125 12.890625 
Q 22.859375 7.515625 30.078125 7.515625 
Q 37.359375 7.515625 41.375 12.890625 
Q 45.40625 18.265625 45.40625 27.984375 
M 54.390625 6.78125 
Q 54.390625 -7.171875 48.1875 -13.984375 
Q 42 -20.796875 29.203125 -20.796875 
Q 24.46875 -20.796875 20.265625 -20.09375 
Q 16.0625 -19.390625 12.109375 -17.921875 
L 12.109375 -9.1875 
Q 16.0625 -11.328125 19.921875 -12.34375 
Q 23.78125 -13.375 27.78125 -13.375 
Q 36.625 -13.375 41.015625 -8.765625 
Q 45.40625 -4.15625 45.40625 5.171875 
L 45.40625 9.625 
Q 42.625 4.78125 38.28125 2.390625 
Q 33.9375 0 27.875 0 
Q 17.828125 0 11.671875 7.65625 
Q 5.515625 15.328125 5.515625 27.984375 
Q 5.515625 40.671875 11.671875 48.328125 
Q 17.828125 56 27.875 56 
Q 33.9375 56 38.28125 53.609375 
Q 42.625 51.21875 45.40625 46.390625 
L 45.40625 54.6875 
L 54.390625 54.6875 
z
" id="BitstreamVeraSans-Roman-67"/>
     <path d="M 18.109375 8.203125 
L 18.109375 -20.796875 
L 9.078125 -20.796875 
L 9.078125 54.6875 
L 18.109375 54.6875 
L 18.109375 46.390625 
Q 20.953125 51.265625 25.265625 53.625 
Q 29.59375 56 35.59375 56 
Q 45.5625 56 51.78125 48.09375 
Q 58.015625 40.1875 58.015625 27.296875 
Q 58.015625 14.40625 51.78125 6.484375 
Q 45.5625 -1.421875 35.59375 -1.421875 
Q 29.59375 -1.421875 25.265625 0.953125 
Q 20.953125 3.328125 18.109375 8.203125 
M 48.6875 27.296875 
Q 48.6875 37.203125 44.609375 42.84375 
Q 40.53125 48.484375 33.40625 48.484375 
Q 26.265625 48.484375 22.1875 42.84375 
Q 18.109375 37.203125 18.109375 27.296875 
Q 18.109375 17.390625 22.1875 11.75 
Q 26.265625 6.109375 33.40625 6.109375 
Q 40.53125 6.109375 44.609375 11.75 
Q 48.6875 17.390625 48.6875 27.296875 
" id="BitstreamVeraSans-Roman-70"/>
     <path d="M 9.421875 75.984375 
L 18.40625 75.984375 
L 18.40625 0 
L 9.421875 0 
z
" id="BitstreamVeraSans-Roman-6c"/>
    </defs>
    <g transform="translate(65.6832446809 626.894883388)scale(0.12 -0.12)">
     <use xlink:href="#BitstreamVeraSans-Roman-45"/>
     <use x="63.18359375" xlink:href="#BitstreamVeraSans-Roman-6e"/>
     <use x="126.5625" xlink:href="#BitstreamVeraSans-Roman-74"/>
     <use x="165.771484375" xlink:href="#BitstreamVeraSans-Roman-65"/>
     <use x="227.294921875" xlink:href="#BitstreamVeraSans-Roman-6e"/>
     <use x="290.673828125" xlink:href="#BitstreamVeraSans-Roman-67"/>
     <use x="354.150390625" xlink:href="#BitstreamVeraSans-Roman-6c"/>
     <use x="381.93359375" xlink:href="#BitstreamVeraSans-Roman-65"/>
     <use x="443.45703125" xlink:href="#BitstreamVeraSans-Roman-64"/>
     <use x="506.93359375" xlink:href="#BitstreamVeraSans-Roman-20"/>
     <use x="538.720703125" xlink:href="#BitstreamVeraSans-Roman-70"/>
     <use x="602.197265625" xlink:href="#BitstreamVeraSans-Roman-61"/>
     <use x="663.4765625" xlink:href="#BitstreamVeraSans-Roman-69"/>
     <use x="691.259765625" xlink:href="#BitstreamVeraSans-Roman-72"/>
     <use x="732.373046875" xlink:href="#BitstreamVeraSans-Roman-20"/>
     <use x="764.16015625" xlink:href="#BitstreamVeraSans-Roman-67"/>
     <use x="827.63671875" xlink:href="#BitstreamVeraSans-Roman-65"/>
     <use x="889.16015625" xlink:href="#BitstreamVeraSans-Roman-6e"/>
     <use x="952.5390625" xlink:href="#BitstreamVeraSans-Roman-65"/>
     <use x="1014.0625" xlink:href="#BitstreamVeraSans-Roman-72"/>
     <use x="1055.17578125" xlink:href="#BitstreamVeraSans-Roman-61"/>
     <use x="1116.45507812" xlink:href="#BitstreamVeraSans-Roman-74"/>
     <use x="1155.6640625" xlink:href="#BitstreamVeraSans-Roman-69"/>
     <use x="1183.44726562" xlink:href="#BitstreamVeraSans-Roman-6f"/>
     <use x="1244.62890625" xlink:href="#BitstreamVeraSans-Roman-6e"/>
     <use x="1308.0078125" xlink:href="#BitstreamVeraSans-Roman-20"/>
     <use x="1339.79492188" xlink:href="#BitstreamVeraSans-Roman-72"/>
     <use x="1380.90820312" xlink:href="#BitstreamVeraSans-Roman-61"/>
     <use x="1442.1875" xlink:href="#BitstreamVeraSans-Roman-74"/>
     <use x="1481.39648438" xlink:href="#BitstreamVeraSans-Roman-65"/>
    </g>
   </g>
   <g id="text_20">
    <!-- 1000000.00 -->
    <g transform="translate(685.777021277 626.894883388)scale(0.12 -0.12)">
     <use xlink:href="#BitstreamVeraSans-Roman-31"/>
     <use x="63.623046875" xlink:href="#BitstreamVeraSans-Roman-30"/>
     <use x="127.24609375" xlink:href="#BitstreamVeraSans-Roman-30"/>
     <use x="190.869140625" xlink:href="#BitstreamVeraSans-Roman-30"/>
     <use x="254.4921875" xlink:href="#BitstreamVeraSans-Roman-30"/>
     <use x="318.115234375" xlink:href="#BitstreamVeraSans-Roman-30"/>
     <use x="381.73828125" xlink:href="#BitstreamVeraSans-Roman-30"/>
     <use x="445.361328125" xlink:href="#BitstreamVeraSans-Roman-2e"/>
     <use x="477.1484375" xlink:href="#BitstreamVeraSans-Roman-30"/>
     <use x="540.771484375" xlink:href="#BitstreamVeraSans-Roman-30"/>
    </g>
   </g>
  </g>
  <g id="axes_5">
   <g id="patch_25">
    <path d="M 259.2 648 
L 677.412766 648 
L 677.412766 637.630115 
L 259.2 637.630115 
z
" style="fill:#fafad2;"/>
   </g>
   <g id="patch_26">
    <path clip-path="url(#p57a06f05bc)" d="M 259.2 648 
L 259.2 637.630115 
L 497.259574 637.630115 
L 497.259574 648 
z
" style="fill:#0000ff;stroke:#000000;stroke-linejoin:miter;"/>
   </g>
   <g id="line2d_32">
    <path clip-path="url(#p57a06f05bc)" d="M 497.259574 648 
L 497.259574 637.630115 
" style="fill:none;stroke:#ff0000;stroke-linecap:square;"/>
   </g>
   <g id="patch_27">
    <path d="M 259.2 637.630115 
L 677.412766 637.630115 
" style="fill:none;stroke:#000000;stroke-linecap:square;stroke-linejoin:miter;"/>
   </g>
   <g id="patch_28">
    <path d="M 677.412766 648 
L 677.412766 637.630115 
" style="fill:none;stroke:#000000;stroke-linecap:square;stroke-linejoin:miter;"/>
   </g>
   <g id="patch_29">
    <path d="M 259.2 648 
L 677.412766 648 
" style="fill:none;stroke:#000000;stroke-linecap:square;stroke-linejoin:miter;"/>
   </g>
   <g id="patch_30">
    <path d="M 259.2 648 
L 259.2 637.630115 
" style="fill:none;stroke:#000000;stroke-linecap:square;stroke-linejoin:miter;"/>
   </g>
   <g id="matplotlib.axis_9"/>
   <g id="matplotlib.axis_10"/>
   <g id="text_21">
    <!-- Detector temperature (C)  -->
    <defs>
     <path d="M 52 44.1875 
Q 55.375 50.25 60.0625 53.125 
Q 64.75 56 71.09375 56 
Q 79.640625 56 84.28125 50.015625 
Q 88.921875 44.046875 88.921875 33.015625 
L 88.921875 0 
L 79.890625 0 
L 79.890625 32.71875 
Q 79.890625 40.578125 77.09375 44.375 
Q 74.3125 48.1875 68.609375 48.1875 
Q 61.625 48.1875 57.5625 43.546875 
Q 53.515625 38.921875 53.515625 30.90625 
L 53.515625 0 
L 44.484375 0 
L 44.484375 32.71875 
Q 44.484375 40.625 41.703125 44.40625 
Q 38.921875 48.1875 33.109375 48.1875 
Q 26.21875 48.1875 22.15625 43.53125 
Q 18.109375 38.875 18.109375 30.90625 
L 18.109375 0 
L 9.078125 0 
L 9.078125 54.6875 
L 18.109375 54.6875 
L 18.109375 46.1875 
Q 21.1875 51.21875 25.484375 53.609375 
Q 29.78125 56 35.6875 56 
Q 41.65625 56 45.828125 52.96875 
Q 50 49.953125 52 44.1875 
" id="BitstreamVeraSans-Roman-6d"/>
    </defs>
    <g transform="translate(93.6732446809 646.126307283)scale(0.12 -0.12)">
     <use xlink:href="#BitstreamVeraSans-Roman-44"/>
     <use x="77.001953125" xlink:href="#BitstreamVeraSans-Roman-65"/>
     <use x="138.525390625" xlink:href="#BitstreamVeraSans-Roman-74"/>
     <use x="177.734375" xlink:href="#BitstreamVeraSans-Roman-65"/>
     <use x="239.2578125" xlink:href="#BitstreamVeraSans-Roman-63"/>
     <use x="294.23828125" xlink:href="#BitstreamVeraSans-Roman-74"/>
     <use x="333.447265625" xlink:href="#BitstreamVeraSans-Roman-6f"/>
     <use x="394.62890625" xlink:href="#BitstreamVeraSans-Roman-72"/>
     <use x="435.7421875" xlink:href="#BitstreamVeraSans-Roman-20"/>
     <use x="467.529296875" xlink:href="#BitstreamVeraSans-Roman-74"/>
     <use x="506.73828125" xlink:href="#BitstreamVeraSans-Roman-65"/>
     <use x="568.26171875" xlink:href="#BitstreamVeraSans-Roman-6d"/>
     <use x="665.673828125" xlink:href="#BitstreamVeraSans-Roman-70"/>
     <use x="729.150390625" xlink:href="#BitstreamVeraSans-Roman-65"/>
     <use x="790.673828125" xlink:href="#BitstreamVeraSans-Roman-72"/>
     <use x="831.787109375" xlink:href="#BitstreamVeraSans-Roman-61"/>
     <use x="893.06640625" xlink:href="#BitstreamVeraSans-Roman-74"/>
     <use x="932.275390625" xlink:href="#BitstreamVeraSans-Roman-75"/>
     <use x="995.654296875" xlink:href="#BitstreamVeraSans-Roman-72"/>
     <use x="1036.73632812" xlink:href="#BitstreamVeraSans-Roman-65"/>
     <use x="1098.25976562" xlink:href="#BitstreamVeraSans-Roman-20"/>
     <use x="1130.046875" xlink:href="#BitstreamVeraSans-Roman-28"/>
     <use x="1169.06054688" xlink:href="#BitstreamVeraSans-Roman-43"/>
     <use x="1238.88476562" xlink:href="#BitstreamVeraSans-Roman-29"/>
     <use x="1277.8984375" xlink:href="#BitstreamVeraSans-Roman-20"/>
    </g>
   </g>
   <g id="text_22">
    <!-- 12.00 -->
    <g transform="translate(685.777021277 646.126307283)scale(0.12 -0.12)">
     <use xlink:href="#BitstreamVeraSans-Roman-31"/>
     <use x="63.623046875" xlink:href="#BitstreamVeraSans-Roman-32"/>
     <use x="127.24609375" xlink:href="#BitstreamVeraSans-Roman-2e"/>
     <use x="159.033203125" xlink:href="#BitstreamVeraSans-Roman-30"/>
     <use x="222.65625" xlink:href="#BitstreamVeraSans-Roman-30"/>
    </g>
   </g>
  </g>
  <g id="axes_6">
   <g id="patch_31">
    <path d="M 259.2 609.537152 
L 677.412766 609.537152 
L 677.412766 599.167267 
L 259.2 599.167267 
z
" style="fill:#fafad2;"/>
   </g>
   <g id="patch_32">
    <path clip-path="url(#p67d88f8307)" d="M 259.2 609.537152 
L 259.2 599.167267 
L 620.383752 599.167267 
L 620.383752 609.537152 
z
" style="fill:#0000ff;stroke:#000000;stroke-linejoin:miter;"/>
   </g>
   <g id="line2d_33">
    <path clip-path="url(#p67d88f8307)" d="M 620.383752 609.537152 
L 620.383752 599.167267 
" style="fill:none;stroke:#ff0000;stroke-linecap:square;"/>
   </g>
   <g id="patch_33">
    <path d="M 259.2 599.167267 
L 677.412766 599.167267 
" style="fill:none;stroke:#000000;stroke-linecap:square;stroke-linejoin:miter;"/>
   </g>
   <g id="patch_34">
    <path d="M 677.412766 609.537152 
L 677.412766 599.167267 
" style="fill:none;stroke:#000000;stroke-linecap:square;stroke-linejoin:miter;"/>
   </g>
   <g id="patch_35">
    <path d="M 259.2 609.537152 
L 677.412766 609.537152 
" style="fill:none;stroke:#000000;stroke-linecap:square;stroke-linejoin:miter;"/>
   </g>
   <g id="patch_36">
    <path d="M 259.2 609.537152 
L 259.2 599.167267 
" style="fill:none;stroke:#000000;stroke-linecap:square;stroke-linejoin:miter;"/>
   </g>
   <g id="matplotlib.axis_11"/>
   <g id="matplotlib.axis_12"/>
   <g id="text_23">
    <!-- Visibility -->
    <defs>
     <path d="M 32.171875 -5.078125 
Q 28.375 -14.84375 24.75 -17.8125 
Q 21.140625 -20.796875 15.09375 -20.796875 
L 7.90625 -20.796875 
L 7.90625 -13.28125 
L 13.1875 -13.28125 
Q 16.890625 -13.28125 18.9375 -11.515625 
Q 21 -9.765625 23.484375 -3.21875 
L 25.09375 0.875 
L 2.984375 54.6875 
L 12.5 54.6875 
L 29.59375 11.921875 
L 46.6875 54.6875 
L 56.203125 54.6875 
z
" id="BitstreamVeraSans-Roman-79"/>
     <path d="M 28.609375 0 
L 0.78125 72.90625 
L 11.078125 72.90625 
L 34.1875 11.53125 
L 57.328125 72.90625 
L 67.578125 72.90625 
L 39.796875 0 
z
" id="BitstreamVeraSans-Roman-56"/>
     <path d="M 48.6875 27.296875 
Q 48.6875 37.203125 44.609375 42.84375 
Q 40.53125 48.484375 33.40625 48.484375 
Q 26.265625 48.484375 22.1875 42.84375 
Q 18.109375 37.203125 18.109375 27.296875 
Q 18.109375 17.390625 22.1875 11.75 
Q 26.265625 6.109375 33.40625 6.109375 
Q 40.53125 6.109375 44.609375 11.75 
Q 48.6875 17.390625 48.6875 27.296875 
M 18.109375 46.390625 
Q 20.953125 51.265625 25.265625 53.625 
Q 29.59375 56 35.59375 56 
Q 45.5625 56 51.78125 48.09375 
Q 58.015625 40.1875 58.015625 27.296875 
Q 58.015625 14.40625 51.78125 6.484375 
Q 45.5625 -1.421875 35.59375 -1.421875 
Q 29.59375 -1.421875 25.265625 0.953125 
Q 20.953125 3.328125 18.109375 8.203125 
L 18.109375 0 
L 9.078125 0 
L 9.078125 75.984375 
L 18.109375 75.984375 
z
" id="BitstreamVeraSans-Roman-62"/>
    </defs>
    <g transform="translate(200.285744681 607.663459493)scale(0.12 -0.12)">
     <use xlink:href="#BitstreamVeraSans-Roman-56"/>
     <use x="68.376953125" xlink:href="#BitstreamVeraSans-Roman-69"/>
     <use x="96.16015625" xlink:href="#BitstreamVeraSans-Roman-73"/>
     <use x="148.259765625" xlink:href="#BitstreamVeraSans-Roman-69"/>
     <use x="176.04296875" xlink:href="#BitstreamVeraSans-Roman-62"/>
     <use x="239.51953125" xlink:href="#BitstreamVeraSans-Roman-69"/>
     <use x="267.302734375" xlink:href="#BitstreamVeraSans-Roman-6c"/>
     <use x="295.0859375" xlink:href="#BitstreamVeraSans-Roman-69"/>
     <use x="322.869140625" xlink:href="#BitstreamVeraSans-Roman-74"/>
     <use x="362.078125" xlink:href="#BitstreamVeraSans-Roman-79"/>
    </g>
   </g>
   <g id="text_24">
    <!-- 0.97 -->
    <g transform="translate(685.777021277 607.663459493)scale(0.12 -0.12)">
     <use xlink:href="#BitstreamVeraSans-Roman-30"/>
     <use x="63.623046875" xlink:href="#BitstreamVeraSans-Roman-2e"/>
     <use x="95.41015625" xlink:href="#BitstreamVeraSans-Roman-39"/>
     <use x="159.033203125" xlink:href="#BitstreamVeraSans-Roman-37"/>
    </g>
   </g>
  </g>
  <g id="axes_7">
   <g id="patch_37">
    <path d="M 259.2 348.970213 
L 677.412766 348.970213 
L 677.412766 224.531588 
L 259.2 224.531588 
z
" style="fill:#ffffff;"/>
   </g>
   <g id="line2d_34">
    <path clip-path="url(#pa9b62b07ea)" d="M 677.412766 338.024764 
L 595.164255 337.815245 
L 548.324426 337.485947 
L 515.146213 337.039808 
L 489.356426 336.478213 
L 468.306383 335.805028 
L 450.323234 335.012239 
L 434.709957 334.104642 
L 420.908936 333.082415 
L 408.641362 331.956002 
L 402.228766 331.26983 
L 402.089362 332.030779 
L 391.21583 330.743477 
L 381.318128 329.352742 
L 372.117447 327.839305 
L 363.613787 326.220519 
L 355.52834 324.455484 
L 348.000511 322.586197 
L 340.890894 320.594046 
L 334.199489 318.492859 
L 327.786894 316.249166 
L 324.859404 315.143143 
L 324.72 316.75523 
L 318.586213 314.374328 
L 312.731234 311.865206 
L 307.155064 309.239074 
L 301.718298 306.434843 
L 296.420936 303.449287 
L 291.402383 300.369434 
L 286.523234 297.120142 
L 281.783489 293.702764 
L 277.043745 290.007096 
L 272.443404 286.132543 
L 270.770553 284.649006 
L 270.631149 288.097777 
L 266.170213 284.157095 
L 261.709277 279.915088 
L 259.2 277.387962 
L 259.2 277.387962 
" style="fill:none;stroke:#008000;stroke-linecap:square;stroke-width:2.0;"/>
   </g>
   <g id="patch_38">
    <path d="M 259.2 224.531588 
L 677.412766 224.531588 
" style="fill:none;stroke:#000000;stroke-linecap:square;stroke-linejoin:miter;"/>
   </g>
   <g id="patch_39">
    <path d="M 677.412766 348.970213 
L 677.412766 224.531588 
" style="fill:none;stroke:#000000;stroke-linecap:square;stroke-linejoin:miter;"/>
   </g>
   <g id="patch_40">
    <path d="M 259.2 348.970213 
L 677.412766 348.970213 
" style="fill:none;stroke:#000000;stroke-linecap:square;stroke-linejoin:miter;"/>
   </g>
   <g id="patch_41">
    <path d="M 259.2 348.970213 
L 259.2 224.531588 
" style="fill:none;stroke:#000000;stroke-linecap:square;stroke-linejoin:miter;"/>
   </g>
   <g id="matplotlib.axis_13">
    <g id="xtick_8">
     <g id="line2d_35">
      <g>
       <use style="stroke:#000000;stroke-width:0.5;" x="259.2" xlink:href="#m69a2b5db33" y="348.970212766"/>
      </g>
     </g>
     <g id="line2d_36">
      <g>
       <use style="stroke:#000000;stroke-width:0.5;" x="259.2" xlink:href="#me69832b708" y="224.531587561"/>
      </g>
     </g>
     <g id="text_25">
      <!-- 0 -->
      <g transform="translate(255.3825 362.088337766)scale(0.12 -0.12)">
       <use xlink:href="#BitstreamVeraSans-Roman-30"/>
      </g>
     </g>
    </g>
    <g id="xtick_9">
     <g id="line2d_37">
      <g>
       <use style="stroke:#000000;stroke-width:0.5;" x="328.90212766" xlink:href="#m69a2b5db33" y="348.970212766"/>
      </g>
     </g>
     <g id="line2d_38">
      <g>
       <use style="stroke:#000000;stroke-width:0.5;" x="328.90212766" xlink:href="#me69832b708" y="224.531587561"/>
      </g>
     </g>
     <g id="text_26">
      <!-- 5 -->
      <g transform="translate(325.08462766 362.088337766)scale(0.12 -0.12)">
       <use xlink:href="#BitstreamVeraSans-Roman-35"/>
      </g>
     </g>
    </g>
    <g id="xtick_10">
     <g id="line2d_39">
      <g>
       <use style="stroke:#000000;stroke-width:0.5;" x="398.604255319" xlink:href="#m69a2b5db33" y="348.970212766"/>
      </g>
     </g>
     <g id="line2d_40">
      <g>
       <use style="stroke:#000000;stroke-width:0.5;" x="398.604255319" xlink:href="#me69832b708" y="224.531587561"/>
      </g>
     </g>
     <g id="text_27">
      <!-- 10 -->
      <g transform="translate(390.969255319 362.088337766)scale(0.12 -0.12)">
       <use xlink:href="#BitstreamVeraSans-Roman-31"/>
       <use x="63.623046875" xlink:href="#BitstreamVeraSans-Roman-30"/>
      </g>
     </g>
    </g>
    <g id="xtick_11">
     <g id="line2d_41">
      <g>
       <use style="stroke:#000000;stroke-width:0.5;" x="468.306382979" xlink:href="#m69a2b5db33" y="348.970212766"/>
      </g>
     </g>
     <g id="line2d_42">
      <g>
       <use style="stroke:#000000;stroke-width:0.5;" x="468.306382979" xlink:href="#me69832b708" y="224.531587561"/>
      </g>
     </g>
     <g id="text_28">
      <!-- 15 -->
      <g transform="translate(460.671382979 362.088337766)scale(0.12 -0.12)">
       <use xlink:href="#BitstreamVeraSans-Roman-31"/>
       <use x="63.623046875" xlink:href="#BitstreamVeraSans-Roman-35"/>
      </g>
     </g>
    </g>
    <g id="xtick_12">
     <g id="line2d_43">
      <g>
       <use style="stroke:#000000;stroke-width:0.5;" x="538.008510638" xlink:href="#m69a2b5db33" y="348.970212766"/>
      </g>
     </g>
     <g id="line2d_44">
      <g>
       <use style="stroke:#000000;stroke-width:0.5;" x="538.008510638" xlink:href="#me69832b708" y="224.531587561"/>
      </g>
     </g>
     <g id="text_29">
      <!-- 20 -->
      <g transform="translate(530.373510638 362.088337766)scale(0.12 -0.12)">
       <use xlink:href="#BitstreamVeraSans-Roman-32"/>
       <use x="63.623046875" xlink:href="#BitstreamVeraSans-Roman-30"/>
      </g>
     </g>
    </g>
    <g id="xtick_13">
     <g id="line2d_45">
      <g>
       <use style="stroke:#000000;stroke-width:0.5;" x="607.710638298" xlink:href="#m69a2b5db33" y="348.970212766"/>
      </g>
     </g>
     <g id="line2d_46">
      <g>
       <use style="stroke:#000000;stroke-width:0.5;" x="607.710638298" xlink:href="#me69832b708" y="224.531587561"/>
      </g>
     </g>
     <g id="text_30">
      <!-- 25 -->
      <g transform="translate(600.075638298 362.088337766)scale(0.12 -0.12)">
       <use xlink:href="#BitstreamVeraSans-Roman-32"/>
       <use x="63.623046875" xlink:href="#BitstreamVeraSans-Roman-35"/>
      </g>
     </g>
    </g>
    <g id="xtick_14">
     <g id="line2d_47">
      <g>
       <use style="stroke:#000000;stroke-width:0.5;" x="677.412765957" xlink:href="#m69a2b5db33" y="348.970212766"/>
      </g>
     </g>
     <g id="line2d_48">
      <g>
       <use style="stroke:#000000;stroke-width:0.5;" x="677.412765957" xlink:href="#me69832b708" y="224.531587561"/>
      </g>
     </g>
     <g id="text_31">
      <!-- 30 -->
      <g transform="translate(669.777765957 362.088337766)scale(0.12 -0.12)">
       <use xlink:href="#BitstreamVeraSans-Roman-33"/>
       <use x="63.623046875" xlink:href="#BitstreamVeraSans-Roman-30"/>
      </g>
     </g>
    </g>
   </g>
   <g id="matplotlib.axis_14">
    <g id="ytick_7">
     <g id="line2d_49">
      <g>
       <use style="stroke:#000000;stroke-width:0.5;" x="259.2" xlink:href="#m02a114f034" y="348.970212766"/>
      </g>
     </g>
     <g id="line2d_50">
      <g>
       <use style="stroke:#000000;stroke-width:0.5;" x="677.412765957" xlink:href="#m736e8bd86d" y="348.970212766"/>
      </g>
     </g>
     <g id="text_32">
      <!-- 0 -->
      <g transform="translate(247.565 352.281462766)scale(0.12 -0.12)">
       <use xlink:href="#BitstreamVeraSans-Roman-30"/>
      </g>
     </g>
    </g>
    <g id="ytick_8">
     <g id="line2d_51">
      <g>
       <use style="stroke:#000000;stroke-width:0.5;" x="259.2" xlink:href="#m02a114f034" y="323.045499182"/>
      </g>
     </g>
     <g id="line2d_52">
      <g>
       <use style="stroke:#000000;stroke-width:0.5;" x="677.412765957" xlink:href="#m736e8bd86d" y="323.045499182"/>
      </g>
     </g>
     <g id="text_33">
      <!-- 10 -->
      <g transform="translate(239.93 326.356749182)scale(0.12 -0.12)">
       <use xlink:href="#BitstreamVeraSans-Roman-31"/>
       <use x="63.623046875" xlink:href="#BitstreamVeraSans-Roman-30"/>
      </g>
     </g>
    </g>
    <g id="ytick_9">
     <g id="line2d_53">
      <g>
       <use style="stroke:#000000;stroke-width:0.5;" x="259.2" xlink:href="#m02a114f034" y="297.120785597"/>
      </g>
     </g>
     <g id="line2d_54">
      <g>
       <use style="stroke:#000000;stroke-width:0.5;" x="677.412765957" xlink:href="#m736e8bd86d" y="297.120785597"/>
      </g>
     </g>
     <g id="text_34">
      <!-- 20 -->
      <g transform="translate(239.93 300.432035597)scale(0.12 -0.12)">
       <use xlink:href="#BitstreamVeraSans-Roman-32"/>
       <use x="63.623046875" xlink:href="#BitstreamVeraSans-Roman-30"/>
      </g>
     </g>
    </g>
    <g id="ytick_10">
     <g id="line2d_55">
      <g>
       <use style="stroke:#000000;stroke-width:0.5;" x="259.2" xlink:href="#m02a114f034" y="271.196072013"/>
      </g>
     </g>
     <g id="line2d_56">
      <g>
       <use style="stroke:#000000;stroke-width:0.5;" x="677.412765957" xlink:href="#m736e8bd86d" y="271.196072013"/>
      </g>
     </g>
     <g id="text_35">
      <!-- 30 -->
      <g transform="translate(239.93 274.507322013)scale(0.12 -0.12)">
       <use xlink:href="#BitstreamVeraSans-Roman-33"/>
       <use x="63.623046875" xlink:href="#BitstreamVeraSans-Roman-30"/>
      </g>
     </g>
    </g>
    <g id="ytick_11">
     <g id="line2d_57">
      <g>
       <use style="stroke:#000000;stroke-width:0.5;" x="259.2" xlink:href="#m02a114f034" y="245.271358429"/>
      </g>
     </g>
     <g id="line2d_58">
      <g>
       <use style="stroke:#000000;stroke-width:0.5;" x="677.412765957" xlink:href="#m736e8bd86d" y="245.271358429"/>
      </g>
     </g>
     <g id="text_36">
      <!-- 40 -->
      <g transform="translate(239.93 248.582608429)scale(0.12 -0.12)">
       <use xlink:href="#BitstreamVeraSans-Roman-34"/>
       <use x="63.623046875" xlink:href="#BitstreamVeraSans-Roman-30"/>
      </g>
     </g>
    </g>
    <g id="text_37">
     <!-- Classical bit rate (Mbps) -->
     <defs>
      <path d="M 9.8125 72.90625 
L 24.515625 72.90625 
L 43.109375 23.296875 
L 61.8125 72.90625 
L 76.515625 72.90625 
L 76.515625 0 
L 66.890625 0 
L 66.890625 64.015625 
L 48.09375 14.015625 
L 38.1875 14.015625 
L 19.390625 64.015625 
L 19.390625 0 
L 9.8125 0 
z
" id="BitstreamVeraSans-Roman-4d"/>
     </defs>
     <g transform="translate(232.434375 359.184025164)rotate(-90.0)scale(0.12 -0.12)">
      <use xlink:href="#BitstreamVeraSans-Roman-43"/>
      <use x="69.82421875" xlink:href="#BitstreamVeraSans-Roman-6c"/>
      <use x="97.607421875" xlink:href="#BitstreamVeraSans-Roman-61"/>
      <use x="158.88671875" xlink:href="#BitstreamVeraSans-Roman-73"/>
      <use x="210.986328125" xlink:href="#BitstreamVeraSans-Roman-73"/>
      <use x="263.0859375" xlink:href="#BitstreamVeraSans-Roman-69"/>
      <use x="290.869140625" xlink:href="#BitstreamVeraSans-Roman-63"/>
      <use x="345.849609375" xlink:href="#BitstreamVeraSans-Roman-61"/>
      <use x="407.12890625" xlink:href="#BitstreamVeraSans-Roman-6c"/>
      <use x="434.912109375" xlink:href="#BitstreamVeraSans-Roman-20"/>
      <use x="466.69921875" xlink:href="#BitstreamVeraSans-Roman-62"/>
      <use x="530.17578125" xlink:href="#BitstreamVeraSans-Roman-69"/>
      <use x="557.958984375" xlink:href="#BitstreamVeraSans-Roman-74"/>
      <use x="597.16796875" xlink:href="#BitstreamVeraSans-Roman-20"/>
      <use x="628.955078125" xlink:href="#BitstreamVeraSans-Roman-72"/>
      <use x="670.068359375" xlink:href="#BitstreamVeraSans-Roman-61"/>
      <use x="731.34765625" xlink:href="#BitstreamVeraSans-Roman-74"/>
      <use x="770.556640625" xlink:href="#BitstreamVeraSans-Roman-65"/>
      <use x="832.080078125" xlink:href="#BitstreamVeraSans-Roman-20"/>
      <use x="863.8671875" xlink:href="#BitstreamVeraSans-Roman-28"/>
      <use x="902.880859375" xlink:href="#BitstreamVeraSans-Roman-4d"/>
      <use x="989.16015625" xlink:href="#BitstreamVeraSans-Roman-62"/>
      <use x="1052.63671875" xlink:href="#BitstreamVeraSans-Roman-70"/>
      <use x="1116.11328125" xlink:href="#BitstreamVeraSans-Roman-73"/>
      <use x="1168.21289062" xlink:href="#BitstreamVeraSans-Roman-29"/>
     </g>
    </g>
   </g>
  </g>
  <g id="axes_8">
   <g id="patch_42">
    <path d="M 259.2 501.5018 
L 677.412766 501.5018 
L 677.412766 377.063175 
L 259.2 377.063175 
z
" style="fill:#ffffff;"/>
   </g>
   <g id="line2d_59">
    <path clip-path="url(#pedfb029369)" d="M 677.412766 501.464768 
L 587.218213 501.295227 
L 542.051234 500.99787 
L 509.988255 500.573925 
L 484.756085 500.024878 
L 463.984851 499.356346 
L 446.280511 498.568822 
L 430.946043 497.669973 
L 417.284426 496.650692 
L 405.016851 495.515686 
L 393.864511 494.262894 
L 383.688 492.899016 
L 374.347915 491.427963 
L 365.565447 489.821126 
L 357.48 488.120563 
L 349.812766 486.283763 
L 342.563745 484.319401 
L 335.732936 482.240072 
L 329.180936 480.01248 
L 323.047149 477.696757 
L 317.052766 475.195192 
L 311.337191 472.567798 
L 305.900426 469.827474 
L 300.603064 466.909895 
L 295.445106 463.812897 
L 290.426553 460.53541 
L 285.547404 457.07757 
L 280.80766 453.440821 
L 276.207319 449.628009 
L 271.746383 445.643468 
L 267.285447 441.354224 
L 262.963915 436.886477 
L 259.2 432.726699 
L 259.2 432.726699 
" style="fill:none;stroke:#0000ff;stroke-linecap:square;stroke-width:2.0;"/>
   </g>
   <g id="patch_43">
    <path d="M 259.2 377.063175 
L 677.412766 377.063175 
" style="fill:none;stroke:#000000;stroke-linecap:square;stroke-linejoin:miter;"/>
   </g>
   <g id="patch_44">
    <path d="M 677.412766 501.5018 
L 677.412766 377.063175 
" style="fill:none;stroke:#000000;stroke-linecap:square;stroke-linejoin:miter;"/>
   </g>
   <g id="patch_45">
    <path d="M 259.2 501.5018 
L 677.412766 501.5018 
" style="fill:none;stroke:#000000;stroke-linecap:square;stroke-linejoin:miter;"/>
   </g>
   <g id="patch_46">
    <path d="M 259.2 501.5018 
L 259.2 377.063175 
" style="fill:none;stroke:#000000;stroke-linecap:square;stroke-linejoin:miter;"/>
   </g>
   <g id="matplotlib.axis_15">
    <g id="xtick_15">
     <g id="line2d_60">
      <g>
       <use style="stroke:#000000;stroke-width:0.5;" x="259.2" xlink:href="#m69a2b5db33" y="501.501800327"/>
      </g>
     </g>
     <g id="line2d_61">
      <g>
       <use style="stroke:#000000;stroke-width:0.5;" x="259.2" xlink:href="#me69832b708" y="377.063175123"/>
      </g>
     </g>
     <g id="text_38">
      <!-- 0 -->
      <g transform="translate(255.3825 514.619925327)scale(0.12 -0.12)">
       <use xlink:href="#BitstreamVeraSans-Roman-30"/>
      </g>
     </g>
    </g>
    <g id="xtick_16">
     <g id="line2d_62">
      <g>
       <use style="stroke:#000000;stroke-width:0.5;" x="328.90212766" xlink:href="#m69a2b5db33" y="501.501800327"/>
      </g>
     </g>
     <g id="line2d_63">
      <g>
       <use style="stroke:#000000;stroke-width:0.5;" x="328.90212766" xlink:href="#me69832b708" y="377.063175123"/>
      </g>
     </g>
     <g id="text_39">
      <!-- 5 -->
      <g transform="translate(325.08462766 514.619925327)scale(0.12 -0.12)">
       <use xlink:href="#BitstreamVeraSans-Roman-35"/>
      </g>
     </g>
    </g>
    <g id="xtick_17">
     <g id="line2d_64">
      <g>
       <use style="stroke:#000000;stroke-width:0.5;" x="398.604255319" xlink:href="#m69a2b5db33" y="501.501800327"/>
      </g>
     </g>
     <g id="line2d_65">
      <g>
       <use style="stroke:#000000;stroke-width:0.5;" x="398.604255319" xlink:href="#me69832b708" y="377.063175123"/>
      </g>
     </g>
     <g id="text_40">
      <!-- 10 -->
      <g transform="translate(390.969255319 514.619925327)scale(0.12 -0.12)">
       <use xlink:href="#BitstreamVeraSans-Roman-31"/>
       <use x="63.623046875" xlink:href="#BitstreamVeraSans-Roman-30"/>
      </g>
     </g>
    </g>
    <g id="xtick_18">
     <g id="line2d_66">
      <g>
       <use style="stroke:#000000;stroke-width:0.5;" x="468.306382979" xlink:href="#m69a2b5db33" y="501.501800327"/>
      </g>
     </g>
     <g id="line2d_67">
      <g>
       <use style="stroke:#000000;stroke-width:0.5;" x="468.306382979" xlink:href="#me69832b708" y="377.063175123"/>
      </g>
     </g>
     <g id="text_41">
      <!-- 15 -->
      <g transform="translate(460.671382979 514.619925327)scale(0.12 -0.12)">
       <use xlink:href="#BitstreamVeraSans-Roman-31"/>
       <use x="63.623046875" xlink:href="#BitstreamVeraSans-Roman-35"/>
      </g>
     </g>
    </g>
    <g id="xtick_19">
     <g id="line2d_68">
      <g>
       <use style="stroke:#000000;stroke-width:0.5;" x="538.008510638" xlink:href="#m69a2b5db33" y="501.501800327"/>
      </g>
     </g>
     <g id="line2d_69">
      <g>
       <use style="stroke:#000000;stroke-width:0.5;" x="538.008510638" xlink:href="#me69832b708" y="377.063175123"/>
      </g>
     </g>
     <g id="text_42">
      <!-- 20 -->
      <g transform="translate(530.373510638 514.619925327)scale(0.12 -0.12)">
       <use xlink:href="#BitstreamVeraSans-Roman-32"/>
       <use x="63.623046875" xlink:href="#BitstreamVeraSans-Roman-30"/>
      </g>
     </g>
    </g>
    <g id="xtick_20">
     <g id="line2d_70">
      <g>
       <use style="stroke:#000000;stroke-width:0.5;" x="607.710638298" xlink:href="#m69a2b5db33" y="501.501800327"/>
      </g>
     </g>
     <g id="line2d_71">
      <g>
       <use style="stroke:#000000;stroke-width:0.5;" x="607.710638298" xlink:href="#me69832b708" y="377.063175123"/>
      </g>
     </g>
     <g id="text_43">
      <!-- 25 -->
      <g transform="translate(600.075638298 514.619925327)scale(0.12 -0.12)">
       <use xlink:href="#BitstreamVeraSans-Roman-32"/>
       <use x="63.623046875" xlink:href="#BitstreamVeraSans-Roman-35"/>
      </g>
     </g>
    </g>
    <g id="xtick_21">
     <g id="line2d_72">
      <g>
       <use style="stroke:#000000;stroke-width:0.5;" x="677.412765957" xlink:href="#m69a2b5db33" y="501.501800327"/>
      </g>
     </g>
     <g id="line2d_73">
      <g>
       <use style="stroke:#000000;stroke-width:0.5;" x="677.412765957" xlink:href="#me69832b708" y="377.063175123"/>
      </g>
     </g>
     <g id="text_44">
      <!-- 30 -->
      <g transform="translate(669.777765957 514.619925327)scale(0.12 -0.12)">
       <use xlink:href="#BitstreamVeraSans-Roman-33"/>
       <use x="63.623046875" xlink:href="#BitstreamVeraSans-Roman-30"/>
      </g>
     </g>
    </g>
    <g id="text_45">
     <!-- Transmission factor T (dB) -->
     <defs>
      <path d="M 37.109375 75.984375 
L 37.109375 68.5 
L 28.515625 68.5 
Q 23.6875 68.5 21.796875 66.546875 
Q 19.921875 64.59375 19.921875 59.515625 
L 19.921875 54.6875 
L 34.71875 54.6875 
L 34.71875 47.703125 
L 19.921875 47.703125 
L 19.921875 0 
L 10.890625 0 
L 10.890625 47.703125 
L 2.296875 47.703125 
L 2.296875 54.6875 
L 10.890625 54.6875 
L 10.890625 58.5 
Q 10.890625 67.625 15.140625 71.796875 
Q 19.390625 75.984375 28.609375 75.984375 
z
" id="BitstreamVeraSans-Roman-66"/>
      <path d="M -0.296875 72.90625 
L 61.375 72.90625 
L 61.375 64.59375 
L 35.5 64.59375 
L 35.5 0 
L 25.59375 0 
L 25.59375 64.59375 
L -0.296875 64.59375 
z
" id="BitstreamVeraSans-Roman-54"/>
     </defs>
     <g transform="translate(389.109195479 531.233675327)scale(0.12 -0.12)">
      <use xlink:href="#BitstreamVeraSans-Roman-54"/>
      <use x="60.865234375" xlink:href="#BitstreamVeraSans-Roman-72"/>
      <use x="101.978515625" xlink:href="#BitstreamVeraSans-Roman-61"/>
      <use x="163.2578125" xlink:href="#BitstreamVeraSans-Roman-6e"/>
      <use x="226.63671875" xlink:href="#BitstreamVeraSans-Roman-73"/>
      <use x="278.736328125" xlink:href="#BitstreamVeraSans-Roman-6d"/>
      <use x="376.1484375" xlink:href="#BitstreamVeraSans-Roman-69"/>
      <use x="403.931640625" xlink:href="#BitstreamVeraSans-Roman-73"/>
      <use x="456.03125" xlink:href="#BitstreamVeraSans-Roman-73"/>
      <use x="508.130859375" xlink:href="#BitstreamVeraSans-Roman-69"/>
      <use x="535.9140625" xlink:href="#BitstreamVeraSans-Roman-6f"/>
      <use x="597.095703125" xlink:href="#BitstreamVeraSans-Roman-6e"/>
      <use x="660.474609375" xlink:href="#BitstreamVeraSans-Roman-20"/>
      <use x="692.26171875" xlink:href="#BitstreamVeraSans-Roman-66"/>
      <use x="727.466796875" xlink:href="#BitstreamVeraSans-Roman-61"/>
      <use x="788.74609375" xlink:href="#BitstreamVeraSans-Roman-63"/>
      <use x="843.7265625" xlink:href="#BitstreamVeraSans-Roman-74"/>
      <use x="882.935546875" xlink:href="#BitstreamVeraSans-Roman-6f"/>
      <use x="944.1171875" xlink:href="#BitstreamVeraSans-Roman-72"/>
      <use x="985.23046875" xlink:href="#BitstreamVeraSans-Roman-20"/>
      <use x="1017.01757812" xlink:href="#BitstreamVeraSans-Roman-54"/>
      <use x="1078.1015625" xlink:href="#BitstreamVeraSans-Roman-20"/>
      <use x="1109.88867188" xlink:href="#BitstreamVeraSans-Roman-28"/>
      <use x="1148.90234375" xlink:href="#BitstreamVeraSans-Roman-64"/>
      <use x="1212.37890625" xlink:href="#BitstreamVeraSans-Roman-42"/>
      <use x="1280.98242188" xlink:href="#BitstreamVeraSans-Roman-29"/>
     </g>
    </g>
   </g>
   <g id="matplotlib.axis_16">
    <g id="ytick_12">
     <g id="line2d_74">
      <g>
       <use style="stroke:#000000;stroke-width:0.5;" x="259.2" xlink:href="#m02a114f034" y="501.501800327"/>
      </g>
     </g>
     <g id="line2d_75">
      <g>
       <use style="stroke:#000000;stroke-width:0.5;" x="677.412765957" xlink:href="#m736e8bd86d" y="501.501800327"/>
      </g>
     </g>
     <g id="text_46">
      <!-- 0 -->
      <g transform="translate(247.565 504.813050327)scale(0.12 -0.12)">
       <use xlink:href="#BitstreamVeraSans-Roman-30"/>
      </g>
     </g>
    </g>
    <g id="ytick_13">
     <g id="line2d_76">
      <g>
       <use style="stroke:#000000;stroke-width:0.5;" x="259.2" xlink:href="#m02a114f034" y="485.946972177"/>
      </g>
     </g>
     <g id="line2d_77">
      <g>
       <use style="stroke:#000000;stroke-width:0.5;" x="677.412765957" xlink:href="#m736e8bd86d" y="485.946972177"/>
      </g>
     </g>
     <g id="text_47">
      <!-- 50 -->
      <g transform="translate(239.93 489.258222177)scale(0.12 -0.12)">
       <use xlink:href="#BitstreamVeraSans-Roman-35"/>
       <use x="63.623046875" xlink:href="#BitstreamVeraSans-Roman-30"/>
      </g>
     </g>
    </g>
    <g id="ytick_14">
     <g id="line2d_78">
      <g>
       <use style="stroke:#000000;stroke-width:0.5;" x="259.2" xlink:href="#m02a114f034" y="470.392144026"/>
      </g>
     </g>
     <g id="line2d_79">
      <g>
       <use style="stroke:#000000;stroke-width:0.5;" x="677.412765957" xlink:href="#m736e8bd86d" y="470.392144026"/>
      </g>
     </g>
     <g id="text_48">
      <!-- 100 -->
      <g transform="translate(232.295 473.703394026)scale(0.12 -0.12)">
       <use xlink:href="#BitstreamVeraSans-Roman-31"/>
       <use x="63.623046875" xlink:href="#BitstreamVeraSans-Roman-30"/>
       <use x="127.24609375" xlink:href="#BitstreamVeraSans-Roman-30"/>
      </g>
     </g>
    </g>
    <g id="ytick_15">
     <g id="line2d_80">
      <g>
       <use style="stroke:#000000;stroke-width:0.5;" x="259.2" xlink:href="#m02a114f034" y="454.837315876"/>
      </g>
     </g>
     <g id="line2d_81">
      <g>
       <use style="stroke:#000000;stroke-width:0.5;" x="677.412765957" xlink:href="#m736e8bd86d" y="454.837315876"/>
      </g>
     </g>
     <g id="text_49">
      <!-- 150 -->
      <g transform="translate(232.295 458.148565876)scale(0.12 -0.12)">
       <use xlink:href="#BitstreamVeraSans-Roman-31"/>
       <use x="63.623046875" xlink:href="#BitstreamVeraSans-Roman-35"/>
       <use x="127.24609375" xlink:href="#BitstreamVeraSans-Roman-30"/>
      </g>
     </g>
    </g>
    <g id="ytick_16">
     <g id="line2d_82">
      <g>
       <use style="stroke:#000000;stroke-width:0.5;" x="259.2" xlink:href="#m02a114f034" y="439.282487725"/>
      </g>
     </g>
     <g id="line2d_83">
      <g>
       <use style="stroke:#000000;stroke-width:0.5;" x="677.412765957" xlink:href="#m736e8bd86d" y="439.282487725"/>
      </g>
     </g>
     <g id="text_50">
      <!-- 200 -->
      <g transform="translate(232.295 442.593737725)scale(0.12 -0.12)">
       <use xlink:href="#BitstreamVeraSans-Roman-32"/>
       <use x="63.623046875" xlink:href="#BitstreamVeraSans-Roman-30"/>
       <use x="127.24609375" xlink:href="#BitstreamVeraSans-Roman-30"/>
      </g>
     </g>
    </g>
    <g id="ytick_17">
     <g id="line2d_84">
      <g>
       <use style="stroke:#000000;stroke-width:0.5;" x="259.2" xlink:href="#m02a114f034" y="423.727659574"/>
      </g>
     </g>
     <g id="line2d_85">
      <g>
       <use style="stroke:#000000;stroke-width:0.5;" x="677.412765957" xlink:href="#m736e8bd86d" y="423.727659574"/>
      </g>
     </g>
     <g id="text_51">
      <!-- 250 -->
      <g transform="translate(232.295 427.038909574)scale(0.12 -0.12)">
       <use xlink:href="#BitstreamVeraSans-Roman-32"/>
       <use x="63.623046875" xlink:href="#BitstreamVeraSans-Roman-35"/>
       <use x="127.24609375" xlink:href="#BitstreamVeraSans-Roman-30"/>
      </g>
     </g>
    </g>
    <g id="ytick_18">
     <g id="line2d_86">
      <g>
       <use style="stroke:#000000;stroke-width:0.5;" x="259.2" xlink:href="#m02a114f034" y="408.172831424"/>
      </g>
     </g>
     <g id="line2d_87">
      <g>
       <use style="stroke:#000000;stroke-width:0.5;" x="677.412765957" xlink:href="#m736e8bd86d" y="408.172831424"/>
      </g>
     </g>
     <g id="text_52">
      <!-- 300 -->
      <g transform="translate(232.295 411.484081424)scale(0.12 -0.12)">
       <use xlink:href="#BitstreamVeraSans-Roman-33"/>
       <use x="63.623046875" xlink:href="#BitstreamVeraSans-Roman-30"/>
       <use x="127.24609375" xlink:href="#BitstreamVeraSans-Roman-30"/>
      </g>
     </g>
    </g>
    <g id="ytick_19">
     <g id="line2d_88">
      <g>
       <use style="stroke:#000000;stroke-width:0.5;" x="259.2" xlink:href="#m02a114f034" y="392.618003273"/>
      </g>
     </g>
     <g id="line2d_89">
      <g>
       <use style="stroke:#000000;stroke-width:0.5;" x="677.412765957" xlink:href="#m736e8bd86d" y="392.618003273"/>
      </g>
     </g>
     <g id="text_53">
      <!-- 350 -->
      <g transform="translate(232.295 395.929253273)scale(0.12 -0.12)">
       <use xlink:href="#BitstreamVeraSans-Roman-33"/>
       <use x="63.623046875" xlink:href="#BitstreamVeraSans-Roman-35"/>
       <use x="127.24609375" xlink:href="#BitstreamVeraSans-Roman-30"/>
      </g>
     </g>
    </g>
    <g id="ytick_20">
     <g id="line2d_90">
      <g>
       <use style="stroke:#000000;stroke-width:0.5;" x="259.2" xlink:href="#m02a114f034" y="377.063175123"/>
      </g>
     </g>
     <g id="line2d_91">
      <g>
       <use style="stroke:#000000;stroke-width:0.5;" x="677.412765957" xlink:href="#m736e8bd86d" y="377.063175123"/>
      </g>
     </g>
     <g id="text_54">
      <!-- 400 -->
      <g transform="translate(232.295 380.374425123)scale(0.12 -0.12)">
       <use xlink:href="#BitstreamVeraSans-Roman-34"/>
       <use x="63.623046875" xlink:href="#BitstreamVeraSans-Roman-30"/>
       <use x="127.24609375" xlink:href="#BitstreamVeraSans-Roman-30"/>
      </g>
     </g>
    </g>
    <g id="text_55">
     <!-- Private key rate (kbps) -->
     <defs>
      <path d="M 19.671875 64.796875 
L 19.671875 37.40625 
L 32.078125 37.40625 
Q 38.96875 37.40625 42.71875 40.96875 
Q 46.484375 44.53125 46.484375 51.125 
Q 46.484375 57.671875 42.71875 61.234375 
Q 38.96875 64.796875 32.078125 64.796875 
z
M 9.8125 72.90625 
L 32.078125 72.90625 
Q 44.34375 72.90625 50.609375 67.359375 
Q 56.890625 61.8125 56.890625 51.125 
Q 56.890625 40.328125 50.609375 34.8125 
Q 44.34375 29.296875 32.078125 29.296875 
L 19.671875 29.296875 
L 19.671875 0 
L 9.8125 0 
z
" id="BitstreamVeraSans-Roman-50"/>
      <path d="M 2.984375 54.6875 
L 12.5 54.6875 
L 29.59375 8.796875 
L 46.6875 54.6875 
L 56.203125 54.6875 
L 35.6875 0 
L 23.484375 0 
z
" id="BitstreamVeraSans-Roman-76"/>
     </defs>
     <g transform="translate(224.799375 507.827800225)rotate(-90.0)scale(0.12 -0.12)">
      <use xlink:href="#BitstreamVeraSans-Roman-50"/>
      <use x="60.287109375" xlink:href="#BitstreamVeraSans-Roman-72"/>
      <use x="101.400390625" xlink:href="#BitstreamVeraSans-Roman-69"/>
      <use x="129.18359375" xlink:href="#BitstreamVeraSans-Roman-76"/>
      <use x="188.36328125" xlink:href="#BitstreamVeraSans-Roman-61"/>
      <use x="249.642578125" xlink:href="#BitstreamVeraSans-Roman-74"/>
      <use x="288.8515625" xlink:href="#BitstreamVeraSans-Roman-65"/>
      <use x="350.375" xlink:href="#BitstreamVeraSans-Roman-20"/>
      <use x="382.162109375" xlink:href="#BitstreamVeraSans-Roman-6b"/>
      <use x="440.025390625" xlink:href="#BitstreamVeraSans-Roman-65"/>
      <use x="501.548828125" xlink:href="#BitstreamVeraSans-Roman-79"/>
      <use x="560.728515625" xlink:href="#BitstreamVeraSans-Roman-20"/>
      <use x="592.515625" xlink:href="#BitstreamVeraSans-Roman-72"/>
      <use x="633.62890625" xlink:href="#BitstreamVeraSans-Roman-61"/>
      <use x="694.908203125" xlink:href="#BitstreamVeraSans-Roman-74"/>
      <use x="734.1171875" xlink:href="#BitstreamVeraSans-Roman-65"/>
      <use x="795.640625" xlink:href="#BitstreamVeraSans-Roman-20"/>
      <use x="827.427734375" xlink:href="#BitstreamVeraSans-Roman-28"/>
      <use x="866.44140625" xlink:href="#BitstreamVeraSans-Roman-6b"/>
      <use x="924.3515625" xlink:href="#BitstreamVeraSans-Roman-62"/>
      <use x="987.828125" xlink:href="#BitstreamVeraSans-Roman-70"/>
      <use x="1051.3046875" xlink:href="#BitstreamVeraSans-Roman-73"/>
      <use x="1103.40429688" xlink:href="#BitstreamVeraSans-Roman-29"/>
     </g>
    </g>
   </g>
  </g>
  <g id="axes_9">
   <g id="patch_47">
    <path d="M 734.4 50.4 
L 820.8 50.4 
L 820.8 21.6 
L 734.4 21.6 
z
" style="fill:#fafad2;"/>
   </g>
   <g id="patch_48">
    <path d="M 734.4 21.6 
L 820.8 21.6 
" style="fill:none;stroke:#000000;stroke-linecap:square;stroke-linejoin:miter;"/>
   </g>
   <g id="patch_49">
    <path d="M 820.8 50.4 
L 820.8 21.6 
" style="fill:none;stroke:#000000;stroke-linecap:square;stroke-linejoin:miter;"/>
   </g>
   <g id="patch_50">
    <path d="M 734.4 50.4 
L 820.8 50.4 
" style="fill:none;stroke:#000000;stroke-linecap:square;stroke-linejoin:miter;"/>
   </g>
   <g id="patch_51">
    <path d="M 734.4 50.4 
L 734.4 21.6 
" style="fill:none;stroke:#000000;stroke-linecap:square;stroke-linejoin:miter;"/>
   </g>
   <g id="matplotlib.axis_17"/>
   <g id="matplotlib.axis_18"/>
   <g id="text_56">
    <!-- Reset -->
    <g transform="translate(760.573125 39.31125)scale(0.12 -0.12)">
     <use xlink:href="#BitstreamVeraSans-Roman-52"/>
     <use x="69.419921875" xlink:href="#BitstreamVeraSans-Roman-65"/>
     <use x="130.943359375" xlink:href="#BitstreamVeraSans-Roman-73"/>
     <use x="183.04296875" xlink:href="#BitstreamVeraSans-Roman-65"/>
     <use x="244.56640625" xlink:href="#BitstreamVeraSans-Roman-74"/>
    </g>
   </g>
  </g>
 </g>
 <defs>
  <clipPath id="pedfb029369">
   <rect height="124.438625205" width="418.212765957" x="259.2" y="377.063175123"/>
  </clipPath>
  <clipPath id="pfc3510ed02">
   <rect height="10.3698854337" width="418.212765957" x="259.2" y="618.398690671"/>
  </clipPath>
  <clipPath id="pf9c351dc2d">
   <rect height="124.438625205" width="418.212765957" x="259.2" y="72.0"/>
  </clipPath>
  <clipPath id="p57a06f05bc">
   <rect height="10.3698854337" width="418.212765957" x="259.2" y="637.630114566"/>
  </clipPath>
  <clipPath id="pa9b62b07ea">
   <rect height="124.438625205" width="418.212765957" x="259.2" y="224.531587561"/>
  </clipPath>
  <clipPath id="p2ba23bf45d">
   <rect height="10.3698854337" width="418.212765957" x="259.2" y="579.935842881"/>
  </clipPath>
  <clipPath id="p67d88f8307">
   <rect height="10.3698854337" width="418.212765957" x="259.2" y="599.167266776"/>
  </clipPath>
  <clipPath id="pec41a7a42f">
   <rect height="10.3698854337" width="418.212765957" x="259.2" y="560.704418985"/>
  </clipPath>
 </defs>
</svg>
